<?xml version="1.0" standalone="no"?>
<!DOCTYPE svg PUBLIC "-//W3C//DTD SVG 1.1//EN" "http://www.w3.org/Graphics/SVG/1.1/DTD/svg11.dtd" >
<svg xmlns="http://www.w3.org/2000/svg" xmlns:xlink="http://www.w3.org/1999/xlink" version="1.1">
<metadata>
Created by FontForge 20170731 at Thu Oct 14 12:20:53 2021
 By Aleksey,,,
Copyright (c) 2014 ParaType Inc., ParaType Ltd. All rights reserved.
</metadata>
<defs>
<font id="TKT-Medium" horiz-adv-x="1062" >
  <font-face 
    font-family="TKT Medium"
    font-weight="500"
    font-stretch="normal"
    units-per-em="2048"
    panose-1="2 11 6 4 2 2 2 2 2 4"
    ascent="1638"
    descent="-410"
    x-height="1024"
    cap-height="1413"
    bbox="-737 -559 6255 2062"
    underline-thickness="102"
    underline-position="-307"
    unicode-range="U+0020-1F4F1"
  />
<missing-glyph horiz-adv-x="512" 
 />
    <glyph glyph-name="fi" unicode="fi" horiz-adv-x="985" 
d="M35 836v188h131v63q0 180 75 253t259 73h63v-196h-47q-78 0 -105.5 -36t-27.5 -134v-23h500v-1024h-217v836h-283v-836h-217v836h-131z" />
    <glyph glyph-name="fl" unicode="fl" horiz-adv-x="1093" 
d="M666 322v895h-150q-78 0 -105.5 -36t-27.5 -134v-23h180v-188h-180v-836h-217v836h-131v188h131v63q0 180 75 253t259 73h385v-1040q0 -99 33 -139.5t122 -40.5v-193q-203 0 -288.5 73t-85.5 249z" />
    <glyph glyph-name=".notdef" horiz-adv-x="512" 
 />
    <glyph glyph-name=".null" horiz-adv-x="0" 
 />
    <glyph glyph-name="nonmarkingreturn" horiz-adv-x="682" 
 />
    <glyph glyph-name="space" unicode=" " horiz-adv-x="655" 
 />
    <glyph glyph-name="exclam" unicode="!" horiz-adv-x="481" 
d="M129 1413h223v-1026h-223v1026zM362 0h-243v242h243v-242z" />
    <glyph glyph-name="quotedbl" unicode="&#x22;" horiz-adv-x="704" 
d="M82 1413h215v-362h-215v362zM410 1413h213v-362h-213v362z" />
    <glyph glyph-name="numbersign" unicode="#" horiz-adv-x="1251" 
d="M74 821v199h237l74 393h225l-73 -393h245l74 393h225l-73 -393h188v-199h-225l-41 -217h190v-198h-227l-76 -406h-223l74 406h-246l-74 -406h-227l76 406h-199v198h235l41 217h-200zM745 821h-245l-41 -217h246z" />
    <glyph glyph-name="dollar" unicode="$" horiz-adv-x="1069" 
d="M1020 1194l-180 -129q-88 122 -203 149v-413q215 -51 308 -145.5t93 -266.5q0 -163 -103 -270.5t-290 -130.5v-226h-199v226q-270 30 -415 231l186 129q103 -127 236 -151l2 12v412q-389 99 -389 415q0 162 98 264t282 125v238h199v-240q248 -34 375 -229zM801 379
q0 70 -37 114.5t-127 79.5v-362v-14q164 35 164 182zM303 1038q0 -129 152 -188v367q-152 -35 -152 -179z" />
    <glyph glyph-name="percent" unicode="%" horiz-adv-x="1523" 
d="M1483 401v-106q0 -151 -77 -232t-228 -81q-143 0 -221 82t-78 231v106q0 149 79 230.5t220 81.5q147 0 226 -81t79 -231zM1180 135q129 0 129 162v100q0 160 -129 160q-125 0 -125 -160v-100q0 -162 125 -162zM653 1120v-106q0 -151 -77.5 -232.5t-227.5 -81.5
q-145 0 -223 82t-78 232v106q0 149 79 230.5t222 81.5q147 0 226 -81t79 -231zM348 854q129 0 129 162v100q0 160 -129 160q-123 0 -123 -160v-100q0 -162 123 -162zM254 0l790 1413h218l-789 -1413h-219z" />
    <glyph glyph-name="ampersand" unicode="&#x26;" horiz-adv-x="1351" 
d="M80 377q0 227 242 414q-140 172 -140 319q0 146 102.5 234t268.5 88q176 0 272 -84q93 -84 93 -197q0 -112 -97 -209q-53 -53 -90 -82q-25 -19 -53 -39.5t-42 -31l-18 -13.5l316 -348q43 101 43 231h221q0 -225 -111 -401l236 -258h-285l-94 102q-164 -120 -393 -120
q-221 0 -346 116t-125 279zM557 188q143 0 244 70l-352 389q-140 -125 -140 -246q0 -97 68.5 -155t179.5 -58zM414 1110q0 -82 86 -197q108 74 151 122.5t43 101.5q0 74 -70 103t-140 -7.5t-70 -122.5z" />
    <glyph glyph-name="quotesingle" unicode="'" horiz-adv-x="378" 
d="M82 1413h215v-362h-215v362z" />
    <glyph glyph-name="parenleft" unicode="(" horiz-adv-x="649" 
d="M610 -68l-125 -170q-210 139 -280 261q-70 119 -70 301v778q0 180 70 299q71 121 280 262l125 -172q-152 -113 -204 -195q-54 -85 -54 -241v-684q0 -157 54 -242q55 -83 204 -197z" />
    <glyph glyph-name="parenright" unicode=")" horiz-adv-x="649" 
d="M178 -238l-125 170q151 116 205 197q53 83 53 242v684q0 158 -53 241q-51 80 -205 195l125 172q209 -141 279 -262q71 -121 71 -299v-778q0 -174 -71 -301q-73 -126 -279 -261z" />
    <glyph glyph-name="asterisk" unicode="*" horiz-adv-x="862" 
d="M340 1413h170l-10 -225l190 121l86 -148l-196 -106l196 -105l-86 -145l-190 117l10 -224h-170l6 222l-188 -117l-86 147l198 105l-196 106l84 148l188 -119z" />
    <glyph glyph-name="plus" unicode="+" horiz-adv-x="1069" 
d="M418 631h-301v188h301v305h190v-305h305v-188h-305v-303h-190v303z" />
    <glyph glyph-name="comma" unicode="," horiz-adv-x="487" 
d="M123 283h242v-389l-242 -207v596z" />
    <glyph glyph-name="hyphen" unicode="-" horiz-adv-x="653" 
d="M592 496h-531v192h531v-192z" />
    <glyph glyph-name="period" unicode="." horiz-adv-x="528" 
d="M123 283h283v-283h-283v283z" />
    <glyph glyph-name="slash" unicode="/" horiz-adv-x="993" 
d="M985 1663l-688 -1901h-201l688 1901h201z" />
    <glyph glyph-name="zero" unicode="0" horiz-adv-x="1069" 
d="M979 999v-585q0 -208 -129 -322q-125 -110 -315 -110t-318 110q-127 115 -127 322v583q0 212 127 324q126 110 317.5 110t317.5 -110q127 -109 127 -322zM741 428v557q0 113 -54.5 176.5t-151.5 63.5q-98 0 -153.5 -63.5t-55.5 -176.5v-557q0 -113 55.5 -176.5
t153.5 -63.5q97 0 151.5 63.5t54.5 176.5z" />
    <glyph glyph-name="one" unicode="1" horiz-adv-x="1069" 
d="M473 1413h223v-1413h-237v1157l-203 -139v239z" />
    <glyph glyph-name="two" unicode="2" horiz-adv-x="1069" 
d="M410 205h536v-205h-854v168l486 569q143 162 143 297q0 54 -21.5 96t-56 63.5t-76.5 31.5t-84.5 -0.5t-78.5 -32t-59.5 -63.5t-25.5 -95h-217q0 175 122 286.5t304 111.5q187 0 306 -113q122 -113 122 -289q0 -132 -75 -244q-31 -46 -64 -90l-74 -92z" />
    <glyph glyph-name="three" unicode="3" horiz-adv-x="1069" 
d="M487 627h-98v204h98q110 0 169 55.5t59 155.5q0 80 -57.5 133.5t-143.5 53.5q-83 0 -138 -49t-63 -125h-217q3 167 127 270q125 107 299 107q185 0 305 -111q123 -111 123 -272q0 -105 -53 -188.5t-147 -127.5q221 -99 221 -342q0 -173 -117 -293q-116 -116 -315 -116
q-203 0 -326.5 104.5t-134.5 282.5h217q12 -86 72 -133.5t161 -47.5q92 0 149.5 58.5t57.5 150.5q0 111 -63.5 170.5t-184.5 59.5z" />
    <glyph glyph-name="four" unicode="4" horiz-adv-x="1069" 
d="M29 381l489 1032h252l-453 -993h332v385h238v-385h129v-207h-129v-213h-238v213h-620v168z" />
    <glyph glyph-name="five" unicode="5" horiz-adv-x="1069" 
d="M535 752q-111 0 -173 -105h-215v766h766v-223h-534v-299q82 82 217 82q179 0 276 -132t97 -378q0 -234 -110 -357.5t-320 -123.5q-177 0 -295 100.5t-135 267.5h233q40 -162 193 -162q196 0 196 267q0 297 -196 297z" />
    <glyph glyph-name="six" unicode="6" horiz-adv-x="1069" 
d="M492 1413h258l-287 -600q53 27 135 27q165 0 272 -119q109 -121 109 -299q0 -208 -125 -324q-122 -116 -319 -116q-196 0 -322 114q-125 116 -125 322q0 113 115 370zM535 188q50 0 91 19.5t66 51.5t39 73t14 83.5t-14 83.5t-39 73t-66 51.5t-91 19.5q-57 0 -102.5 -25
t-69.5 -65t-35 -88.5t-0.5 -97.5t34 -89t69 -65t104.5 -25z" />
    <glyph glyph-name="seven" unicode="7" horiz-adv-x="1069" 
d="M332 1206v-231h-205v438h831v-182l-423 -1231h-248l426 1206h-381z" />
    <glyph glyph-name="eight" unicode="8" horiz-adv-x="1069" 
d="M78 395q0 111 60.5 205t152.5 133q-87 43 -140 127t-53 182q0 175 129 283q125 107 308 107q182 0 307 -107q129 -108 129 -283q0 -98 -53 -182t-140 -127q93 -39 153 -133t60 -205q0 -186 -133 -301q-130 -112 -323 -112q-194 0 -324 112q-133 115 -133 301zM315 410
q0 -94 63.5 -159t156.5 -65q92 0 156.5 65.5t64.5 158.5q0 98 -70 159q-68 62 -151 62q-90 0 -155 -63t-65 -158zM735 1026q0 54 -22 96t-57.5 64t-78.5 32.5t-85.5 0.5t-78 -32t-57.5 -64.5t-22 -96.5q0 -55 22 -98.5t57.5 -65.5t78 -32.5t85.5 0t78.5 32.5t57.5 65.5
t22 98.5z" />
    <glyph glyph-name="nine" unicode="9" horiz-adv-x="1069" 
d="M580 0h-258l284 600q-56 -29 -135 -29q-167 0 -274 118.5t-107 301.5q0 208 125 324q126 117 320 117t321 -115q125 -113 125 -322q0 -113 -115 -370zM535 770q51 0 92.5 19.5t67 51.5t39.5 73t14 83.5t-14 83.5t-39.5 73t-67 51.5t-92.5 19.5q-67 0 -116 -33.5
t-71 -84.5t-22 -109.5t22 -109.5t71 -84.5t116 -33.5z" />
    <glyph glyph-name="colon" unicode=":" horiz-adv-x="477" 
d="M123 1024h242v-244h-242v244zM123 242h242v-242h-242v242z" />
    <glyph glyph-name="semicolon" unicode=";" horiz-adv-x="477" 
d="M123 1024h242v-244h-242v244zM123 242h242v-373l-242 -209v582z" />
    <glyph glyph-name="less" unicode="&#x3c;" horiz-adv-x="1069" 
d="M842 1188v-246l-426 -229l426 -228v-245l-666 374v199z" />
    <glyph glyph-name="equal" unicode="=" horiz-adv-x="1069" 
d="M934 772h-797v203h797v-203zM934 422h-797v201h797v-201z" />
    <glyph glyph-name="greater" unicode="&#x3e;" horiz-adv-x="1069" 
d="M221 485l426 228l-426 229v246l666 -375v-199l-666 -374v245z" />
    <glyph glyph-name="question" unicode="?" horiz-adv-x="995" 
d="M596 457v-70h-209v148q0 112 70 176l96 88q81 76 112 129.5t31 118.5q0 81 -52.5 130.5t-135.5 49.5q-85 0 -138.5 -47.5t-54.5 -126.5h-227q0 175 119 276q121 103 301 103q183 0 303 -105q123 -102 123 -287q0 -101 -50.5 -191.5t-158.5 -191.5l-63 -61
q-66 -63 -66 -139zM612 0h-241v242h241v-242z" />
    <glyph glyph-name="at" unicode="@" horiz-adv-x="1839" 
d="M1075 991h217v-512q0 -172 117 -172q145 0 145 277q0 334 -198 489q-182 141 -436 141q-159 0 -286 -55.5t-200 -152.5q-143 -189 -143 -441q0 -311 182 -481q181 -166 457 -166q244 0 452 105l80 -156q-75 -59 -222.5 -98t-319.5 -39q-336 0 -584 211
q-123 104 -192.5 267.5t-69.5 356.5q0 258 121 453q117 189 304 287t421 98q364 0 608 -221q244 -218 244 -598q0 -221 -94 -343t-267 -122q-186 0 -262 137q-64 -137 -266 -137q-163 0 -253.5 104t-90.5 285v106q0 185 91 286t253 101q116 0 192 -55v45zM913 307
q85 0 123.5 48t38.5 149v102q0 109 -38.5 158t-123.5 49q-155 0 -155 -207v-84q0 -215 155 -215z" />
    <glyph glyph-name="A" unicode="A" horiz-adv-x="1218" 
d="M354 293l-96 -293h-254l492 1413h225l491 -1413h-251l-97 293h-510zM797 498l-189 571l-188 -571h377z" />
    <glyph glyph-name="B" unicode="B" horiz-adv-x="1232" 
d="M156 0v1413h454q502 0 502 -366q0 -108 -56 -190t-151 -118q252 -71 252 -333q0 -177 -123 -291q-121 -115 -379 -115h-499zM612 631h-219v-426h248q279 0 279 213q0 110 -74.5 161.5t-233.5 51.5zM594 1208h-201v-372h232q249 0 249 196q0 95 -63 135.5t-217 40.5z" />
    <glyph glyph-name="C" unicode="C" horiz-adv-x="1202" 
d="M1141 975h-230q-53 250 -284 250q-148 0 -219.5 -104t-71.5 -324v-181q0 -428 291 -428q120 0 187 60t97 190h228q-67 -456 -512 -456q-255 0 -392 161t-137 473v181q0 312 137 473.5t392 161.5q216 0 347.5 -116t166.5 -341z" />
    <glyph glyph-name="D" unicode="D" horiz-adv-x="1261" 
d="M633 0h-477v1413h477q530 0 530 -622v-168q0 -623 -530 -623zM393 205h240q152 0 222.5 100.5t70.5 317.5v168q0 216 -70.5 315.5t-222.5 99.5h-240v-1001z" />
    <glyph glyph-name="E" unicode="E" horiz-adv-x="1091" 
d="M156 0v1413h866v-207h-629v-372h568v-205h-568v-424h629v-205h-866z" />
    <glyph glyph-name="F" unicode="F" horiz-adv-x="1075" 
d="M156 0v1413h866v-207h-629v-405h568v-205h-568v-596h-237z" />
    <glyph glyph-name="G" unicode="G" horiz-adv-x="1245" 
d="M633 518v207h514v-109q0 -316 -132.5 -475t-387.5 -159t-392 161t-137 473v170q0 318 137 482t392 164q216 0 349 -118t165 -339h-230q-53 250 -284 250q-148 0 -219.5 -104t-71.5 -324v-181q0 -220 71.5 -324t219.5 -104q134 0 204 81t82 249h-280z" />
    <glyph glyph-name="H" unicode="H" horiz-adv-x="1327" 
d="M156 1413h237v-579h541v579h237v-1413h-237v629h-541v-629h-237v1413z" />
    <glyph glyph-name="I" unicode="I" horiz-adv-x="587" 
d="M176 1413h238v-1413h-238v1413z" />
    <glyph glyph-name="J" unicode="J" horiz-adv-x="1042" 
d="M-6 178l199 113q77 -103 206 -103q132 0 191 86t59 285v854h238v-854q0 -577 -477 -577q-284 0 -416 196z" />
    <glyph glyph-name="K" unicode="K" horiz-adv-x="1314" 
d="M758 844l538 -844h-284l-410 645l-209 -268v-377h-237v1413h237v-682l520 682h291z" />
    <glyph glyph-name="L" unicode="L" horiz-adv-x="1030" 
d="M156 1413h237v-1208h629v-205h-866v1413z" />
    <glyph glyph-name="M" unicode="M" horiz-adv-x="1579" 
d="M156 1413h225l407 -819l408 819h227v-1413h-229v946l-324 -674h-168l-317 668v-940h-229v1413z" />
    <glyph glyph-name="N" unicode="N" horiz-adv-x="1327" 
d="M942 440v973h229v-1413h-210l-576 961v-961h-229v1413h204z" />
    <glyph glyph-name="O" unicode="O" horiz-adv-x="1255" 
d="M1157 797v-181q0 -312 -137.5 -473t-392.5 -161t-392 161t-137 473v181q0 312 137 473.5t392 161.5t392.5 -161.5t137.5 -473.5zM336 797v-181q0 -220 71.5 -324t219.5 -104q149 0 221 104t72 324v181q0 220 -72 324t-221 104q-148 0 -219.5 -104t-71.5 -324z" />
    <glyph glyph-name="P" unicode="P" horiz-adv-x="1206" 
d="M637 516h-244v-516h-237v1413h481q248 0 384 -115.5t136 -330.5t-136.5 -333t-383.5 -118zM393 1206v-485h219q308 0 308 246q0 239 -308 239h-219z" />
    <glyph glyph-name="Q" unicode="Q" horiz-adv-x="1263" 
d="M1157 797v-181q0 -226 -70 -366l191 -170l-133 -152l-180 160q-124 -106 -338 -106q-255 0 -392 161t-137 473v181q0 312 137 473.5t392 161.5t392.5 -161.5t137.5 -473.5zM336 797v-181q0 -220 71.5 -324t219.5 -104q100 0 168 50l-181 161l138 154l147 -133
q21 74 21 196v181q0 220 -72 324t-221 104q-148 0 -219.5 -104t-71.5 -324z" />
    <glyph glyph-name="R" unicode="R" horiz-adv-x="1251" 
d="M901 612l301 -612h-262l-272 573h-275v-573h-237v1413h481q251 0 385.5 -109t134.5 -313q0 -287 -256 -379zM393 1206v-428h228q159 0 229 49t70 164t-70 165t-229 50h-228z" />
    <glyph glyph-name="S" unicode="S" horiz-adv-x="1173" 
d="M1071 1200l-180 -129q-61 83 -129.5 118.5t-175.5 35.5q-110 0 -171 -48.5t-61 -136.5q0 -92 68 -143t235 -88q232 -52 332.5 -148t100.5 -274q0 -179 -125.5 -292t-356.5 -113q-356 0 -528 231l186 129q70 -83 144.5 -118.5t185.5 -35.5q256 0 256 189q0 92 -69.5 145.5
t-239.5 89.5q-426 88 -426 428q0 181 123 286.5t348 105.5q332 0 483 -232z" />
    <glyph glyph-name="T" unicode="T" horiz-adv-x="1079" 
d="M14 1206v207h1051v-207h-406v-1206h-237v1206h-408z" />
    <glyph glyph-name="U" unicode="U" horiz-adv-x="1368" 
d="M975 571v842h237v-840q0 -292 -136.5 -441.5t-391.5 -149.5t-391.5 149t-136.5 440v842h237v-842q0 -198 70.5 -290.5t220.5 -92.5t220.5 92.5t70.5 290.5z" />
    <glyph glyph-name="V" unicode="V" horiz-adv-x="1245" 
d="M514 0l-502 1413h260l349 -1034l352 1034h260l-502 -1413h-217z" />
    <glyph glyph-name="W" unicode="W" horiz-adv-x="1777" 
d="M1196 0l-309 1028l-307 -1028h-230l-334 1413h254l217 -1010l289 1010h219l295 -1016l217 1016h254l-334 -1413h-231z" />
    <glyph glyph-name="X" unicode="X" horiz-adv-x="1175" 
d="M588 514l-295 -514h-260l407 729l-364 684h260l252 -483l254 483h258l-367 -684l410 -729h-258z" />
    <glyph glyph-name="Y" unicode="Y" horiz-adv-x="1169" 
d="M465 590l-440 823h276l283 -565l284 565h275l-441 -823v-590h-237v590z" />
    <glyph glyph-name="Z" unicode="Z" 
d="M61 1206v207h928v-158l-624 -1050h645v-205h-949v158l625 1048h-625z" />
    <glyph glyph-name="bracketleft" unicode="[" horiz-adv-x="686" 
d="M602 -209h-459v1831h459v-188h-242v-1454h242v-189z" />
    <glyph glyph-name="backslash" unicode="\" horiz-adv-x="993" 
d="M760 -238l-688 1901h200l689 -1901h-201z" />
    <glyph glyph-name="bracketright" unicode="]" horiz-adv-x="686" 
d="M84 1436v186h459v-1831h-459v186h242v1459h-242z" />
    <glyph glyph-name="asciicircum" unicode="^" horiz-adv-x="1069" 
d="M72 895l356 518h211l360 -518h-245l-219 319l-211 -319h-252z" />
    <glyph glyph-name="underscore" unicode="_" horiz-adv-x="1077" 
d="M0 -334v174h1077v-174h-1077z" />
    <glyph glyph-name="grave" unicode="`" horiz-adv-x="673" 
d="M139 1485h250l143 -324h-206z" />
    <glyph glyph-name="a" unicode="a" horiz-adv-x="999" 
d="M430 -18q-172 0 -268 83.5t-96 235.5q0 151 97.5 227t282.5 76h222v86q0 96 -42.5 130t-160.5 34q-92 0 -136 -18.5t-79 -73.5l-158 110q56 91 145.5 130.5t241.5 39.5q213 0 308.5 -82t95.5 -272v-688h-215v94q-37 -61 -91 -86.5t-147 -25.5zM668 387v49h-205
q-182 0 -182 -135q0 -133 174 -133q114 0 163.5 49t49.5 170z" />
    <glyph glyph-name="b" unicode="b" horiz-adv-x="1054" 
d="M117 1413h211v-469q79 98 245 98q193 0 300.5 -121.5t107.5 -342.5v-129q0 -218 -107 -342.5t-301 -124.5q-168 0 -245 92v-74h-211v1413zM545 170q107 0 162 74.5t55 210.5v118q0 279 -217 279q-104 0 -159.5 -68.5t-57.5 -197.5v-131q0 -285 217 -285z" />
    <glyph glyph-name="c" unicode="c" horiz-adv-x="911" 
d="M723 270l166 -114q-98 -174 -365 -174q-210 0 -330 124t-120 338v140q0 221 119 339.5t339 118.5q250 0 357 -165l-168 -117q-65 92 -193 92q-237 0 -237 -279v-118q0 -285 237 -285q141 0 195 100z" />
    <glyph glyph-name="d" unicode="d" 
d="M727 952v461h217v-1413h-217v72q-87 -90 -246 -90q-193 0 -300 123t-107 339v140q0 216 108 337t299 121q159 0 246 -90zM510 170q217 0 217 285v131q0 128 -56.5 197t-160.5 69q-219 0 -219 -279v-118q0 -135 56 -210t163 -75z" />
    <glyph glyph-name="e" unicode="e" horiz-adv-x="997" 
d="M725 270l164 -114q-101 -174 -367 -174q-212 0 -330 123.5t-118 338.5v140q0 225 106 341.5t309 116.5q414 0 414 -471v-112h-612v-4q0 -136 56 -210.5t167 -74.5q84 0 131 22.5t80 77.5zM489 852q-181 0 -196 -225h391q-12 225 -195 225z" />
    <glyph glyph-name="f" unicode="f" horiz-adv-x="602" 
d="M35 836v188h131v63q0 180 75 253t259 73h63v-196h-47q-78 0 -105.5 -36t-27.5 -134v-23h180v-188h-180v-836h-217v836h-131z" />
    <glyph glyph-name="g" unicode="g" 
d="M727 952v72h217v-1004q0 -421 -446 -421q-144 0 -232.5 41t-148.5 137l153 110q68 -102 222 -102q123 0 179 55.5t56 179.5v48q-83 -86 -246 -86q-193 0 -300 123t-107 339v140q0 216 108 337t299 121q159 0 246 -90zM510 170q217 0 217 285v118q0 279 -217 279
q-219 0 -219 -279v-118q0 -135 56 -210t163 -75z" />
    <glyph glyph-name="h" unicode="h" horiz-adv-x="1077" 
d="M336 0h-219v1413h219v-477q72 106 250 106q180 0 276 -100.5t96 -300.5v-641h-217v616q0 232 -194 232q-98 0 -154.5 -62.5t-56.5 -167.5v-618z" />
    <glyph glyph-name="i" unicode="i" horiz-adv-x="514" 
d="M377 1190h-240v223h240v-223zM367 0h-220v1024h220v-1024z" />
    <glyph glyph-name="j" unicode="j" horiz-adv-x="499" 
d="M154 1024h217v-1087q0 -178 -84.5 -252t-286.5 -74v192q89 0 121.5 38.5t32.5 133.5v1049zM381 1190h-238v223h238v-223z" />
    <glyph glyph-name="k" unicode="k" horiz-adv-x="1013" 
d="M336 625l342 399h268l-391 -440l453 -584h-265l-337 414l-70 -78v-336h-219v1413h219v-788z" />
    <glyph glyph-name="l" unicode="l" horiz-adv-x="577" 
d="M117 322v1091h219v-1040q0 -99 33.5 -139.5t122.5 -40.5v-193q-203 0 -289 73t-86 249z" />
    <glyph glyph-name="m" unicode="m" horiz-adv-x="1634" 
d="M336 0h-219v1024h215v-92q73 110 239 110q199 0 293 -147q108 147 299 147q169 0 262 -103.5t93 -297.5v-641h-220v616q0 232 -182 232q-85 0 -137 -59.5t-53 -159.5v-629h-217v616q0 232 -181 232q-86 0 -139 -63t-53 -167v-618z" />
    <glyph glyph-name="n" unicode="n" horiz-adv-x="1077" 
d="M336 0h-219v1024h215v-92q82 110 254 110q180 0 276 -100.5t96 -300.5v-641h-217v616q0 232 -194 232q-98 0 -154.5 -62.5t-56.5 -167.5v-618z" />
    <glyph glyph-name="o" unicode="o" horiz-adv-x="1017" 
d="M944 578v-129q0 -222 -111.5 -344.5t-322.5 -122.5q-208 0 -322 123t-114 344v129q0 225 113 344.5t323 119.5t322 -119.5t112 -344.5zM510 170q107 0 162 74.5t55 210.5v118q0 279 -217 279q-219 0 -219 -279v-118q0 -285 219 -285z" />
    <glyph glyph-name="p" unicode="p" 
d="M987 584v-140q0 -215 -106 -338.5t-297 -123.5q-170 0 -248 84v-455h-219v1413h219v-82q81 100 250 100q187 0 294 -121.5t107 -336.5zM553 170q107 0 162 74.5t55 210.5v118q0 279 -217 279q-214 0 -217 -266v-131q0 -285 217 -285z" />
    <glyph glyph-name="q" unicode="q" 
d="M727 952v72h217v-1413h-217v459q-82 -88 -246 -88q-193 0 -300 123t-107 339v140q0 216 108 337t299 121q159 0 246 -90zM291 455q0 -135 56 -210t163 -75t162 67.5t55 192.5v143q0 279 -217 279q-219 0 -219 -279v-118z" />
    <glyph glyph-name="r" unicode="r" horiz-adv-x="825" 
d="M846 891l-174 -123q-56 80 -148 80q-87 0 -137.5 -61t-50.5 -169v-618h-219v1024h215v-92q70 110 229 110q190 0 285 -151z" />
    <glyph glyph-name="s" unicode="s" horiz-adv-x="952" 
d="M846 872l-162 -116q-38 51 -87.5 71.5t-135.5 20.5q-160 0 -160 -105q0 -56 45.5 -85.5t149.5 -41.5q191 -20 282.5 -97.5t91.5 -225.5t-101.5 -229.5t-291.5 -81.5q-285 0 -411 170l165 118q72 -96 244 -96q85 0 131.5 29.5t46.5 83.5q0 59 -43 86q-49 29 -170 43
q-358 46 -358 321q0 142 100.5 223.5t282.5 81.5q273 0 381 -170z" />
    <glyph glyph-name="t" unicode="t" horiz-adv-x="663" 
d="M166 836h-131v188h131v225h217v-225h217v-188h-217v-469q0 -98 27.5 -134t105.5 -36h84v-197h-100q-184 0 -259 73t-75 253v510z" />
    <glyph glyph-name="u" unicode="u" horiz-adv-x="1077" 
d="M741 1024h217v-1024h-215v92q-38 -60 -95 -85t-156 -25q-180 0 -277.5 101.5t-97.5 301.5v639h219v-616q0 -123 48 -178.5t148 -55.5q99 0 154 61.5t55 170.5v618z" />
    <glyph glyph-name="v" unicode="v" horiz-adv-x="1032" 
d="M516 293l264 731h244l-399 -1024h-209l-408 1024h242z" />
    <glyph glyph-name="w" unicode="w" horiz-adv-x="1466" 
d="M983 0l-250 696l-250 -696h-182l-289 1024h228l172 -645l229 645h168l244 -649l172 649h229l-291 -1024h-180z" />
    <glyph glyph-name="x" unicode="x" horiz-adv-x="993" 
d="M623 524l354 -524h-248l-233 342l-234 -342h-246l353 524l-320 500h248l199 -324l200 324h246z" />
    <glyph glyph-name="y" unicode="y" horiz-adv-x="968" 
d="M401 -12l-391 1036h232l260 -721l233 721h226l-361 -1065q-46 -139 -94 -209q-95 -139 -356 -139v201q115 0 165 34t86 142z" />
    <glyph glyph-name="z" unicode="z" horiz-adv-x="919" 
d="M72 0v158l489 678h-487v188h772v-158l-486 -678h494v-188h-782z" />
    <glyph glyph-name="braceleft" unicode="{" horiz-adv-x="661" 
d="M422 1262v-410q0 -61 -21 -93.5t-71 -49.5q92 -30 92 -144v-409q0 -97 31 -129.5t118 -32.5h37v-189h-67q-170 0 -254 66q-82 64 -82 252v383q0 57 -24 81.5t-79 24.5h-39v193h39q55 0 79 24.5t24 81.5v383q0 188 82 252q84 66 254 66h67v-189h-37q-88 0 -118.5 -32
t-30.5 -129z" />
    <glyph glyph-name="bar" unicode="|" horiz-adv-x="561" 
d="M174 1663h205v-1901h-205v1901z" />
    <glyph glyph-name="braceright" unicode="}" horiz-adv-x="649" 
d="M248 852v410q0 97 -31 129t-117 32h-37v189h68q170 0 254 -66q82 -64 82 -252v-383q0 -57 23.5 -81.5t78.5 -24.5h39v-193h-39q-55 0 -78.5 -24.5t-23.5 -81.5v-383q0 -188 -82 -252q-84 -66 -254 -66h-68v189h37q86 0 117 32.5t31 129.5v409q0 114 92 144
q-50 17 -71 49.5t-21 93.5z" />
    <glyph glyph-name="asciitilde" unicode="~" horiz-adv-x="1069" 
d="M707 547q-102 0 -193 45q-103 47 -154 47q-117 0 -190 -94l-150 121q132 163 340 163q90 0 193 -47q91 -45 154 -45q113 0 192 97l148 -121q-135 -166 -340 -166z" />
    <glyph glyph-name="uni00A0" unicode="&#xa0;" horiz-adv-x="512" 
 />
    <glyph glyph-name="exclamdown" unicode="&#xa1;" horiz-adv-x="481" 
d="M119 1024h243v-242h-243v242zM352 -389h-223v1026h223v-1026z" />
    <glyph glyph-name="cent" unicode="&#xa2;" horiz-adv-x="1069" 
d="M797 274l166 -116q-83 -142 -269 -166v-230h-196v232q-165 26 -258 147t-93 308v131q0 190 90 305.5t261 144.5v244h196v-242q180 -27 269 -160l-168 -116q-64 94 -193 94q-237 0 -237 -281v-110q0 -285 237 -285q141 0 195 100z" />
    <glyph glyph-name="sterling" unicode="&#xa3;" horiz-adv-x="1069" 
d="M985 0h-934v205h148v399h-148v207h148v45q0 576 440 576q261 0 387 -197l-197 -113q-77 103 -184 103q-110 0 -159.5 -86.5t-49.5 -282.5v-45h291v-207h-291v-399h549v-205z" />
    <glyph glyph-name="currency" unicode="&#xa4;" horiz-adv-x="1069" 
d="M127 750q0 115 53 204l-149 152l147 147l148 -149q92 57 209 57q114 0 206 -57l152 151l147 -147l-151 -152q57 -92 57 -206q0 -117 -57 -209l151 -150l-147 -147l-152 151q-98 -55 -206 -55q-113 0 -207 55l-150 -149l-147 147l149 150q-53 95 -53 207zM535 535
q90 0 150 62t60 153q0 93 -60 155t-150 62q-65 0 -112.5 -32t-69.5 -80t-22.5 -104t21 -104t69.5 -80t114 -32z" />
    <glyph glyph-name="yen" unicode="&#xa5;" horiz-adv-x="1069" 
d="M121 268v199h282v123h-282v198h172l-246 625h262l213 -616l236 616h264l-270 -625h172v-198h-283v-123h283v-199h-283v-268h-238v268h-282z" />
    <glyph glyph-name="brokenbar" unicode="&#xa6;" horiz-adv-x="528" 
d="M152 1413h237v-498h-237v498zM152 498h237v-498h-237v498z" />
    <glyph glyph-name="section" unicode="&#xa7;" horiz-adv-x="1060" 
d="M154 -82h223q6 -59 36.5 -86t96.5 -27q141 0 141 111q0 56 -44.5 96t-145.5 72q-168 53 -256 129q-111 91 -111 299q0 235 195 330q-142 95 -142 260q0 141 100 227t267 86q351 0 354 -309h-223q-6 61 -35.5 87t-97.5 26q-139 0 -139 -111q0 -58 43.5 -96.5t150.5 -73.5
q175 -60 250 -127q111 -91 111 -299q0 -235 -195 -330q141 -95 141 -260q0 -141 -99.5 -227t-266.5 -86q-351 0 -354 309zM705 512q0 88 -51.5 140.5t-141.5 52.5q-92 0 -143.5 -51t-51.5 -142q0 -96 51 -145.5t144 -49.5q91 0 142 51.5t51 143.5z" />
    <glyph glyph-name="dieresis" unicode="&#xa8;" horiz-adv-x="860" 
d="M330 1198h-224v215h224v-215zM752 1198h-222v215h222v-215z" />
    <glyph glyph-name="copyright" unicode="&#xa9;" horiz-adv-x="1980" 
d="M346 -127q-262 262 -262 639t262 639q268 262 639 262q375 0 637 -262q264 -261 264 -639t-264 -639q-262 -262 -637 -262q-371 0 -639 262zM1675 512q0 144 -54 275t-146 225.5t-220 150.5t-270 56t-270.5 -56t-221 -150.5t-146.5 -225.5t-54 -275q0 -295 201 -502
q131 -135 311 -183t360 -0.5t310 181.5q200 206 200 504zM1196 270l166 -114q-98 -174 -365 -174q-210 0 -330 124t-120 338v140q0 221 119.5 339.5t339.5 118.5q249 0 356 -165l-168 -117q-65 92 -193 92q-237 0 -237 -279v-118q0 -285 237 -285q141 0 195 100z" />
    <glyph glyph-name="ordfeminine" unicode="&#xaa;" horiz-adv-x="647" 
d="M41 954q0 197 244 197h137v43q0 56 -27.5 78t-95.5 22q-56 0 -84 -14t-53 -55l-107 73q67 119 254 119q134 0 197 -49.5t63 -157.5v-444h-147v53q-43 -61 -154 -61q-106 0 -166.5 51.5t-60.5 144.5zM422 1008v26h-121q-111 0 -111 -80q0 -75 103 -75q68 0 98.5 29.5
t30.5 99.5z" />
    <glyph glyph-name="guillemotleft" unicode="&#xab;" 
d="M537 106l-476 474l476 473v-256l-222 -217l222 -220v-254zM965 106l-476 474l476 473v-256l-220 -217l220 -220v-254z" />
    <glyph glyph-name="logicalnot" unicode="&#xac;" 
d="M967 825v-465h-215v267h-689v198h904z" />
    <glyph glyph-name="uni00AD" unicode="&#xad;" horiz-adv-x="653" 
d="M592 496h-531v192h531v-192z" />
    <glyph glyph-name="registered" unicode="&#xae;" horiz-adv-x="1142" 
d="M567 1554q221 0 373 -155q156 -153 156 -373q0 -219 -156 -375q-153 -153 -373 -153q-217 0 -372 155q-154 157 -154 373t154 373q155 155 372 155zM844 1303q-87 87 -192 110t-195.5 -9.5t-162 -104t-104 -162t-9.5 -195.5t110 -192q66 -66 143 -95.5t149 -23.5
t139.5 38t119 83.5t83.5 119t38 139.5t-23.5 149t-95.5 143zM477 956v-190h-123v534h224q96 0 150 -45.5t54 -119.5q0 -115 -106 -158l133 -211h-141l-115 190h-76zM477 1196v-135h76q55 0 78.5 17t23.5 55q0 63 -92 63h-86z" />
    <glyph glyph-name="overscore" unicode="&#xaf;" horiz-adv-x="823" 
d="M694 1198h-567v193h567v-193z" />
    <glyph glyph-name="degree" unicode="&#xb0;" horiz-adv-x="630" 
d="M315 862q-67 0 -122 24.5t-88.5 64t-51.5 90.5t-18 103.5t18 103.5t51.5 90.5t88.5 64t122 24.5q118 0 199 -81q84 -84 84 -201t-84 -201q-82 -82 -199 -82zM197 1145q0 -54 33.5 -88.5t84.5 -34.5q44 0 74 25t37 61t0 72t-37 61t-74 25q-51 0 -84.5 -35t-33.5 -86z" />
    <glyph glyph-name="plusminus" unicode="&#xb1;" horiz-adv-x="1030" 
d="M420 713h-303v188h303v305h190v-305h303v-188h-303v-236h-190v236zM913 233h-796v191h796v-191z" />
    <glyph glyph-name="uni00B2" unicode="&#xb2;" horiz-adv-x="569" 
d="M268 889h254v-123h-452v117l215 194q77 68 77 129q0 35 -21 56.5t-52 21.5q-36 0 -59.5 -22t-24.5 -58h-142q0 95 65 155t163 60q101 0 161 -53.5t60 -148.5q0 -107 -121 -216z" />
    <glyph glyph-name="uni00B3" unicode="&#xb3;" horiz-adv-x="616" 
d="M266 1042h-33v113h33q99 0 99 74q0 30 -20 46.5t-52 16.5q-73 0 -82 -65h-145q0 71 45.5 121t110.5 63t130 3.5t110.5 -56.5t45.5 -117q0 -95 -96 -139q108 -34 108 -148q0 -91 -60.5 -142.5t-164.5 -51.5t-168.5 54t-69.5 142h148q9 -67 88 -67q80 0 80 76q0 77 -107 77
z" />
    <glyph glyph-name="acute" unicode="&#xb4;" horiz-adv-x="786" 
d="M403 1161h-206l143 324h250z" />
    <glyph glyph-name="uni00B5" unicode="&#x3bc;" horiz-adv-x="1044" 
d="M322 25v-306h-218v1305h218v-627q0 -118 49 -170.5t149 -52.5q97 0 152 62.5t55 169.5v618h203v-1024h-201v92q-70 -110 -237 -110q-106 0 -170 43z" />
    <glyph glyph-name="uni00B5" unicode="&#xb5;" horiz-adv-x="1044" 
d="M322 25v-306h-218v1305h218v-627q0 -118 49 -170.5t149 -52.5q97 0 152 62.5t55 169.5v618h203v-1024h-201v92q-70 -110 -237 -110q-106 0 -170 43z" />
    <glyph glyph-name="paragraph" unicode="&#xb6;" horiz-adv-x="1286" 
d="M481 1413h625v-1802h-229v1595h-166v-1595h-230v1024q-164 0 -276.5 112.5t-112.5 276.5q0 161 113 274q115 115 276 115z" />
    <glyph glyph-name="middot" unicode="&#xb7;" horiz-adv-x="442" 
d="M92 842h258v-258h-258v258z" />
    <glyph glyph-name="cedilla" unicode="&#xb8;" horiz-adv-x="710" 
d="M242 -145l39 196l145 -6l-25 -90q115 -44 115 -152q0 -78 -64.5 -124t-170.5 -46q-58 0 -86 7l28 120q6 -2 39 -2q80 0 80 49q0 48 -100 48z" />
    <glyph glyph-name="uni00B9" unicode="&#xb9;" horiz-adv-x="567" 
d="M268 1413h142v-647h-150v485l-117 -80v154z" />
    <glyph glyph-name="ordmasculine" unicode="&#xba;" horiz-adv-x="704" 
d="M625 1137v-93q0 -134 -74 -209t-207 -75q-129 0 -203.5 75.5t-74.5 208.5v93q0 134 74 208t204 74q131 0 206 -74t75 -208zM344 895q61 0 96 40t35 109v91q0 147 -131 147q-129 0 -129 -147v-91q0 -149 129 -149z" />
    <glyph glyph-name="guillemotright" unicode="&#xbb;" 
d="M96 797v256l475 -473l-475 -474v254l221 220zM526 797v256l475 -473l-475 -474v254l219 220z" />
    <glyph glyph-name="onequarter" unicode="&#xbc;" horiz-adv-x="1298" 
d="M23 0l972 1413h217l-970 -1413h-219zM248 1413h141v-647h-149v485l-117 -80v154zM651 221l269 426h174l-252 -411h137v102h147v-102h80v-127h-80v-109h-147v109h-328v112z" />
    <glyph glyph-name="onehalf" unicode="&#xbd;" horiz-adv-x="1290" 
d="M954 123h254v-123h-452v117l215 194q78 69 78 129q0 35 -20.5 56.5t-53.5 21.5q-36 0 -59.5 -22t-24.5 -58h-141q0 96 64.5 155.5t162.5 59.5q101 0 161 -53.5t60 -148.5q0 -106 -121 -215zM23 0l972 1413h217l-970 -1413h-219zM248 1413h141v-647h-149v485l-117 -80v154
z" />
    <glyph glyph-name="threequarters" unicode="&#xbe;" horiz-adv-x="1267" 
d="M244 1042h-33v113h33q98 0 98 74q0 30 -20 46.5t-52 16.5q-73 0 -82 -65h-145q0 71 45.5 121t110.5 63t130 3.5t110.5 -56.5t45.5 -117q0 -95 -96 -139q109 -35 109 -148q0 -91 -61 -142.5t-165 -51.5t-168 54t-69 142h147q9 -67 88 -67q80 0 80 76q0 77 -106 77zM23 0
l972 1413h217l-970 -1413h-219zM651 221l269 426h174l-252 -411h137v102h147v-102h80v-127h-80v-109h-147v109h-328v112z" />
    <glyph glyph-name="questiondown" unicode="&#xbf;" horiz-adv-x="995" 
d="M426 567v70h209v-148q0 -112 -70 -176l-96 -88q-81 -76 -112 -129.5t-31 -118.5q0 -81 52.5 -130.5t135.5 -49.5q85 0 138.5 47.5t54.5 126.5h227q0 -170 -119 -274.5t-301 -104.5t-305 105q-121 103 -121 287q0 101 50.5 191.5t158.5 191.5l63 61q66 63 66 139zM651 782
h-241v242h241v-242z" />
    <glyph glyph-name="Agrave" unicode="&#xc0;" horiz-adv-x="1218" 
d="M281 1788h260l164 -264h-213zM354 293l-96 -293h-254l492 1413h225l491 -1413h-251l-97 293h-510zM797 498l-189 571l-188 -571h377z" />
    <glyph glyph-name="Aacute" unicode="&#xc1;" horiz-adv-x="1218" 
d="M721 1524h-211l164 264h258zM354 293l-96 -293h-254l492 1413h225l491 -1413h-251l-97 293h-510zM797 498l-189 571l-188 -571h377z" />
    <glyph glyph-name="Acircumflex" unicode="&#xc2;" horiz-adv-x="1218" 
d="M223 1511l283 291h205l282 -291h-239l-146 154l-145 -154h-240zM354 293l-96 -293h-254l492 1413h225l491 -1413h-251l-97 293h-510zM797 498l-189 571l-188 -571h377z" />
    <glyph glyph-name="Atilde" unicode="&#xc3;" horiz-adv-x="1218" 
d="M733 1524q-45 0 -127 28q-85 29 -112 29q-63 0 -113 -53l-121 123q99 114 232 114q40 0 122 -28q85 -29 115 -29q61 0 111 53l118 -123q-95 -114 -225 -114zM354 293l-96 -293h-254l492 1413h225l491 -1413h-251l-97 293h-510zM797 498l-189 571l-188 -571h377z" />
    <glyph glyph-name="Adieresis" unicode="&#xc4;" horiz-adv-x="1218" 
d="M508 1565h-221v215h221v-215zM932 1565h-223v215h223v-215zM354 293l-96 -293h-254l492 1413h225l491 -1413h-251l-97 293h-510zM797 498l-189 571l-188 -571h377z" />
    <glyph glyph-name="Aring" unicode="&#xc5;" horiz-adv-x="1218" 
d="M354 293l-96 -293h-254l467 1341q-94 55 -94 168q0 90 65 146.5t166 56.5q105 0 169.5 -55.5t64.5 -147.5q0 -108 -97 -168l467 -1341h-251l-97 293h-510zM514 1509q0 -36 25.5 -56.5t68.5 -20.5q92 0 92 52q0 42 -49 84q-53 45 -94 32q-43 -13 -43 -91zM797 498
l-189 571l-188 -571h377z" />
    <glyph glyph-name="AE" unicode="&#xc6;" horiz-adv-x="1798" 
d="M446 301l-167 -301h-275l801 1413h921v-207h-628v-372h567v-205h-567v-424h628v-205h-866v301h-414zM860 1044l-301 -538h301v538z" />
    <glyph glyph-name="Ccedilla" unicode="&#xc7;" horiz-adv-x="1202" 
d="M541 -145l24 129q-225 19 -346 179.5t-121 452.5v181q0 312 137 473.5t392 161.5q216 0 347.5 -116t166.5 -341h-230q-53 250 -284 250q-148 0 -219.5 -104t-71.5 -324v-181q0 -428 291 -428q120 0 187 60t97 190h228q-62 -412 -430 -452l-9 -31q115 -44 115 -152
q0 -78 -64.5 -124t-170.5 -46q-58 0 -86 7l28 120q6 -2 39 -2q80 0 80 49q0 48 -100 48z" />
    <glyph glyph-name="Egrave" unicode="&#xc8;" horiz-adv-x="1091" 
d="M317 1788h261l163 -264h-213zM156 0v1413h866v-207h-629v-372h568v-205h-568v-424h629v-205h-866z" />
    <glyph glyph-name="Eacute" unicode="&#xc9;" horiz-adv-x="1091" 
d="M664 1524h-211l163 264h258zM156 0v1413h866v-207h-629v-372h568v-205h-568v-424h629v-205h-866z" />
    <glyph glyph-name="Ecircumflex" unicode="&#xca;" horiz-adv-x="1091" 
d="M203 1511l282 291h205l283 -291h-240l-145 154l-146 -154h-239zM156 0v1413h866v-207h-629v-372h568v-205h-568v-424h629v-205h-866z" />
    <glyph glyph-name="Edieresis" unicode="&#xcb;" horiz-adv-x="1091" 
d="M487 1565h-221v215h221v-215zM911 1565h-223v215h223v-215zM156 0v1413h866v-207h-629v-372h568v-205h-568v-424h629v-205h-866z" />
    <glyph glyph-name="Igrave" unicode="&#xcc;" horiz-adv-x="587" 
d="M-8 1788h260l164 -264h-213zM176 1413h238v-1413h-238v1413z" />
    <glyph glyph-name="Iacute" unicode="&#xcd;" horiz-adv-x="587" 
d="M387 1524h-211l164 264h258zM176 1413h238v-1413h-238v1413z" />
    <glyph glyph-name="Icircumflex" unicode="&#xce;" horiz-adv-x="587" 
d="M-90 1511l283 291h204l283 -291h-240l-145 154l-145 -154h-240zM176 1413h238v-1413h-238v1413z" />
    <glyph glyph-name="Idieresis" unicode="&#xcf;" horiz-adv-x="587" 
d="M193 1565h-222v215h222v-215zM616 1565h-223v215h223v-215zM176 1413h238v-1413h-238v1413z" />
    <glyph glyph-name="Eth" unicode="&#xd0;" horiz-adv-x="1269" 
d="M641 0h-477v629h-184v205h184v579h477q530 0 530 -622v-168q0 -623 -530 -623zM401 205h240q152 0 222.5 100.5t70.5 317.5v168q0 216 -70.5 315.5t-222.5 99.5h-240v-372h318v-205h-318v-424z" />
    <glyph glyph-name="Ntilde" unicode="&#xd1;" horiz-adv-x="1327" 
d="M786 1524q-45 0 -127 28q-85 29 -112 29q-63 0 -113 -53l-121 123q99 114 232 114q41 0 123 -28q85 -29 114 -29q61 0 111 53l119 -123q-94 -114 -226 -114zM942 440v973h229v-1413h-210l-576 961v-961h-229v1413h204z" />
    <glyph glyph-name="Ograve" unicode="&#xd2;" horiz-adv-x="1255" 
d="M1157 797v-181q0 -312 -137.5 -473t-392.5 -161t-392 161t-137 473v181q0 312 137 473.5t392 161.5t392.5 -161.5t137.5 -473.5zM336 797v-181q0 -220 71.5 -324t219.5 -104q149 0 221 104t72 324v181q0 220 -72 324t-221 104q-148 0 -219.5 -104t-71.5 -324zM350 1788
h260l164 -264h-213z" />
    <glyph glyph-name="Oacute" unicode="&#xd3;" horiz-adv-x="1255" 
d="M1157 797v-181q0 -312 -137.5 -473t-392.5 -161t-392 161t-137 473v181q0 312 137 473.5t392 161.5t392.5 -161.5t137.5 -473.5zM336 797v-181q0 -220 71.5 -324t219.5 -104q149 0 221 104t72 324v181q0 220 -72 324t-221 104q-148 0 -219.5 -104t-71.5 -324zM688 1524
h-211l164 264h258z" />
    <glyph glyph-name="Ocircumflex" unicode="&#xd4;" horiz-adv-x="1255" 
d="M1157 797v-181q0 -312 -137.5 -473t-392.5 -161t-392 161t-137 473v181q0 312 137 473.5t392 161.5t392.5 -161.5t137.5 -473.5zM336 797v-181q0 -220 71.5 -324t219.5 -104q149 0 221 104t72 324v181q0 220 -72 324t-221 104q-148 0 -219.5 -104t-71.5 -324zM242 1511
l282 291h205l283 -291h-240l-145 154l-146 -154h-239z" />
    <glyph glyph-name="Otilde" unicode="&#xd5;" horiz-adv-x="1255" 
d="M1157 797v-181q0 -312 -137.5 -473t-392.5 -161t-392 161t-137 473v181q0 312 137 473.5t392 161.5t392.5 -161.5t137.5 -473.5zM336 797v-181q0 -220 71.5 -324t219.5 -104q149 0 221 104t72 324v181q0 220 -72 324t-221 104q-148 0 -219.5 -104t-71.5 -324zM750 1524
q-45 0 -127 28q-85 29 -113 29q-63 0 -113 -53l-121 123q99 114 232 114q41 0 123 -28q85 -29 114 -29q61 0 111 53l119 -123q-95 -114 -225 -114z" />
    <glyph glyph-name="Odieresis" unicode="&#xd6;" horiz-adv-x="1255" 
d="M1157 797v-181q0 -312 -137.5 -473t-392.5 -161t-392 161t-137 473v181q0 312 137 473.5t392 161.5t392.5 -161.5t137.5 -473.5zM336 797v-181q0 -220 71.5 -324t219.5 -104q149 0 221 104t72 324v181q0 220 -72 324t-221 104q-148 0 -219.5 -104t-71.5 -324zM526 1565
h-221v215h221v-215zM950 1565h-223v215h223v-215z" />
    <glyph glyph-name="multiply" unicode="&#xd7;" horiz-adv-x="1095" 
d="M553 590l-248 -248l-135 135l248 248l-248 250l133 133l250 -250l250 250l133 -133l-250 -250l250 -248l-135 -135z" />
    <glyph glyph-name="Oslash" unicode="&#xd8;" horiz-adv-x="1255" 
d="M477 -2l-84 -236h-200l112 314q-207 151 -207 540v181q0 312 137 473.5t392 161.5q93 0 161 -21l93 252h200l-120 -336q196 -156 196 -530v-181q0 -312 -137.5 -473t-392.5 -161q-62 0 -150 16zM336 797v-181q0 -202 57 -301l324 897q-44 13 -90 13q-148 0 -219.5 -104
t-71.5 -324zM920 616v181q0 179 -50 282l-321 -882q30 -9 78 -9q149 0 221 104t72 324z" />
    <glyph glyph-name="Ugrave" unicode="&#xd9;" horiz-adv-x="1368" 
d="M975 571v842h237v-840q0 -292 -136.5 -441.5t-391.5 -149.5t-391.5 149t-136.5 440v842h237v-842q0 -198 70.5 -290.5t220.5 -92.5t220.5 92.5t70.5 290.5zM399 1788h260l164 -264h-213z" />
    <glyph glyph-name="Uacute" unicode="&#xda;" horiz-adv-x="1368" 
d="M975 571v842h237v-840q0 -292 -136.5 -441.5t-391.5 -149.5t-391.5 149t-136.5 440v842h237v-842q0 -198 70.5 -290.5t220.5 -92.5t220.5 92.5t70.5 290.5zM754 1524h-211l164 264h258z" />
    <glyph glyph-name="Ucircumflex" unicode="&#xdb;" horiz-adv-x="1368" 
d="M975 571v842h237v-840q0 -292 -136.5 -441.5t-391.5 -149.5t-391.5 149t-136.5 440v842h237v-842q0 -198 70.5 -290.5t220.5 -92.5t220.5 92.5t70.5 290.5zM299 1511l283 291h204l283 -291h-240l-145 154l-145 -154h-240z" />
    <glyph glyph-name="Udieresis" unicode="&#xdc;" horiz-adv-x="1368" 
d="M975 571v842h237v-840q0 -292 -136.5 -441.5t-391.5 -149.5t-391.5 149t-136.5 440v842h237v-842q0 -198 70.5 -290.5t220.5 -92.5t220.5 92.5t70.5 290.5zM584 1565h-222v215h222v-215zM1008 1565h-224v215h224v-215z" />
    <glyph glyph-name="Yacute" unicode="&#xdd;" horiz-adv-x="1169" 
d="M672 1524h-211l164 264h258zM465 590l-440 823h276l283 -565l284 565h275l-441 -823v-590h-237v590z" />
    <glyph glyph-name="Thorn" unicode="&#xde;" horiz-adv-x="1206" 
d="M637 285h-244v-285h-237v1413h237v-231h244q248 0 384 -116t136 -329q0 -215 -137 -333.5t-383 -118.5zM393 977v-485h219q308 0 308 245q0 240 -308 240h-219z" />
    <glyph glyph-name="germandbls" unicode="&#xdf;" 
d="M946 1155q0 -141 -125 -199q69 -25 97 -78.5t28 -156.5v-434q0 -177 -67 -232q-64 -55 -234 -55h-108v186h73q63 0 91 29t28 96v406q0 76 -26 106.5t-93 30.5h-73v178h73q119 0 119 107q0 114 -178 114q-112 0 -163.5 -59.5t-51.5 -187.5v-1006h-219v1022q0 410 434 410
q190 0 292.5 -75.5t102.5 -201.5z" />
    <glyph glyph-name="agrave" unicode="&#xe0;" horiz-adv-x="999" 
d="M430 -18q-172 0 -268 83.5t-96 235.5q0 151 97.5 227t282.5 76h222v86q0 96 -42.5 130t-160.5 34q-92 0 -136 -18.5t-79 -73.5l-158 110q56 91 145.5 130.5t241.5 39.5q213 0 308.5 -82t95.5 -272v-688h-215v94q-37 -61 -91 -86.5t-147 -25.5zM668 387v49h-205
q-182 0 -182 -135q0 -133 174 -133q114 0 163.5 49t49.5 170zM250 1485h250l143 -324h-207z" />
    <glyph glyph-name="aacute" unicode="&#xe1;" horiz-adv-x="999" 
d="M430 -18q-172 0 -268 83.5t-96 235.5q0 151 97.5 227t282.5 76h222v86q0 96 -42.5 130t-160.5 34q-92 0 -136 -18.5t-79 -73.5l-158 110q56 91 145.5 130.5t241.5 39.5q213 0 308.5 -82t95.5 -272v-688h-215v94q-37 -61 -91 -86.5t-147 -25.5zM668 387v49h-205
q-182 0 -182 -135q0 -133 174 -133q114 0 163.5 49t49.5 170zM573 1161h-206l143 324h250z" />
    <glyph glyph-name="acircumflex" unicode="&#xe2;" horiz-adv-x="999" 
d="M430 -18q-172 0 -268 83.5t-96 235.5q0 151 97.5 227t282.5 76h222v86q0 96 -42.5 130t-160.5 34q-92 0 -136 -18.5t-79 -73.5l-158 110q56 91 145.5 130.5t241.5 39.5q213 0 308.5 -82t95.5 -272v-688h-215v94q-37 -61 -91 -86.5t-147 -25.5zM668 387v49h-205
q-182 0 -182 -135q0 -133 174 -133q114 0 163.5 49t49.5 170zM176 1143l221 291h205l221 -291h-209l-114 157l-115 -157h-209z" />
    <glyph glyph-name="atilde" unicode="&#xe3;" horiz-adv-x="999" 
d="M430 -18q-172 0 -268 83.5t-96 235.5q0 151 97.5 227t282.5 76h222v86q0 96 -42.5 130t-160.5 34q-92 0 -136 -18.5t-79 -73.5l-158 110q56 91 145.5 130.5t241.5 39.5q213 0 308.5 -82t95.5 -272v-688h-215v94q-37 -61 -91 -86.5t-147 -25.5zM668 387v49h-205
q-182 0 -182 -135q0 -133 174 -133q114 0 163.5 49t49.5 170zM629 1171q-42 0 -127 29t-111 29q-63 0 -115 -55l-118 120q95 115 229 115q44 0 123 -31q82 -28 117 -28q56 0 108 55l119 -119q-89 -115 -225 -115z" />
    <glyph glyph-name="adieresis" unicode="&#xe4;" horiz-adv-x="999" 
d="M430 -18q-172 0 -268 83.5t-96 235.5q0 151 97.5 227t282.5 76h222v86q0 96 -42.5 130t-160.5 34q-92 0 -136 -18.5t-79 -73.5l-158 110q56 91 145.5 130.5t241.5 39.5q213 0 308.5 -82t95.5 -272v-688h-215v94q-37 -61 -91 -86.5t-147 -25.5zM668 387v49h-205
q-182 0 -182 -135q0 -133 174 -133q114 0 163.5 49t49.5 170zM385 1198h-223v215h223v-215zM807 1198h-221v215h221v-215z" />
    <glyph glyph-name="aring" unicode="&#xe5;" horiz-adv-x="999" 
d="M430 -18q-172 0 -268 83.5t-96 235.5q0 151 97.5 227t282.5 76h222v86q0 96 -42.5 130t-160.5 34q-92 0 -136 -18.5t-79 -73.5l-158 110q56 91 145.5 130.5t241.5 39.5q213 0 308.5 -82t95.5 -272v-688h-215v94q-37 -61 -91 -86.5t-147 -25.5zM668 387v49h-205
q-182 0 -182 -135q0 -133 174 -133q114 0 163.5 49t49.5 170zM330 1163q-68 65 -68 160t68 160q71 65 172 65t172 -65q67 -64 67 -160t-67 -160q-63 -63 -172 -63t-172 63zM434 1395q-21 -21 -26 -52t4.5 -57.5t33.5 -45.5t56 -19t55.5 19t33.5 45.5t4.5 57.5t-26.5 52
q-28 28 -67 28q-40 0 -68 -28z" />
    <glyph glyph-name="ae" unicode="&#xe6;" horiz-adv-x="1587" 
d="M1315 270l164 -114q-101 -174 -367 -174q-240 0 -340 161q-106 -161 -342 -161q-172 0 -268 83t-96 232q0 307 385 307h217v82q0 95 -42.5 131.5t-156.5 36.5q-93 0 -140 -19.5t-79 -72.5l-158 106q104 174 391 174q229 0 314 -116q94 116 282 116q404 0 416 -450v-137
h-612v-4q0 -135 58 -208t167 -73q80 0 127.5 22.5t79.5 77.5zM668 387v49h-205q-182 0 -182 -135q0 -133 174 -133q113 0 163 49t50 170zM883 623h391q-9 229 -193 229q-183 0 -198 -229z" />
    <glyph glyph-name="ccedilla" unicode="&#xe7;" horiz-adv-x="911" 
d="M426 -145l25 131q-178 20 -277.5 141.5t-99.5 316.5v140q0 221 119 339.5t339 118.5q250 0 357 -165l-168 -117q-65 92 -193 92q-237 0 -237 -279v-118q0 -285 237 -285q141 0 195 100l166 -114q-87 -152 -295 -170l-8 -31q114 -43 114 -152q0 -78 -64.5 -124t-170.5 -46
q-58 0 -86 7l29 120q6 -2 38 -2q80 0 80 49q0 48 -100 48z" />
    <glyph glyph-name="egrave" unicode="&#xe8;" horiz-adv-x="997" 
d="M725 270l164 -114q-101 -174 -367 -174q-212 0 -330 123.5t-118 338.5v140q0 225 106 341.5t309 116.5q414 0 414 -471v-112h-612v-4q0 -136 56 -210.5t167 -74.5q84 0 131 22.5t80 77.5zM489 852q-181 0 -196 -225h391q-12 225 -195 225zM250 1485h250l143 -324h-207z
" />
    <glyph glyph-name="eacute" unicode="&#xe9;" horiz-adv-x="997" 
d="M725 270l164 -114q-101 -174 -367 -174q-212 0 -330 123.5t-118 338.5v140q0 225 106 341.5t309 116.5q414 0 414 -471v-112h-612v-4q0 -136 56 -210.5t167 -74.5q84 0 131 22.5t80 77.5zM489 852q-181 0 -196 -225h391q-12 225 -195 225zM565 1161h-207l144 324h250z
" />
    <glyph glyph-name="ecircumflex" unicode="&#xea;" horiz-adv-x="997" 
d="M725 270l164 -114q-101 -174 -367 -174q-212 0 -330 123.5t-118 338.5v140q0 225 106 341.5t309 116.5q414 0 414 -471v-112h-612v-4q0 -136 56 -210.5t167 -74.5q84 0 131 22.5t80 77.5zM489 852q-181 0 -196 -225h391q-12 225 -195 225zM166 1143l221 291h205l221 -291
h-209l-115 157l-114 -157h-209z" />
    <glyph glyph-name="edieresis" unicode="&#xeb;" horiz-adv-x="997" 
d="M725 270l164 -114q-101 -174 -367 -174q-212 0 -330 123.5t-118 338.5v140q0 225 106 341.5t309 116.5q414 0 414 -471v-112h-612v-4q0 -136 56 -210.5t167 -74.5q84 0 131 22.5t80 77.5zM489 852q-181 0 -196 -225h391q-12 225 -195 225zM389 1198h-223v215h223v-215z
M811 1198h-221v215h221v-215z" />
    <glyph glyph-name="igrave" unicode="&#xec;" horiz-adv-x="514" 
d="M-37 1485h250l143 -324h-206zM367 0h-220v1024h220v-1024z" />
    <glyph glyph-name="iacute" unicode="&#xed;" horiz-adv-x="514" 
d="M346 1161h-207l144 324h249zM367 0h-220v1024h220v-1024z" />
    <glyph glyph-name="icircumflex" unicode="&#xee;" horiz-adv-x="514" 
d="M-76 1143l221 291h205l221 -291h-209l-114 157l-115 -157h-209zM367 0h-220v1024h220v-1024z" />
    <glyph glyph-name="idieresis" unicode="&#xef;" horiz-adv-x="514" 
d="M147 1198h-223v215h223v-215zM569 1198h-221v215h221v-215zM367 0h-220v1024h220v-1024z" />
    <glyph glyph-name="eth" unicode="&#xf0;" horiz-adv-x="1026" 
d="M485 1079l-141 76l53 94l-112 45l84 156l112 -47l64 113l137 -78l-55 -101q180 -88 250 -198q67 -107 67 -340v-350q0 -222 -111.5 -344.5t-322.5 -122.5q-208 0 -322 123t-114 344v129q0 222 112.5 343t317.5 121q154 0 244 -84q-12 82 -56 131.5t-147 96.5zM510 170
q107 0 162 74.5t55 210.5v118q0 279 -217 279q-219 0 -219 -279v-118q0 -285 219 -285z" />
    <glyph glyph-name="ntilde" unicode="&#xf1;" horiz-adv-x="1077" 
d="M336 0h-219v1024h215v-92q82 110 254 110q180 0 276 -100.5t96 -300.5v-641h-217v616q0 232 -194 232q-98 0 -154.5 -62.5t-56.5 -167.5v-618zM662 1171q-42 0 -127 29t-111 29q-63 0 -115 -55l-119 120q95 115 230 115q44 0 123 -31q82 -28 116 -28q57 0 109 55
l119 -119q-89 -115 -225 -115z" />
    <glyph glyph-name="ograve" unicode="&#xf2;" horiz-adv-x="1017" 
d="M944 578v-129q0 -222 -111.5 -344.5t-322.5 -122.5q-208 0 -322 123t-114 344v129q0 225 113 344.5t323 119.5t322 -119.5t112 -344.5zM510 170q107 0 162 74.5t55 210.5v118q0 279 -217 279q-219 0 -219 -279v-118q0 -285 219 -285zM266 1485h250l143 -324h-206z" />
    <glyph glyph-name="oacute" unicode="&#xf3;" horiz-adv-x="1017" 
d="M944 578v-129q0 -222 -111.5 -344.5t-322.5 -122.5q-208 0 -322 123t-114 344v129q0 225 113 344.5t323 119.5t322 -119.5t112 -344.5zM510 170q107 0 162 74.5t55 210.5v118q0 279 -217 279q-219 0 -219 -279v-118q0 -285 219 -285zM588 1161h-207l143 324h250z" />
    <glyph glyph-name="ocircumflex" unicode="&#xf4;" horiz-adv-x="1017" 
d="M944 578v-129q0 -222 -111.5 -344.5t-322.5 -122.5q-208 0 -322 123t-114 344v129q0 225 113 344.5t323 119.5t322 -119.5t112 -344.5zM510 170q107 0 162 74.5t55 210.5v118q0 279 -217 279q-219 0 -219 -279v-118q0 -285 219 -285zM186 1143l222 291h204l222 -291h-209
l-115 157l-115 -157h-209z" />
    <glyph glyph-name="otilde" unicode="&#xf5;" horiz-adv-x="1017" 
d="M944 578v-129q0 -222 -111.5 -344.5t-322.5 -122.5q-208 0 -322 123t-114 344v129q0 225 113 344.5t323 119.5t322 -119.5t112 -344.5zM510 170q107 0 162 74.5t55 210.5v118q0 279 -217 279q-219 0 -219 -279v-118q0 -285 219 -285zM633 1171q-42 0 -127 29t-111 29
q-62 0 -114 -55l-119 120q95 115 229 115q44 0 123 -31q82 -28 117 -28q56 0 108 55l119 -119q-89 -115 -225 -115z" />
    <glyph glyph-name="odieresis" unicode="&#xf6;" horiz-adv-x="1017" 
d="M944 578v-129q0 -222 -111.5 -344.5t-322.5 -122.5q-208 0 -322 123t-114 344v129q0 225 113 344.5t323 119.5t322 -119.5t112 -344.5zM510 170q107 0 162 74.5t55 210.5v118q0 279 -217 279q-219 0 -219 -279v-118q0 -285 219 -285zM410 1198h-224v215h224v-215z
M831 1198h-221v215h221v-215z" />
    <glyph glyph-name="divide" unicode="&#xf7;" horiz-adv-x="1030" 
d="M623 950h-220v219h220v-219zM913 629h-796v192h796v-192zM623 283h-220v217h220v-217z" />
    <glyph glyph-name="oslash" unicode="&#xf8;" horiz-adv-x="1017" 
d="M358 0l-71 -162h-158l102 228q-157 121 -157 383v129q0 225 113 344.5t323 119.5q79 0 149 -20l76 170h158l-105 -231q156 -120 156 -383v-129q0 -222 -111.5 -344.5t-322.5 -122.5q-84 0 -152 18zM291 573v-118q0 -106 35 -181l254 568q-42 10 -70 10q-219 0 -219 -279z
M510 170q107 0 162 74.5t55 210.5v118q0 97 -35 172l-254 -567q21 -8 72 -8z" />
    <glyph glyph-name="ugrave" unicode="&#xf9;" horiz-adv-x="1077" 
d="M741 1024h217v-1024h-215v92q-38 -60 -95 -85t-156 -25q-180 0 -277.5 101.5t-97.5 301.5v639h219v-616q0 -123 48 -178.5t148 -55.5q99 0 154 61.5t55 170.5v618zM309 1485h250l143 -324h-206z" />
    <glyph glyph-name="uacute" unicode="&#xfa;" horiz-adv-x="1077" 
d="M741 1024h217v-1024h-215v92q-38 -60 -95 -85t-156 -25q-180 0 -277.5 101.5t-97.5 301.5v639h219v-616q0 -123 48 -178.5t148 -55.5q99 0 154 61.5t55 170.5v618zM629 1161h-207l143 324h250z" />
    <glyph glyph-name="ucircumflex" unicode="&#xfb;" horiz-adv-x="1077" 
d="M741 1024h217v-1024h-215v92q-38 -60 -95 -85t-156 -25q-180 0 -277.5 101.5t-97.5 301.5v639h219v-616q0 -123 48 -178.5t148 -55.5q99 0 154 61.5t55 170.5v618zM215 1143l221 291h205l221 -291h-209l-114 157l-115 -157h-209z" />
    <glyph glyph-name="udieresis" unicode="&#xfc;" horiz-adv-x="1077" 
d="M741 1024h217v-1024h-215v92q-38 -60 -95 -85t-156 -25q-180 0 -277.5 101.5t-97.5 301.5v639h219v-616q0 -123 48 -178.5t148 -55.5q99 0 154 61.5t55 170.5v618zM438 1198h-223v215h223v-215zM860 1198h-221v215h221v-215z" />
    <glyph glyph-name="yacute" unicode="&#xfd;" horiz-adv-x="968" 
d="M401 -12l-391 1036h232l260 -721l233 721h226l-361 -1065q-46 -139 -94 -209q-95 -139 -356 -139v201q115 0 165 34t86 142zM596 1161h-207l143 324h250z" />
    <glyph glyph-name="thorn" unicode="&#xfe;" 
d="M987 584v-140q0 -215 -106 -338.5t-297 -123.5q-170 0 -248 84v-455h-219v1802h219v-471q81 100 250 100q187 0 294 -121.5t107 -336.5zM553 170q107 0 162 74.5t55 210.5v118q0 279 -217 279q-214 0 -217 -266v-131q0 -285 217 -285z" />
    <glyph glyph-name="ydieresis" unicode="&#xff;" horiz-adv-x="968" 
d="M401 -12l-391 1036h232l260 -721l233 721h226l-361 -1065q-46 -139 -94 -209q-95 -139 -356 -139v201q115 0 165 34t86 142zM397 1198h-223v215h223v-215zM819 1198h-221v215h221v-215z" />
    <glyph glyph-name="Amacron" unicode="&#x100;" horiz-adv-x="1218" 
d="M934 1546h-649v193h649v-193zM354 293l-96 -293h-254l492 1413h225l491 -1413h-251l-97 293h-510zM797 498l-189 571l-188 -571h377z" />
    <glyph glyph-name="amacron" unicode="&#x101;" horiz-adv-x="999" 
d="M430 -18q-172 0 -268 83.5t-96 235.5q0 151 97.5 227t282.5 76h222v86q0 96 -42.5 130t-160.5 34q-92 0 -136 -18.5t-79 -73.5l-158 110q56 91 145.5 130.5t241.5 39.5q213 0 308.5 -82t95.5 -272v-688h-215v94q-37 -61 -91 -86.5t-147 -25.5zM668 387v49h-205
q-182 0 -182 -135q0 -133 174 -133q114 0 163.5 49t49.5 170zM778 1198h-567v193h567v-193z" />
    <glyph glyph-name="Abreve" unicode="&#x102;" horiz-adv-x="1218" 
d="M797 1800h198q0 -147 -103.5 -229t-281.5 -82q-179 0 -283 82.5t-104 228.5h199q21 -129 188 -129q169 0 187 129zM354 293l-96 -293h-254l492 1413h225l491 -1413h-251l-97 293h-510zM797 498l-189 571l-188 -571h377z" />
    <glyph glyph-name="abreve" unicode="&#x103;" horiz-adv-x="999" 
d="M430 -18q-172 0 -268 83.5t-96 235.5q0 151 97.5 227t282.5 76h222v86q0 96 -42.5 130t-160.5 34q-92 0 -136 -18.5t-79 -73.5l-158 110q56 91 145.5 130.5t241.5 39.5q213 0 308.5 -82t95.5 -272v-688h-215v94q-37 -61 -91 -86.5t-147 -25.5zM668 387v49h-205
q-182 0 -182 -135q0 -133 174 -133q114 0 163.5 49t49.5 170zM645 1413h164q-4 -124 -81 -191t-212 -67q-137 0 -214 67t-81 191h166q12 -115 129 -115t129 115z" />
    <glyph glyph-name="Aogonek" unicode="&#x104;" horiz-adv-x="1218" 
d="M354 293l-96 -293h-254l492 1413h225l491 -1413q-67 -54 -84 -76q-24 -27 -24 -55q0 -51 72 -51q3 0 8 0.5t14.5 1.5t18.5 2l26 -121q-16 -8 -94 -8q-97 0 -158 41t-61 114q0 87 71 152h-40l-97 293h-510zM797 498l-189 571l-188 -571h377z" />
    <glyph glyph-name="aogonek" unicode="&#x105;" horiz-adv-x="1009" 
d="M430 -18q-172 0 -268 83.5t-96 235.5q0 151 97.5 227t282.5 76h222v86q0 96 -42.5 130t-160.5 34q-92 0 -136 -18.5t-79 -73.5l-158 110q56 91 145.5 130.5t241.5 39.5q213 0 308.5 -82t95.5 -272v-688q-62 -47 -86 -74q-25 -28 -25 -57q0 -51 72 -51q3 0 8 0.5t14.5 1.5
t18.5 2l28 -121q-16 -8 -96 -8q-97 0 -158 41t-61 114q0 82 70 152v94q-37 -61 -91 -86.5t-147 -25.5zM668 387v49h-205q-182 0 -182 -135q0 -133 174 -133q114 0 163.5 49t49.5 170z" />
    <glyph glyph-name="Cacute" unicode="&#x106;" horiz-adv-x="1202" 
d="M1141 975h-230q-53 250 -284 250q-148 0 -219.5 -104t-71.5 -324v-181q0 -428 291 -428q120 0 187 60t97 190h228q-67 -456 -512 -456q-255 0 -392 161t-137 473v181q0 312 137 473.5t392 161.5q216 0 347.5 -116t166.5 -341zM649 1524h-211l164 264h258z" />
    <glyph glyph-name="cacute" unicode="&#x107;" horiz-adv-x="911" 
d="M723 270l166 -114q-98 -174 -365 -174q-210 0 -330 124t-120 338v140q0 221 119 339.5t339 118.5q250 0 357 -165l-168 -117q-65 92 -193 92q-237 0 -237 -279v-118q0 -285 237 -285q141 0 195 100zM600 1161h-207l144 324h249z" />
    <glyph glyph-name="Ccircumflex" unicode="&#x108;" horiz-adv-x="1202" 
d="M1141 975h-230q-53 250 -284 250q-148 0 -219.5 -104t-71.5 -324v-181q0 -428 291 -428q120 0 187 60t97 190h228q-67 -456 -512 -456q-255 0 -392 161t-137 473v181q0 312 137 473.5t392 161.5q216 0 347.5 -116t166.5 -341zM240 1511l282 291h205l283 -291h-240
l-145 154l-146 -154h-239z" />
    <glyph glyph-name="ccircumflex" unicode="&#x109;" horiz-adv-x="911" 
d="M723 270l166 -114q-98 -174 -365 -174q-210 0 -330 124t-120 338v140q0 221 119 339.5t339 118.5q250 0 357 -165l-168 -117q-65 92 -193 92q-237 0 -237 -279v-118q0 -285 237 -285q141 0 195 100zM201 1143l221 291h205l221 -291h-209l-115 157l-114 -157h-209z" />
    <glyph glyph-name="Cdotaccent" unicode="&#x10a;" horiz-adv-x="1202" 
d="M1141 975h-230q-53 250 -284 250q-148 0 -219.5 -104t-71.5 -324v-181q0 -428 291 -428q120 0 187 60t97 190h228q-67 -456 -512 -456q-255 0 -392 161t-137 473v181q0 312 137 473.5t392 161.5q216 0 347.5 -116t166.5 -341zM743 1573h-241v207h241v-207z" />
    <glyph glyph-name="cdotaccent" unicode="&#x10b;" horiz-adv-x="911" 
d="M723 270l166 -114q-98 -174 -365 -174q-210 0 -330 124t-120 338v140q0 221 119 339.5t339 118.5q250 0 357 -165l-168 -117q-65 92 -193 92q-237 0 -237 -279v-118q0 -285 237 -285q141 0 195 100zM616 1190h-237v223h237v-223z" />
    <glyph glyph-name="Ccaron" unicode="&#x10c;" horiz-adv-x="1202" 
d="M1141 975h-230q-53 250 -284 250q-148 0 -219.5 -104t-71.5 -324v-181q0 -428 291 -428q120 0 187 60t97 190h228q-67 -456 -512 -456q-255 0 -392 161t-137 473v181q0 312 137 473.5t392 161.5q216 0 347.5 -116t166.5 -341zM1006 1802l-283 -291h-205l-282 291h239
l146 -153l145 153h240z" />
    <glyph glyph-name="ccaron" unicode="&#x10d;" horiz-adv-x="911" 
d="M723 270l166 -114q-98 -174 -365 -174q-210 0 -330 124t-120 338v140q0 221 119 339.5t339 118.5q250 0 357 -165l-168 -117q-65 92 -193 92q-237 0 -237 -279v-118q0 -285 237 -285q141 0 195 100zM842 1434l-221 -291h-205l-221 291h208l115 -158l115 158h209z" />
    <glyph glyph-name="Dcaron" unicode="&#x10e;" horiz-adv-x="1261" 
d="M633 0h-477v1413h477q530 0 530 -622v-168q0 -623 -530 -623zM393 205h240q152 0 222.5 100.5t70.5 317.5v168q0 216 -70.5 315.5t-222.5 99.5h-240v-1001zM963 1802l-283 -291h-205l-282 291h239l146 -153l145 153h240z" />
    <glyph glyph-name="dcaron" unicode="&#x10f;" horiz-adv-x="1136" 
d="M727 952v461h217v-1413h-217v72q-87 -90 -246 -90q-193 0 -300 123t-107 339v140q0 216 108 337t299 121q159 0 246 -90zM510 170q217 0 217 285v131q0 128 -56.5 197t-160.5 69q-219 0 -219 -279v-118q0 -135 56 -210t163 -75zM1022 1411h244v-233l-244 -209v442z" />
    <glyph glyph-name="Dcroat" unicode="&#x110;" horiz-adv-x="1290" 
d="M662 0h-478v629h-204v205h204v579h478q530 0 530 -622v-168q0 -623 -530 -623zM422 205h240q152 0 222 100.5t70 317.5v168q0 217 -70 316t-222 99h-240v-372h313v-205h-313v-424z" />
    <glyph glyph-name="dslash" unicode="&#x111;" horiz-adv-x="1107" 
d="M438 1305h289v108h217v-108h172v-185h-172v-1120h-217v72q-87 -90 -246 -90q-193 0 -300 123t-107 339v140q0 216 108 337t299 121q159 0 246 -90v168h-289v185zM510 170q217 0 217 285v131q0 128 -56.5 197t-160.5 69q-219 0 -219 -279v-118q0 -135 56 -210t163 -75z
" />
    <glyph glyph-name="Emacron" unicode="&#x112;" horiz-adv-x="1091" 
d="M913 1546h-649v193h649v-193zM156 0v1413h866v-207h-629v-372h568v-205h-568v-424h629v-205h-866z" />
    <glyph glyph-name="emacron" unicode="&#x113;" horiz-adv-x="997" 
d="M725 270l164 -114q-101 -174 -367 -174q-212 0 -330 123.5t-118 338.5v140q0 225 106 341.5t309 116.5q414 0 414 -471v-112h-612v-4q0 -136 56 -210.5t167 -74.5q84 0 131 22.5t80 77.5zM489 852q-181 0 -196 -225h391q-12 225 -195 225zM774 1198h-567v193h567v-193z
" />
    <glyph glyph-name="Edotaccent" unicode="&#x116;" horiz-adv-x="1091" 
d="M709 1573h-242v207h242v-207zM156 0v1413h866v-207h-629v-372h568v-205h-568v-424h629v-205h-866z" />
    <glyph glyph-name="edotaccent" unicode="&#x117;" horiz-adv-x="997" 
d="M725 270l164 -114q-101 -174 -367 -174q-212 0 -330 123.5t-118 338.5v140q0 225 106 341.5t309 116.5q414 0 414 -471v-112h-612v-4q0 -136 56 -210.5t167 -74.5q84 0 131 22.5t80 77.5zM489 852q-181 0 -196 -225h391q-12 225 -195 225zM606 1190h-237v223h237v-223z
" />
    <glyph glyph-name="Eogonek" unicode="&#x118;" horiz-adv-x="1091" 
d="M156 0v1413h866v-207h-629v-372h568v-205h-568v-424h629v-205h-231q-62 -47 -86 -74q-25 -28 -25 -57q0 -51 72 -51q3 0 8 0.5t14.5 1.5t18.5 2l28 -121q-16 -8 -96 -8q-97 0 -158 41t-61 114q0 84 74 152h-424z" />
    <glyph glyph-name="eogonek" unicode="&#x119;" horiz-adv-x="997" 
d="M725 270l164 -114q-78 -137 -242 -164q-98 -73 -98 -123q0 -51 72 -51q3 0 8 0.5t14.5 1.5t18.5 2l28 -121q-16 -8 -96 -8q-97 0 -158 41t-61 114q0 75 59 140q-171 25 -265.5 145.5t-94.5 310.5v140q0 225 106 341.5t309 116.5q414 0 414 -471v-112h-612v-4
q0 -136 56 -210.5t167 -74.5q84 0 131 22.5t80 77.5zM489 852q-181 0 -196 -225h391q-12 225 -195 225z" />
    <glyph glyph-name="Ecaron" unicode="&#x11a;" horiz-adv-x="1091" 
d="M973 1802l-283 -291h-205l-282 291h239l146 -153l145 153h240zM156 0v1413h866v-207h-629v-372h568v-205h-568v-424h629v-205h-866z" />
    <glyph glyph-name="ecaron" unicode="&#x11b;" horiz-adv-x="997" 
d="M725 270l164 -114q-101 -174 -367 -174q-212 0 -330 123.5t-118 338.5v140q0 225 106 341.5t309 116.5q414 0 414 -471v-112h-612v-4q0 -136 56 -210.5t167 -74.5q84 0 131 22.5t80 77.5zM489 852q-181 0 -196 -225h391q-12 225 -195 225zM821 1434l-221 -291h-205
l-221 291h209l115 -158l114 158h209z" />
    <glyph glyph-name="Gcircumflex" unicode="&#x11c;" horiz-adv-x="1245" 
d="M633 518v207h514v-109q0 -316 -132.5 -475t-387.5 -159t-392 161t-137 473v170q0 318 137 482t392 164q216 0 349 -118t165 -339h-230q-53 250 -284 250q-148 0 -219.5 -104t-71.5 -324v-181q0 -220 71.5 -324t219.5 -104q134 0 204 81t82 249h-280zM236 1511l282 291
h205l283 -291h-240l-145 154l-146 -154h-239z" />
    <glyph glyph-name="gcircumflex" unicode="&#x11d;" 
d="M727 952v72h217v-1004q0 -421 -446 -421q-144 0 -232.5 41t-148.5 137l153 110q68 -102 222 -102q123 0 179 55.5t56 179.5v48q-83 -86 -246 -86q-193 0 -300 123t-107 339v140q0 216 108 337t299 121q159 0 246 -90zM510 170q217 0 217 285v118q0 279 -217 279
q-219 0 -219 -279v-118q0 -135 56 -210t163 -75zM248 1143l221 291h205l221 -291h-209l-115 157l-114 -157h-209z" />
    <glyph glyph-name="Gbreve" unicode="&#x11e;" horiz-adv-x="1245" 
d="M633 518v207h514v-109q0 -316 -132.5 -475t-387.5 -159t-392 161t-137 473v170q0 318 137 482t392 164q216 0 349 -118t165 -339h-230q-53 250 -284 250q-148 0 -219.5 -104t-71.5 -324v-181q0 -220 71.5 -324t219.5 -104q134 0 204 81t82 249h-280zM807 1800h199
q0 -147 -103.5 -229t-281.5 -82q-179 0 -283.5 82.5t-104.5 228.5h199q21 -129 189 -129t186 129z" />
    <glyph glyph-name="gbreve" unicode="&#x11f;" 
d="M727 952v72h217v-1004q0 -421 -446 -421q-144 0 -232.5 41t-148.5 137l153 110q68 -102 222 -102q123 0 179 55.5t56 179.5v48q-83 -86 -246 -86q-193 0 -300 123t-107 339v140q0 216 108 337t299 121q159 0 246 -90zM510 170q217 0 217 285v118q0 279 -217 279
q-219 0 -219 -279v-118q0 -135 56 -210t163 -75zM707 1413h163q-4 -124 -80.5 -191t-211.5 -67q-137 0 -214 67t-81 191h166q12 -115 129 -115t129 115z" />
    <glyph glyph-name="Gdotaccent" unicode="&#x120;" horiz-adv-x="1245" 
d="M633 518v207h514v-109q0 -316 -132.5 -475t-387.5 -159t-392 161t-137 473v170q0 318 137 482t392 164q216 0 349 -118t165 -339h-230q-53 250 -284 250q-148 0 -219.5 -104t-71.5 -324v-181q0 -220 71.5 -324t219.5 -104q134 0 204 81t82 249h-280zM748 1573h-242v207
h242v-207z" />
    <glyph glyph-name="gdotaccent" unicode="&#x121;" 
d="M727 952v72h217v-1004q0 -421 -446 -421q-144 0 -232.5 41t-148.5 137l153 110q68 -102 222 -102q123 0 179 55.5t56 179.5v48q-83 -86 -246 -86q-193 0 -300 123t-107 339v140q0 216 108 337t299 121q159 0 246 -90zM510 170q217 0 217 285v118q0 279 -217 279
q-219 0 -219 -279v-118q0 -135 56 -210t163 -75zM651 1190h-237v223h237v-223z" />
    <glyph glyph-name="uni0122" unicode="&#x122;" horiz-adv-x="1245" 
d="M633 518v207h514v-109q0 -316 -132.5 -475t-387.5 -159t-392 161t-137 473v170q0 318 137 482t392 164q216 0 349 -118t165 -339h-230q-53 250 -284 250q-148 0 -219.5 -104t-71.5 -324v-181q0 -220 71.5 -324t219.5 -104q134 0 204 81t82 249h-280zM502 -117h243v-233
l-243 -209v442z" />
    <glyph glyph-name="uni0123" unicode="&#x123;" 
d="M727 952v72h217v-1004q0 -421 -446 -421q-144 0 -232.5 41t-148.5 137l153 110q68 -102 222 -102q123 0 179 55.5t56 179.5v48q-83 -86 -246 -86q-193 0 -300 123t-107 339v140q0 216 108 337t299 121q159 0 246 -90zM510 170q217 0 217 285v118q0 279 -217 279
q-219 0 -219 -279v-118q0 -135 56 -210t163 -75zM651 1157h-243v234l243 208v-442z" />
    <glyph glyph-name="Hcircumflex" unicode="&#x124;" horiz-adv-x="1327" 
d="M279 1511l282 291h205l283 -291h-240l-145 154l-146 -154h-239zM156 1413h237v-579h541v579h237v-1413h-237v629h-541v-629h-237v1413z" />
    <glyph glyph-name="hcircumflex" unicode="&#x125;" horiz-adv-x="1077" 
d="M336 0h-219v1413h219v-477q72 106 250 106q180 0 276 -100.5t96 -300.5v-641h-217v616q0 232 -194 232q-98 0 -154.5 -62.5t-56.5 -167.5v-618zM-96 1483l221 291h205l221 -291h-209l-115 157l-114 -157h-209z" />
    <glyph glyph-name="Hbar" unicode="&#x126;" horiz-adv-x="1353" 
d="M170 1413h238v-242h540v242h238v-242h188v-213h-188v-958h-238v629h-540v-629h-238v958h-190v213h190v242zM408 958v-124h540v124h-540z" />
    <glyph glyph-name="hbar" unicode="&#x127;" horiz-adv-x="1089" 
d="M129 1120h-176v185h176v108h219v-108h299v-185h-299v-184q72 106 250 106q180 0 276.5 -100.5t96.5 -300.5v-641h-217v616q0 232 -195 232q-98 0 -154.5 -62.5t-56.5 -167.5v-618h-219v1120z" />
    <glyph glyph-name="Imacron" unicode="&#x12a;" horiz-adv-x="587" 
d="M621 1546h-650v193h650v-193zM176 1413h238v-1413h-238v1413z" />
    <glyph glyph-name="imacron" unicode="&#x12b;" horiz-adv-x="514" 
d="M532 1198h-567v193h567v-193zM367 0h-220v1024h220v-1024z" />
    <glyph glyph-name="Iogonek" unicode="&#x12e;" horiz-adv-x="587" 
d="M176 1413h238v-1413q-62 -47 -86 -74q-25 -28 -25 -57q0 -51 72 -51q3 0 8 0.5t14.5 1.5t18.5 2l28 -121q-16 -8 -96 -8q-97 0 -158 41t-61 114q0 84 74 152h-27v1413z" />
    <glyph glyph-name="iogonek" unicode="&#x12f;" horiz-adv-x="514" 
d="M147 0v1024h220v-1024q-62 -47 -86 -74q-25 -28 -25 -57q0 -51 72 -51q3 0 8 0.5t14.5 1.5t18.5 2l28 -121q-16 -8 -96 -8q-92 0 -154 39q-65 38 -65 116q0 81 65 152zM377 1190h-240v223h240v-223z" />
    <glyph glyph-name="Idot" unicode="&#x130;" horiz-adv-x="587" 
d="M416 1573h-242v207h242v-207zM176 1413h238v-1413h-238v1413z" />
    <glyph glyph-name="dotlessi" unicode="&#x131;" horiz-adv-x="514" 
d="M367 0h-220v1024h220v-1024z" />
    <glyph glyph-name="Jcircumflex" unicode="&#x134;" horiz-adv-x="1042" 
d="M-6 178l199 113q77 -103 206 -103q132 0 191 86t59 285v854h238v-854q0 -577 -477 -577q-284 0 -416 196zM397 1511l283 291h205l282 -291h-239l-146 154l-145 -154h-240z" />
    <glyph glyph-name="jcircumflex" unicode="&#x135;" horiz-adv-x="499" 
d="M154 1024h217v-1087q0 -178 -84.5 -252t-286.5 -74v192q89 0 121.5 38.5t32.5 133.5v1049zM-68 1143l222 291h204l222 -291h-209l-115 157l-115 -157h-209z" />
    <glyph glyph-name="uni0136" unicode="&#x136;" horiz-adv-x="1314" 
d="M758 844l538 -844h-284l-410 645l-209 -268v-377h-237v1413h237v-682l520 682h291zM537 -117h243v-233l-243 -209v442z" />
    <glyph glyph-name="uni0137" unicode="&#x137;" horiz-adv-x="1013" 
d="M336 625l342 399h268l-391 -440l453 -584h-265l-337 414l-70 -78v-336h-219v1413h219v-788zM403 -117h244v-233l-244 -209v442z" />
    <glyph glyph-name="Lacute" unicode="&#x139;" horiz-adv-x="1030" 
d="M391 1524h-211l164 264h258zM156 1413h237v-1208h629v-205h-866v1413z" />
    <glyph glyph-name="lacute" unicode="&#x13a;" horiz-adv-x="577" 
d="M117 322v1091h219v-1040q0 -99 33.5 -139.5t122.5 -40.5v-193q-203 0 -289 73t-86 249zM334 1503h-207l143 324h250z" />
    <glyph glyph-name="uni013B" unicode="&#x13b;" horiz-adv-x="1030" 
d="M156 1413h237v-1208h629v-205h-866v1413zM467 -117h244v-233l-244 -209v442z" />
    <glyph glyph-name="uni013C" unicode="&#x13c;" horiz-adv-x="577" 
d="M117 322v1091h219v-1040q0 -99 33.5 -139.5t122.5 -40.5v-193q-203 0 -289 73t-86 249zM193 -117h243v-233l-243 -209v442z" />
    <glyph glyph-name="Lcaron" unicode="&#x13d;" horiz-adv-x="1030" 
d="M625 1477h231v-357l-231 -196v553zM156 1413h237v-1208h629v-205h-866v1413z" />
    <glyph glyph-name="lcaron" unicode="&#x13e;" horiz-adv-x="581" 
d="M117 322v1091h219v-1040q0 -99 33.5 -139.5t122.5 -40.5v-193q-203 0 -289 73t-86 249zM455 1411h243v-233l-243 -209v442z" />
    <glyph glyph-name="Ldot" unicode="&#x13f;" horiz-adv-x="1030" 
d="M156 1413h237v-1208h629v-205h-866v1413zM918 698h-238v224h238v-224z" />
    <glyph glyph-name="ldot" unicode="&#x140;" horiz-adv-x="704" 
d="M117 322v1091h219v-1040q0 -99 33.5 -139.5t122.5 -40.5v-193q-203 0 -289 73t-86 249zM707 721h-242v207h242v-207z" />
    <glyph glyph-name="Lslash" unicode="&#x141;" horiz-adv-x="1085" 
d="M211 1413h238v-442l229 184l121 -154l-350 -280v-516h628v-205h-866v530l-129 -102l-121 154l250 198v633z" />
    <glyph glyph-name="lslash" unicode="&#x142;" horiz-adv-x="593" 
d="M178 563l-117 -80l-81 123l198 137v670h219v-520l142 98l82 -121l-224 -155v-342q0 -99 33.5 -139.5t122.5 -40.5v-193q-203 0 -289 73t-86 249v241z" />
    <glyph glyph-name="Nacute" unicode="&#x143;" horiz-adv-x="1327" 
d="M754 1524h-211l164 264h258zM942 440v973h229v-1413h-210l-576 961v-961h-229v1413h204z" />
    <glyph glyph-name="nacute" unicode="&#x144;" horiz-adv-x="1077" 
d="M336 0h-219v1024h215v-92q82 110 254 110q180 0 276 -100.5t96 -300.5v-641h-217v616q0 232 -194 232q-98 0 -154.5 -62.5t-56.5 -167.5v-618zM616 1161h-206l143 324h250z" />
    <glyph glyph-name="uni0145" unicode="&#x145;" horiz-adv-x="1327" 
d="M942 440v973h229v-1413h-210l-576 961v-961h-229v1413h204zM547 -117h244v-233l-244 -209v442z" />
    <glyph glyph-name="uni0146" unicode="&#x146;" horiz-adv-x="1077" 
d="M336 0h-219v1024h215v-92q82 110 254 110q180 0 276 -100.5t96 -300.5v-641h-217v616q0 232 -194 232q-98 0 -154.5 -62.5t-56.5 -167.5v-618zM420 -117h244v-233l-244 -209v442z" />
    <glyph glyph-name="Ncaron" unicode="&#x147;" horiz-adv-x="1327" 
d="M1049 1802l-283 -291h-205l-282 291h239l146 -153l145 153h240zM942 440v973h229v-1413h-210l-576 961v-961h-229v1413h204z" />
    <glyph glyph-name="ncaron" unicode="&#x148;" horiz-adv-x="1077" 
d="M336 0h-219v1024h215v-92q82 110 254 110q180 0 276 -100.5t96 -300.5v-641h-217v616q0 232 -194 232q-98 0 -154.5 -62.5t-56.5 -167.5v-618zM864 1434l-221 -291h-205l-221 291h209l115 -158l114 158h209z" />
    <glyph glyph-name="Omacron" unicode="&#x14c;" horiz-adv-x="1255" 
d="M1157 797v-181q0 -312 -137.5 -473t-392.5 -161t-392 161t-137 473v181q0 312 137 473.5t392 161.5t392.5 -161.5t137.5 -473.5zM336 797v-181q0 -220 71.5 -324t219.5 -104q149 0 221 104t72 324v181q0 220 -72 324t-221 104q-148 0 -219.5 -104t-71.5 -324zM952 1546
h-649v193h649v-193z" />
    <glyph glyph-name="omacron" unicode="&#x14d;" horiz-adv-x="1017" 
d="M944 578v-129q0 -222 -111.5 -344.5t-322.5 -122.5q-208 0 -322 123t-114 344v129q0 225 113 344.5t323 119.5t322 -119.5t112 -344.5zM510 170q107 0 162 74.5t55 210.5v118q0 279 -217 279q-219 0 -219 -279v-118q0 -285 219 -285zM795 1198h-568v193h568v-193z" />
    <glyph glyph-name="Ohungarumlaut" unicode="&#x150;" horiz-adv-x="1255" 
d="M1157 797v-181q0 -312 -137.5 -473t-392.5 -161t-392 161t-137 473v181q0 312 137 473.5t392 161.5t392.5 -161.5t137.5 -473.5zM336 797v-181q0 -220 71.5 -324t219.5 -104q149 0 221 104t72 324v181q0 220 -72 324t-221 104q-148 0 -219.5 -104t-71.5 -324zM506 1524
h-213l164 264h260zM891 1524h-211l184 264h258z" />
    <glyph glyph-name="ohungarumlaut" unicode="&#x151;" horiz-adv-x="1017" 
d="M944 578v-129q0 -222 -111.5 -344.5t-322.5 -122.5q-208 0 -322 123t-114 344v129q0 225 113 344.5t323 119.5t322 -119.5t112 -344.5zM510 170q107 0 162 74.5t55 210.5v118q0 279 -217 279q-219 0 -219 -279v-118q0 -285 219 -285zM428 1161h-207l144 324h249z
M766 1161h-207l184 324h250z" />
    <glyph glyph-name="OE" unicode="&#x152;" horiz-adv-x="1855" 
d="M920 1413h866v-207h-629v-372h567v-205h-567v-424h629v-205h-866v80q-101 -98 -293 -98q-255 0 -392 161t-137 473v181q0 312 137 473.5t392 161.5q191 0 293 -99v80zM336 797v-181q0 -220 71.5 -324t219.5 -104q293 0 293 406v203q0 220 -72 324t-221 104
q-148 0 -219.5 -104t-71.5 -324z" />
    <glyph glyph-name="oe" unicode="&#x153;" horiz-adv-x="1650" 
d="M1378 270l164 -114q-56 -92 -142.5 -133t-228.5 -41q-222 0 -331 157q-100 -157 -330 -157q-206 0 -321 122.5t-115 339.5v140q0 220 113.5 339t322.5 119q225 0 326 -149q98 149 311 149q200 0 304.5 -120.5t104.5 -348.5v-118h-612v-11q0 -129 58.5 -201.5t164.5 -72.5
q148 0 211 100zM510 170q105 0 161 72.5t56 201.5v140q0 129 -56.5 198.5t-160.5 69.5q-106 0 -162.5 -69.5t-56.5 -198.5v-140q0 -274 219 -274zM1141 852q-183 0 -195 -229h391q-9 229 -196 229z" />
    <glyph glyph-name="Racute" unicode="&#x154;" horiz-adv-x="1251" 
d="M901 612l301 -612h-262l-272 573h-275v-573h-237v1413h481q251 0 385.5 -109t134.5 -313q0 -287 -256 -379zM393 1206v-428h228q159 0 229 49t70 164t-70 165t-229 50h-228zM651 1524h-211l164 264h258z" />
    <glyph glyph-name="racute" unicode="&#x155;" horiz-adv-x="825" 
d="M846 891l-174 -123q-56 80 -148 80q-87 0 -137.5 -61t-50.5 -169v-618h-219v1024h215v-92q70 110 229 110q190 0 285 -151zM498 1161h-207l143 324h250z" />
    <glyph glyph-name="uni0156" unicode="&#x156;" horiz-adv-x="1251" 
d="M901 612l301 -612h-262l-272 573h-275v-573h-237v1413h481q251 0 385.5 -109t134.5 -313q0 -287 -256 -379zM393 1206v-428h228q159 0 229 49t70 164t-70 165t-229 50h-228zM512 -117h244v-233l-244 -209v442z" />
    <glyph glyph-name="uni0157" unicode="&#x157;" horiz-adv-x="825" 
d="M846 891l-174 -123q-56 80 -148 80q-87 0 -137.5 -61t-50.5 -169v-618h-219v1024h215v-92q70 110 229 110q190 0 285 -151zM106 -117h244v-233l-244 -209v442z" />
    <glyph glyph-name="Rcaron" unicode="&#x158;" horiz-adv-x="1251" 
d="M901 612l301 -612h-262l-272 573h-275v-573h-237v1413h481q251 0 385.5 -109t134.5 -313q0 -287 -256 -379zM393 1206v-428h228q159 0 229 49t70 164t-70 165t-229 50h-228zM1001 1802l-282 -291h-205l-283 291h240l145 -153l146 153h239z" />
    <glyph glyph-name="rcaron" unicode="&#x159;" horiz-adv-x="825" 
d="M846 891l-174 -123q-56 80 -148 80q-87 0 -137.5 -61t-50.5 -169v-618h-219v1024h215v-92q70 110 229 110q190 0 285 -151zM797 1434l-222 -291h-204l-221 291h208l115 -158l115 158h209z" />
    <glyph glyph-name="Sacute" unicode="&#x15a;" horiz-adv-x="1173" 
d="M1071 1200l-180 -129q-61 83 -129.5 118.5t-175.5 35.5q-110 0 -171 -48.5t-61 -136.5q0 -92 68 -143t235 -88q232 -52 332.5 -148t100.5 -274q0 -179 -125.5 -292t-356.5 -113q-356 0 -528 231l186 129q70 -83 144.5 -118.5t185.5 -35.5q256 0 256 189q0 92 -69.5 145.5
t-239.5 89.5q-426 88 -426 428q0 181 123 286.5t348 105.5q332 0 483 -232zM659 1524h-210l163 264h258z" />
    <glyph glyph-name="sacute" unicode="&#x15b;" horiz-adv-x="952" 
d="M846 872l-162 -116q-38 51 -87.5 71.5t-135.5 20.5q-160 0 -160 -105q0 -56 45.5 -85.5t149.5 -41.5q191 -20 282.5 -97.5t91.5 -225.5t-101.5 -229.5t-291.5 -81.5q-285 0 -411 170l165 118q72 -96 244 -96q85 0 131.5 29.5t46.5 83.5q0 59 -43 86q-49 29 -170 43
q-358 46 -358 321q0 142 100.5 223.5t282.5 81.5q273 0 381 -170zM539 1161h-207l143 324h250z" />
    <glyph glyph-name="Scircumflex" unicode="&#x15c;" horiz-adv-x="1173" 
d="M1071 1200l-180 -129q-61 83 -129.5 118.5t-175.5 35.5q-110 0 -171 -48.5t-61 -136.5q0 -92 68 -143t235 -88q232 -52 332.5 -148t100.5 -274q0 -179 -125.5 -292t-356.5 -113q-356 0 -528 231l186 129q70 -83 144.5 -118.5t185.5 -35.5q256 0 256 189q0 92 -69.5 145.5
t-239.5 89.5q-426 88 -426 428q0 181 123 286.5t348 105.5q332 0 483 -232zM211 1511l283 291h204l283 -291h-240l-145 154l-145 -154h-240z" />
    <glyph glyph-name="scircumflex" unicode="&#x15d;" horiz-adv-x="952" 
d="M846 872l-162 -116q-38 51 -87.5 71.5t-135.5 20.5q-160 0 -160 -105q0 -56 45.5 -85.5t149.5 -41.5q191 -20 282.5 -97.5t91.5 -225.5t-101.5 -229.5t-291.5 -81.5q-285 0 -411 170l165 118q72 -96 244 -96q85 0 131.5 29.5t46.5 83.5q0 59 -43 86q-49 29 -170 43
q-358 46 -358 321q0 142 100.5 223.5t282.5 81.5q273 0 381 -170zM147 1143l222 291h204l222 -291h-209l-115 157l-115 -157h-209z" />
    <glyph glyph-name="Scedilla" unicode="&#x15e;" horiz-adv-x="1173" 
d="M500 -145l24 131q-294 21 -444 227l186 129q70 -83 144.5 -118.5t185.5 -35.5q256 0 256 189q0 92 -69.5 145.5t-239.5 89.5q-426 88 -426 428q0 181 123 286.5t348 105.5q332 0 483 -232l-180 -129q-61 83 -129.5 118.5t-175.5 35.5q-110 0 -171 -48.5t-61 -136.5
q0 -92 68 -143t235 -88q232 -52 332.5 -148t100.5 -274q0 -170 -111.5 -280t-310.5 -123l-9 -29q115 -44 115 -152q0 -78 -64.5 -124t-170.5 -46q-58 0 -86 7l28 120q6 -2 39 -2q80 0 80 49q0 48 -100 48z" />
    <glyph glyph-name="scedilla" unicode="&#x15f;" horiz-adv-x="952" 
d="M387 -145l25 129q-232 15 -346 168l165 118q72 -96 244 -96q85 0 131.5 29.5t46.5 83.5q0 59 -43 86q-49 29 -170 43q-358 46 -358 321q0 142 100.5 223.5t282.5 81.5q273 0 381 -170l-162 -116q-38 51 -87.5 71.5t-135.5 20.5q-160 0 -160 -105q0 -56 45.5 -85.5
t149.5 -41.5q191 -20 282.5 -97.5t91.5 -225.5q0 -131 -81 -210.5t-234 -96.5l-8 -31q115 -44 115 -152q0 -78 -65 -124t-171 -46q-58 0 -86 7l29 120q6 -2 39 -2q79 0 79 49q0 48 -100 48z" />
    <glyph glyph-name="Scaron" unicode="&#x160;" horiz-adv-x="1173" 
d="M1071 1200l-180 -129q-61 83 -129.5 118.5t-175.5 35.5q-110 0 -171 -48.5t-61 -136.5q0 -92 68 -143t235 -88q232 -52 332.5 -148t100.5 -274q0 -179 -125.5 -292t-356.5 -113q-356 0 -528 231l186 129q70 -83 144.5 -118.5t185.5 -35.5q256 0 256 189q0 92 -69.5 145.5
t-239.5 89.5q-426 88 -426 428q0 181 123 286.5t348 105.5q332 0 483 -232zM967 1802l-283 -291h-205l-282 291h239l146 -153l145 153h240z" />
    <glyph glyph-name="scaron" unicode="&#x161;" horiz-adv-x="952" 
d="M846 872l-162 -116q-38 51 -87.5 71.5t-135.5 20.5q-160 0 -160 -105q0 -56 45.5 -85.5t149.5 -41.5q191 -20 282.5 -97.5t91.5 -225.5t-101.5 -229.5t-291.5 -81.5q-285 0 -411 170l165 118q72 -96 244 -96q85 0 131.5 29.5t46.5 83.5q0 59 -43 86q-49 29 -170 43
q-358 46 -358 321q0 142 100.5 223.5t282.5 81.5q273 0 381 -170zM795 1434l-222 -291h-204l-222 291h209l115 -158l115 158h209z" />
    <glyph glyph-name="uni0162" unicode="&#x162;" horiz-adv-x="1079" 
d="M438 -145l29 145h-45v1206h-408v207h1051v-207h-406v-1206h-49l-12 -45q115 -44 115 -152q0 -78 -65 -124t-171 -46q-58 0 -86 7l29 120q6 -2 39 -2q80 0 80 49q0 48 -101 48z" />
    <glyph glyph-name="uni0163" unicode="&#x163;" horiz-adv-x="663" 
d="M322 -145l30 159q-99 25 -142.5 98t-43.5 214v510h-131v188h131v225h217v-225h217v-188h-217v-469q0 -98 27.5 -134t105.5 -36h84v-197h-106l-13 -45q115 -44 115 -152q0 -78 -65 -124t-171 -46q-58 0 -86 7l29 120q6 -2 39 -2q80 0 80 49q0 48 -100 48z" />
    <glyph glyph-name="Tcaron" unicode="&#x164;" horiz-adv-x="1079" 
d="M924 1802l-283 -291h-205l-282 291h239l146 -153l145 153h240zM14 1206v207h1051v-207h-406v-1206h-237v1206h-408z" />
    <glyph glyph-name="tcaron" unicode="&#x165;" horiz-adv-x="755" 
d="M166 836h-131v188h131v225h217v-225h217v-188h-217v-469q0 -98 27.5 -134t105.5 -36h84v-197h-100q-184 0 -259 73t-75 253v510zM635 1411h244v-233l-244 -209v442z" />
    <glyph glyph-name="Umacron" unicode="&#x16a;" horiz-adv-x="1368" 
d="M975 571v842h237v-840q0 -292 -136.5 -441.5t-391.5 -149.5t-391.5 149t-136.5 440v842h237v-842q0 -198 70.5 -290.5t220.5 -92.5t220.5 92.5t70.5 290.5zM1008 1546h-650v193h650v-193z" />
    <glyph glyph-name="umacron" unicode="&#x16b;" horiz-adv-x="1077" 
d="M741 1024h217v-1024h-215v92q-38 -60 -95 -85t-156 -25q-180 0 -277.5 101.5t-97.5 301.5v639h219v-616q0 -123 48 -178.5t148 -55.5q99 0 154 61.5t55 170.5v618zM823 1198h-567v193h567v-193z" />
    <glyph glyph-name="Ubreve" unicode="&#x16c;" horiz-adv-x="1368" 
d="M975 571v842h237v-840q0 -292 -136.5 -441.5t-391.5 -149.5t-391.5 149t-136.5 440v842h237v-842q0 -198 70.5 -290.5t220.5 -92.5t220.5 92.5t70.5 290.5zM872 1800h199q0 -147 -103.5 -229t-281.5 -82q-179 0 -283 82.5t-104 228.5h199q21 -129 188 -129q168 0 186 129
z" />
    <glyph glyph-name="ubreve" unicode="&#x16d;" horiz-adv-x="1077" 
d="M741 1024h217v-1024h-215v92q-38 -60 -95 -85t-156 -25q-180 0 -277.5 101.5t-97.5 301.5v639h219v-616q0 -123 48 -178.5t148 -55.5q99 0 154 61.5t55 170.5v618zM668 1413h163q-4 -124 -80.5 -191t-211.5 -67q-137 0 -214 67t-81 191h166q12 -115 129 -115t129 115z
" />
    <glyph glyph-name="Uring" unicode="&#x16e;" horiz-adv-x="1368" 
d="M975 571v842h237v-840q0 -292 -136.5 -441.5t-391.5 -149.5t-391.5 149t-136.5 440v842h237v-842q0 -198 70.5 -290.5t220.5 -92.5t220.5 92.5t70.5 290.5zM684 1438q-73 0 -127 30t-78.5 74.5t-24.5 97t24 97t78 74.5t128 30q105 0 169.5 -55.5t64.5 -147.5
q0 -90 -64.5 -145t-169.5 -55zM590 1638q0 -36 25.5 -56.5t68.5 -20.5q92 0 92 52q0 42 -49 84q-53 45 -94 32q-43 -13 -43 -91z" />
    <glyph glyph-name="uring" unicode="&#x16f;" horiz-adv-x="1077" 
d="M741 1024h217v-1024h-215v92q-38 -60 -95 -85t-156 -25q-180 0 -277.5 101.5t-97.5 301.5v639h219v-616q0 -123 48 -178.5t148 -55.5q99 0 154 61.5t55 170.5v618zM369 1163q-68 65 -68 160t68 160q71 65 172 65t172 -65q67 -64 67 -160t-67 -160q-63 -63 -172 -63
t-172 63zM473 1395q-21 -21 -26 -52t4.5 -57.5t33.5 -45.5t56 -19t55.5 19t33.5 45.5t4.5 57.5t-26.5 52q-28 28 -67 28q-40 0 -68 -28z" />
    <glyph glyph-name="Uhungarumlaut" unicode="&#x170;" horiz-adv-x="1368" 
d="M975 571v842h237v-840q0 -292 -136.5 -441.5t-391.5 -149.5t-391.5 149t-136.5 440v842h237v-842q0 -198 70.5 -290.5t220.5 -92.5t220.5 92.5t70.5 290.5zM578 1524h-213l163 264h260zM963 1524h-211l184 264h258z" />
    <glyph glyph-name="uhungarumlaut" unicode="&#x171;" horiz-adv-x="1077" 
d="M741 1024h217v-1024h-215v92q-38 -60 -95 -85t-156 -25q-180 0 -277.5 101.5t-97.5 301.5v639h219v-616q0 -123 48 -178.5t148 -55.5q99 0 154 61.5t55 170.5v618zM465 1161h-207l143 324h250zM803 1161h-207l184 324h250z" />
    <glyph glyph-name="Uogonek" unicode="&#x172;" horiz-adv-x="1368" 
d="M975 571v842h237v-840q0 -260 -109 -408t-312 -175q-93 -72 -93 -119q0 -51 72 -51q3 0 8 0.5t14.5 1.5t18.5 2l29 -121q-16 -8 -97 -8q-97 0 -158 41t-61 114q0 78 60 138q-209 26 -318.5 173.5t-109.5 409.5v842h237v-842q0 -198 70.5 -290.5t220.5 -92.5t220.5 92.5
t70.5 290.5z" />
    <glyph glyph-name="uogonek" unicode="&#x173;" horiz-adv-x="1077" 
d="M741 1024h217v-1018l3 -6q-65 -49 -87 -74q-24 -27 -24 -57q0 -51 72 -51q3 0 8 0.5t14.5 1.5t18.5 2l28 -121q-16 -8 -96 -8q-92 0 -154 39q-65 38 -65 116q0 82 67 152v92q-38 -60 -95 -85t-156 -25q-180 0 -277.5 101.5t-97.5 301.5v639h219v-616q0 -123 48 -178.5
t148 -55.5q99 0 154 61.5t55 170.5v618z" />
    <glyph glyph-name="Ydieresis" unicode="&#x178;" horiz-adv-x="1169" 
d="M483 1565h-221v215h221v-215zM907 1565h-223v215h223v-215zM465 590l-440 823h276l283 -565l284 565h275l-441 -823v-590h-237v590z" />
    <glyph glyph-name="Zacute" unicode="&#x179;" 
d="M608 1524h-211l164 264h258zM61 1206v207h928v-158l-624 -1050h645v-205h-949v158l625 1048h-625z" />
    <glyph glyph-name="zacute" unicode="&#x17a;" horiz-adv-x="919" 
d="M559 1161h-207l144 324h249zM72 0v158l489 678h-487v188h772v-158l-486 -678h494v-188h-782z" />
    <glyph glyph-name="Zdotaccent" unicode="&#x17b;" 
d="M657 1573h-241v207h241v-207zM61 1206v207h928v-158l-624 -1050h645v-205h-949v158l625 1048h-625z" />
    <glyph glyph-name="zdotaccent" unicode="&#x17c;" horiz-adv-x="919" 
d="M592 1190h-238v223h238v-223zM72 0v158l489 678h-487v188h772v-158l-486 -678h494v-188h-782z" />
    <glyph glyph-name="Zcaron" unicode="&#x17d;" 
d="M932 1802l-283 -291h-205l-282 291h239l146 -153l145 153h240zM61 1206v207h928v-158l-624 -1050h645v-205h-949v158l625 1048h-625z" />
    <glyph glyph-name="zcaron" unicode="&#x17e;" horiz-adv-x="919" 
d="M803 1434l-221 -291h-205l-221 291h209l114 -158l115 158h209zM72 0v158l489 678h-487v188h772v-158l-486 -678h494v-188h-782z" />
    <glyph glyph-name="uni018F" unicode="&#x18f;" horiz-adv-x="1234" 
d="M98 616v119h811v62q0 220 -71.5 324t-219.5 104q-232 0 -282 -250h-230q32 221 164.5 339t347.5 118q256 0 392.5 -163t136.5 -483v-170q0 -312 -137 -473t-392 -161q-253 0 -386.5 159.5t-133.5 474.5zM618 188q134 0 204 81.5t83 258.5h-575q21 -340 288 -340z" />
    <glyph glyph-name="florin" unicode="&#x192;" horiz-adv-x="1069" 
d="M262 817v207h131v63q0 178 78.5 252t265.5 74h64v-207h-43q-78 0 -105.5 -34t-27.5 -128v-20h176v-207h-176v-880q0 -176 -90 -251t-295 -75v207q89 0 121 36.5t32 129.5v833h-131z" />
    <glyph glyph-name="uni01DD" unicode="&#x1dd;" horiz-adv-x="997" 
d="M272 754l-163 114q101 174 366 174q212 0 330.5 -123.5t118.5 -338.5v-140q0 -225 -106.5 -341.5t-309.5 -116.5q-414 0 -414 471v112h613v4q0 136 -56.5 210.5t-167.5 74.5q-84 0 -131 -22.5t-80 -77.5zM508 172q182 0 197 225h-392q12 -225 195 -225z" />
    <glyph glyph-name="uni0218" unicode="&#x218;" horiz-adv-x="1173" 
d="M1071 1200l-180 -129q-61 83 -129.5 118.5t-175.5 35.5q-110 0 -171 -48.5t-61 -136.5q0 -92 68 -143t235 -88q232 -52 332.5 -148t100.5 -274q0 -179 -125.5 -292t-356.5 -113q-356 0 -528 231l186 129q70 -83 144.5 -118.5t185.5 -35.5q256 0 256 189q0 92 -69.5 145.5
t-239.5 89.5q-426 88 -426 428q0 181 123 286.5t348 105.5q332 0 483 -232zM498 -117h241v-233l-241 -209v442z" />
    <glyph glyph-name="uni0219" unicode="&#x219;" horiz-adv-x="952" 
d="M846 872l-162 -116q-38 51 -87.5 71.5t-135.5 20.5q-160 0 -160 -105q0 -56 45.5 -85.5t149.5 -41.5q191 -20 282.5 -97.5t91.5 -225.5t-101.5 -229.5t-291.5 -81.5q-285 0 -411 170l165 118q72 -96 244 -96q85 0 131.5 29.5t46.5 83.5q0 59 -43 86q-49 29 -170 43
q-358 46 -358 321q0 142 100.5 223.5t282.5 81.5q273 0 381 -170zM362 -117h244v-233l-244 -209v442z" />
    <glyph glyph-name="uni021A" unicode="&#x21a;" horiz-adv-x="1079" 
d="M14 1206v207h1051v-207h-406v-1206h-237v1206h-408zM418 -117h244v-233l-244 -209v442z" />
    <glyph glyph-name="uni021B" unicode="&#x21b;" horiz-adv-x="663" 
d="M166 836h-131v188h131v225h217v-225h217v-188h-217v-469q0 -98 27.5 -134t105.5 -36h84v-197h-100q-184 0 -259 73t-75 253v510zM268 -117h244v-233l-244 -209v442z" />
    <glyph glyph-name="uni0237" unicode="&#x237;" horiz-adv-x="499" 
d="M154 1024h217v-1087q0 -178 -84.5 -252t-286.5 -74v192q89 0 121.5 38.5t32.5 133.5v1049z" />
    <glyph glyph-name="uni0259" unicode="&#x259;" horiz-adv-x="997" 
d="M272 754l-163 114q101 174 366 174q212 0 330.5 -123.5t118.5 -338.5v-140q0 -225 -106.5 -341.5t-309.5 -116.5q-414 0 -414 471v112h613v4q0 136 -56.5 210.5t-167.5 74.5q-84 0 -131 -22.5t-80 -77.5zM508 172q182 0 197 225h-392q12 -225 195 -225z" />
    <glyph glyph-name="uni02BC" unicode="&#x2bc;" horiz-adv-x="348" 
d="M72 1024h241v-299l-241 -209v508z" />
    <glyph glyph-name="circumflex" unicode="&#x2c6;" horiz-adv-x="841" 
d="M96 1143l221 291h205l221 -291h-208l-115 157l-115 -157h-209z" />
    <glyph glyph-name="caron" unicode="&#x2c7;" horiz-adv-x="841" 
d="M743 1434l-221 -291h-205l-221 291h209l115 -158l115 158h208z" />
    <glyph glyph-name="breve" unicode="&#x2d8;" horiz-adv-x="831" 
d="M545 1413h164q-4 -124 -81 -191t-212 -67q-137 0 -214 67t-81 191h166q12 -115 129 -115t129 115z" />
    <glyph glyph-name="dotaccent" unicode="&#x2d9;" horiz-adv-x="645" 
d="M440 1190h-237v223h237v-223z" />
    <glyph glyph-name="ring" unicode="&#x2da;" horiz-adv-x="778" 
d="M217 1163q-67 64 -67 160t67 160q71 65 172 65t172 -65q68 -65 68 -160t-68 -160q-63 -63 -172 -63t-172 63zM322 1395q-21 -21 -26.5 -52t4.5 -57.5t33.5 -45.5t55.5 -19t56 19t33.5 45.5t4.5 57.5t-26 52q-28 28 -68 28q-39 0 -67 -28z" />
    <glyph glyph-name="ogonek" unicode="&#x2db;" horiz-adv-x="694" 
d="M442 111l31 -111q-62 -47 -86 -74q-25 -28 -25 -57q0 -51 72 -51q3 0 8 0.5t14.5 1.5t18.5 2l29 -121q-16 -8 -96 -8q-97 0 -158.5 41t-61.5 114q0 79 59.5 140t194.5 123z" />
    <glyph glyph-name="tilde" unicode="&#x2dc;" horiz-adv-x="878" 
d="M561 1171q-42 0 -127 29t-110 29q-63 0 -115 -55l-119 120q95 115 229 115q44 0 123 -31q82 -28 117 -28q57 0 109 55l118 -119q-89 -115 -225 -115z" />
    <glyph glyph-name="hungarumlaut" unicode="&#x2dd;" horiz-adv-x="987" 
d="M313 1161h-207l144 324h250zM651 1161h-207l185 324h250z" />
    <glyph glyph-name="acutecomb" unicode="&#x301;" horiz-adv-x="0" 
d="M-389 1161h-207l143 324h250z" />
    <glyph glyph-name="uni0394" unicode="&#x2206;" horiz-adv-x="1155" 
d="M705 1413l409 -1413h-1073l408 1413h256zM342 205h469l-236 895z" />
    <glyph glyph-name="uni0394" unicode="&#x394;" horiz-adv-x="1155" 
d="M705 1413l409 -1413h-1073l408 1413h256zM342 205h469l-236 895z" />
    <glyph glyph-name="uni03A9" unicode="&#x2126;" horiz-adv-x="1280" 
d="M1028 205h141v-205h-409v205q86 50 129 137t43 281v174q0 220 -71.5 324t-219.5 104q-149 0 -221 -104t-72 -324v-174q0 -194 43 -281q46 -90 129 -137v-205h-409v205h141q-76 76 -108.5 171.5t-32.5 246.5v174q0 312 137.5 473.5t392.5 161.5q254 0 391 -161.5
t137 -473.5v-174q0 -151 -32.5 -246.5t-108.5 -171.5z" />
    <glyph glyph-name="uni03A9" unicode="&#x3a9;" horiz-adv-x="1280" 
d="M1028 205h141v-205h-409v205q86 50 129 137t43 281v174q0 220 -71.5 324t-219.5 104q-149 0 -221 -104t-72 -324v-174q0 -194 43 -281q46 -90 129 -137v-205h-409v205h141q-76 76 -108.5 171.5t-32.5 246.5v174q0 312 137.5 473.5t392.5 161.5q254 0 391 -161.5
t137 -473.5v-174q0 -151 -32.5 -246.5t-108.5 -171.5z" />
    <glyph glyph-name="pi" unicode="&#x3c0;" horiz-adv-x="1171" 
d="M741 322v514h-393v-836h-211v836h-162v188h1141v-188h-155v-463q0 -99 33 -139.5t122 -40.5v-193q-203 0 -289 73t-86 249z" />
    <glyph glyph-name="uni0401" unicode="&#x401;" horiz-adv-x="1091" 
d="M483 1565h-221v215h221v-215zM907 1565h-223v215h223v-215zM156 0v1413h866v-207h-629v-372h568v-205h-568v-424h629v-205h-866z" />
    <glyph glyph-name="uni0402" unicode="&#x402;" horiz-adv-x="1488" 
d="M2 1206v207h1053v-207h-408v-418q43 40 129.5 68.5t177.5 28.5q238 0 345.5 -110.5t107.5 -350.5v-94q0 -170 -84 -254q-34 -34 -90 -51q-83 -25 -199 -25h-53v199h53q72 0 103.5 37.5t31.5 119.5v58q0 145 -61.5 204.5t-202.5 59.5q-175 0 -258 -117v-561h-237v1206
h-408z" />
    <glyph glyph-name="uni0403" unicode="&#x403;" horiz-adv-x="997" 
d="M657 1524h-211l164 264h258zM156 1413h841v-207h-604v-1206h-237v1413z" />
    <glyph glyph-name="uni0404" unicode="&#x404;" horiz-adv-x="1191" 
d="M1137 975h-230q-53 250 -284 250q-288 0 -291 -412h475v-205h-475q3 -420 291 -420q120 0 187 60t97 190h228q-67 -456 -512 -456q-255 0 -392 161t-137 473v181q0 312 137 473.5t392 161.5q216 0 347.5 -116t166.5 -341z" />
    <glyph glyph-name="uni0405" unicode="&#x405;" horiz-adv-x="1173" 
d="M1071 1200l-180 -129q-61 83 -129.5 118.5t-175.5 35.5q-110 0 -171 -48.5t-61 -136.5q0 -92 68 -143t235 -88q232 -52 332.5 -148t100.5 -274q0 -179 -125.5 -292t-356.5 -113q-356 0 -528 231l186 129q70 -83 144.5 -118.5t185.5 -35.5q256 0 256 189q0 92 -69.5 145.5
t-239.5 89.5q-426 88 -426 428q0 181 123 286.5t348 105.5q332 0 483 -232z" />
    <glyph glyph-name="uni0406" unicode="&#x406;" horiz-adv-x="587" 
d="M416 1573h-242v207h242v-207zM176 1413h238v-1413h-238v1413z" />
    <glyph glyph-name="uni0407" unicode="&#x407;" horiz-adv-x="587" 
d="M193 1565h-222v215h222v-215zM616 1565h-223v215h223v-215zM176 1413h238v-1413h-238v1413z" />
    <glyph glyph-name="uni0408" unicode="&#x408;" horiz-adv-x="1042" 
d="M-6 178l199 113q77 -103 206 -103q132 0 191 86t59 285v854h238v-854q0 -577 -477 -577q-284 0 -416 196z" />
    <glyph glyph-name="uni0409" unicode="&#x409;" horiz-adv-x="2007" 
d="M272 1044v369h902v-536h256q250 0 379.5 -120.5t129.5 -318.5t-129.5 -318t-379.5 -120h-494v1206h-426v-162q0 -312 -16 -509q-15 -169 -56 -273q-47 -121 -145 -188t-260 -92v256q144 27 188 143q51 128 51 663zM1421 672h-247v-467h247q281 0 281 233q0 112 -71.5 173
t-209.5 61z" />
    <glyph glyph-name="uni040A" unicode="&#x40a;" horiz-adv-x="2002" 
d="M156 1413h237v-579h541v579h237v-536h256q258 0 383 -125q127 -127 127 -314q0 -186 -127 -313q-125 -125 -383 -125h-493v629h-541v-629h-237v1413zM1417 672h-246v-467h246q69 0 125 20t90.5 53t53.5 75t19 85.5t-19 85.5t-53.5 75t-90.5 53t-125 20z" />
    <glyph glyph-name="uni040B" unicode="&#x40b;" horiz-adv-x="1501" 
d="M14 1206v207h1051v-207h-406v-418q45 40 130 68.5t178 28.5q238 0 344 -110t106 -351v-424h-237v414q0 145 -61 204.5t-204 59.5q-174 0 -256 -117v-561h-237v1206h-408z" />
    <glyph glyph-name="uni040C" unicode="&#x40c;" horiz-adv-x="1257" 
d="M698 1524h-211l164 264h258zM754 723l479 -723h-283l-401 608h-156v-608h-237v1413h237v-600h150l352 600h262z" />
    <glyph glyph-name="uni040E" unicode="&#x40e;" horiz-adv-x="1187" 
d="M633 631l297 782h246l-455 -1149q-65 -164 -164 -223q-103 -59 -299 -59v211q118 0 170 24q52 25 88 111l-483 1085h260zM764 1800h219q0 -301 -375 -301q-377 0 -377 301h222q0 -143 155 -143q156 0 156 143z" />
    <glyph glyph-name="uni040F" unicode="&#x40f;" horiz-adv-x="1306" 
d="M780 0v-266h-221v266h-403v1413h237v-1208h553v1208h238v-1413h-404z" />
    <glyph glyph-name="uni0410" unicode="&#x410;" horiz-adv-x="1218" 
d="M354 293l-96 -293h-254l492 1413h225l491 -1413h-251l-97 293h-510zM797 498l-189 571l-188 -571h377z" />
    <glyph glyph-name="uni0411" unicode="&#x411;" horiz-adv-x="1220" 
d="M156 1413h905v-207h-668v-329h254q250 0 380 -120.5t130 -318.5t-130 -318t-380 -120h-491v1413zM639 672h-246v-467h246q281 0 281 233q0 112 -71.5 173t-209.5 61z" />
    <glyph glyph-name="uni0412" unicode="&#x412;" horiz-adv-x="1232" 
d="M156 0v1413h454q502 0 502 -366q0 -108 -56 -190t-151 -118q252 -71 252 -333q0 -177 -123 -291q-121 -115 -379 -115h-499zM612 631h-219v-426h248q279 0 279 213q0 110 -74.5 161.5t-233.5 51.5zM594 1208h-201v-372h232q249 0 249 196q0 95 -63 135.5t-217 40.5z" />
    <glyph glyph-name="uni0413" unicode="&#x413;" horiz-adv-x="997" 
d="M156 1413h841v-207h-604v-1206h-237v1413z" />
    <glyph glyph-name="uni0414" unicode="&#x414;" horiz-adv-x="1398" 
d="M242 0v-266h-222v471h80q67 55 115 205q66 210 66 649v354h901v-1208h176v-471h-221v266h-895zM432 319q-20 -57 -57 -114h569v1001h-426v-147q0 -493 -86 -740z" />
    <glyph glyph-name="uni0415" unicode="&#x415;" horiz-adv-x="1091" 
d="M156 0v1413h866v-207h-629v-372h568v-205h-568v-424h629v-205h-866z" />
    <glyph glyph-name="uni0416" unicode="&#x416;" horiz-adv-x="1822" 
d="M647 608l-362 -608h-273l428 715l-352 698h254l297 -600h154v600h237v-600h154l297 600h254l-353 -698l428 -715h-272l-362 608h-146v-608h-237v608h-146z" />
    <glyph glyph-name="uni0417" unicode="&#x417;" horiz-adv-x="1181" 
d="M565 631h-133v205h143q250 0 250 202q0 189 -231 189q-111 0 -176.5 -46t-102.5 -147h-213q21 178 162 289q145 109 332 109q211 0 336 -101q131 -98 131 -278q0 -207 -207 -310q117 -37 184.5 -126.5t67.5 -210.5q0 -191 -133.5 -307.5t-372.5 -116.5q-449 0 -534 417
h229q50 -114 117 -162.5t182 -48.5q274 0 274 224q0 219 -305 219z" />
    <glyph glyph-name="uni0418" unicode="&#x418;" horiz-adv-x="1366" 
d="M156 0v1413h237v-964l625 964h194v-1413h-237v954l-623 -954h-196z" />
    <glyph glyph-name="uni0419" unicode="&#x419;" horiz-adv-x="1366" 
d="M858 1800h219q0 -301 -375 -301q-376 0 -376 301h221q0 -143 155 -143q156 0 156 143zM156 0v1413h237v-964l625 964h194v-1413h-237v954l-623 -954h-196z" />
    <glyph glyph-name="uni041A" unicode="&#x41a;" horiz-adv-x="1257" 
d="M754 723l479 -723h-283l-401 608h-156v-608h-237v1413h237v-600h150l352 600h262z" />
    <glyph glyph-name="uni041B" unicode="&#x41b;" horiz-adv-x="1329" 
d="M272 1044v369h902v-1413h-238v1206h-426v-162q0 -312 -16 -509q-15 -169 -56 -273q-47 -121 -145 -188t-260 -92v256q144 27 188 143q51 128 51 663z" />
    <glyph glyph-name="uni041C" unicode="&#x41c;" horiz-adv-x="1579" 
d="M156 1413h225l407 -819l408 819h227v-1413h-229v946l-324 -674h-168l-317 668v-940h-229v1413z" />
    <glyph glyph-name="uni041D" unicode="&#x41d;" horiz-adv-x="1327" 
d="M156 1413h237v-579h541v579h237v-1413h-237v629h-541v-629h-237v1413z" />
    <glyph glyph-name="uni041E" unicode="&#x41e;" horiz-adv-x="1255" 
d="M1157 797v-181q0 -312 -137.5 -473t-392.5 -161t-392 161t-137 473v181q0 312 137 473.5t392 161.5t392.5 -161.5t137.5 -473.5zM336 797v-181q0 -220 71.5 -324t219.5 -104q149 0 221 104t72 324v181q0 220 -72 324t-221 104q-148 0 -219.5 -104t-71.5 -324z" />
    <glyph glyph-name="uni041F" unicode="&#x41f;" horiz-adv-x="1339" 
d="M156 0v1413h1028v-1413h-238v1206h-553v-1206h-237z" />
    <glyph glyph-name="uni0420" unicode="&#x420;" horiz-adv-x="1206" 
d="M637 516h-244v-516h-237v1413h481q248 0 384 -115.5t136 -330.5t-136.5 -333t-383.5 -118zM393 1206v-485h219q308 0 308 246q0 239 -308 239h-219z" />
    <glyph glyph-name="uni0421" unicode="&#x421;" horiz-adv-x="1202" 
d="M1141 975h-230q-53 250 -284 250q-148 0 -219.5 -104t-71.5 -324v-181q0 -428 291 -428q120 0 187 60t97 190h228q-67 -456 -512 -456q-255 0 -392 161t-137 473v181q0 312 137 473.5t392 161.5q216 0 347.5 -116t166.5 -341z" />
    <glyph glyph-name="uni0422" unicode="&#x422;" horiz-adv-x="1079" 
d="M14 1206v207h1051v-207h-406v-1206h-237v1206h-408z" />
    <glyph glyph-name="uni0423" unicode="&#x423;" horiz-adv-x="1187" 
d="M633 631l297 782h246l-455 -1149q-65 -164 -164 -223q-103 -59 -299 -59v211q118 0 170 24q52 25 88 111l-483 1085h260z" />
    <glyph glyph-name="uni0424" unicode="&#x424;" horiz-adv-x="1572" 
d="M668 1307v106h237v-106q574 0 574 -568v-65q0 -568 -574 -568v-106h-237v106q-574 0 -574 568v65q0 568 574 568zM905 1102v-791q175 0 255.5 84t80.5 279v65q0 195 -80.5 279t-255.5 84zM332 739v-65q0 -195 80.5 -279t255.5 -84v791q-175 0 -255.5 -84t-80.5 -279z" />
    <glyph glyph-name="uni0425" unicode="&#x425;" horiz-adv-x="1175" 
d="M588 514l-295 -514h-260l407 729l-364 684h260l252 -483l254 483h258l-367 -684l410 -729h-258z" />
    <glyph glyph-name="uni0426" unicode="&#x426;" horiz-adv-x="1402" 
d="M156 1413h237v-1208h553v1208h238v-1208h192v-471h-223v266h-997v1413z" />
    <glyph glyph-name="uni0427" unicode="&#x427;" horiz-adv-x="1216" 
d="M55 1413h238v-407q0 -164 61.5 -229.5t216.5 -65.5q197 0 252 104v598h238v-1413h-238v580q-89 -74 -295 -74q-261 0 -367 115.5t-106 384.5v407z" />
    <glyph glyph-name="uni0428" unicode="&#x428;" horiz-adv-x="1847" 
d="M156 1413h237v-1208h412v1208h237v-1208h412v1208h238v-1413h-1536v1413z" />
    <glyph glyph-name="uni0429" unicode="&#x429;" horiz-adv-x="1912" 
d="M156 1413h237v-1208h412v1208h237v-1208h412v1208h238v-1208h190v-471h-221v266h-1505v1413z" />
    <glyph glyph-name="uni042A" unicode="&#x42a;" horiz-adv-x="1333" 
d="M-49 1206v207h551v-536h256q258 0 383 -125q127 -127 127 -314q0 -186 -127 -313q-125 -125 -383 -125h-494v1206h-313zM750 672h-248v-467h248q69 0 124.5 20t90 53t53 75t18.5 85.5t-18.5 85.5t-53 75t-90 53t-124.5 20z" />
    <glyph glyph-name="uni042B" unicode="&#x42b;" horiz-adv-x="1634" 
d="M156 0v1413h237v-536h215q260 0 385 -125q127 -127 127 -314t-129 -313q-125 -125 -397 -125h-438zM600 672h-207v-467h207q69 0 125 20t90.5 53t53.5 75t19 85.5t-19 85.5t-53.5 75t-90.5 53t-125 20zM1243 1413h238v-1413h-238v1413z" />
    <glyph glyph-name="uni042C" unicode="&#x42c;" horiz-adv-x="1224" 
d="M156 0v1413h237v-536h254q250 0 380 -120.5t130 -318.5t-130 -318t-380 -120h-491zM639 672h-246v-467h246q281 0 281 233q0 112 -71.5 173t-209.5 61z" />
    <glyph glyph-name="uni042D" unicode="&#x42d;" horiz-adv-x="1202" 
d="M864 608h-473v205h473q-3 412 -291 412q-229 0 -282 -250h-230q32 224 163.5 340.5t348.5 116.5q255 0 392 -161.5t137 -473.5v-181q0 -312 -137 -473t-392 -161q-446 0 -510 456h228q29 -130 96.5 -190t185.5 -60q288 0 291 420z" />
    <glyph glyph-name="uni042E" unicode="&#x42e;" horiz-adv-x="1675" 
d="M1577 786v-159q0 -645 -494 -645q-495 0 -495 647h-195v-629h-237v1413h237v-579h195q18 598 495 598q494 0 494 -646zM825 778v-143q0 -235 61 -341t197 -106q135 0 195.5 106t60.5 341v143q0 234 -60.5 340.5t-195.5 106.5q-136 0 -197 -106.5t-61 -340.5z" />
    <glyph glyph-name="uni042F" unicode="&#x42f;" horiz-adv-x="1249" 
d="M612 573l-317 -573h-262l344 602q-287 86 -287 391q0 204 135.5 312t388.5 108h480v-1413h-238v573h-244zM627 778h229v428h-229q-159 0 -229 -49t-70 -164q0 -116 69 -165.5t230 -49.5z" />
    <glyph glyph-name="uni0430" unicode="&#x430;" horiz-adv-x="999" 
d="M430 -18q-172 0 -268 83.5t-96 235.5q0 151 97.5 227t282.5 76h222v86q0 96 -42.5 130t-160.5 34q-92 0 -136 -18.5t-79 -73.5l-158 110q56 91 145.5 130.5t241.5 39.5q213 0 308.5 -82t95.5 -272v-688h-215v94q-37 -61 -91 -86.5t-147 -25.5zM668 387v49h-205
q-182 0 -182 -135q0 -133 174 -133q114 0 163.5 49t49.5 170z" />
    <glyph glyph-name="uni0431" unicode="&#x431;" horiz-adv-x="1024" 
d="M821 1479l117 -146q-47 -93 -190 -102l-193 -12q-156 -9 -215 -109q-26 -45 -41 -158q96 90 242 90q195 0 301 -118.5t106 -339.5v-140q0 -218 -111.5 -340t-322.5 -122q-208 0 -322 122t-114 340v134q0 442 90 630q96 190 340 205l205 14q68 3 108 52zM514 170
q107 0 162 74.5t55 210.5v129q0 129 -56 198.5t-161 69.5q-108 0 -163.5 -69t-55.5 -199v-129q0 -285 219 -285z" />
    <glyph glyph-name="uni0432" unicode="&#x432;" horiz-adv-x="1013" 
d="M117 0v1024h397q181 0 277 -67.5t96 -196.5q0 -68 -37 -122t-98 -81q89 -27 141.5 -96.5t52.5 -165.5q0 -134 -99.5 -214.5t-283.5 -80.5h-446zM500 446h-164v-268h184q189 0 189 135q0 72 -48 102.5t-161 30.5zM465 846h-129v-228h145q168 0 168 115q0 113 -184 113z
" />
    <glyph glyph-name="uni0433" unicode="&#x433;" horiz-adv-x="751" 
d="M117 1024h655v-188h-436v-836h-219v1024z" />
    <glyph glyph-name="uni0434" unicode="&#x434;" horiz-adv-x="1132" 
d="M236 0v-240h-207v428h80q36 27 79 127q48 127 48 459v250h720v-836h140v-428h-205v240h-655zM371 217q-6 -18 -17 -29h385v648h-293v-97q0 -375 -75 -522z" />
    <glyph glyph-name="uni0435" unicode="&#x435;" horiz-adv-x="997" 
d="M725 270l164 -114q-101 -174 -367 -174q-212 0 -330 123.5t-118 338.5v140q0 225 106 341.5t309 116.5q414 0 414 -471v-112h-612v-4q0 -136 56 -210.5t167 -74.5q84 0 131 22.5t80 77.5zM489 852q-181 0 -196 -225h391q-12 225 -195 225z" />
    <glyph glyph-name="uni0436" unicode="&#x436;" horiz-adv-x="1394" 
d="M913 608l199 416h231l-239 -498l282 -526h-247l-219 424h-113v-424h-219v424h-113l-219 -424h-248l283 526l-240 498h232l196 -416h109v416h219v-416h106z" />
    <glyph glyph-name="uni0437" unicode="&#x437;" horiz-adv-x="923" 
d="M375 446h-94v172h100q182 0 182 130q0 54 -40 84t-115 30q-117 0 -203 -92l-156 111q130 161 383 161q169 0 269 -72t100 -190q0 -158 -150 -229q89 -31 139 -99t50 -163q0 -139 -107.5 -223t-296.5 -84q-285 0 -399 176l149 112q76 -108 236 -108q84 0 132 39.5
t48 107.5q0 137 -227 137z" />
    <glyph glyph-name="uni0438" unicode="&#x438;" horiz-adv-x="1093" 
d="M117 1024h219v-639l442 639h197v-1024h-217v657l-449 -657h-192v1024z" />
    <glyph glyph-name="uni0439" unicode="&#x439;" horiz-adv-x="1093" 
d="M659 1413h183q0 -254 -299 -254q-145 0 -223 64t-78 190h184q0 -119 117 -119q116 0 116 119zM117 1024h219v-639l442 639h197v-1024h-217v657l-449 -657h-192v1024z" />
    <glyph glyph-name="uni043A" unicode="&#x43a;" horiz-adv-x="987" 
d="M444 608l256 416h246l-305 -496l336 -528h-256l-268 424h-117v-424h-219v1024h219v-416h108z" />
    <glyph glyph-name="uni043B" unicode="&#x43b;" horiz-adv-x="1054" 
d="M203 653v371h735v-1024h-219v836h-305v-275q0 -247 -60 -385q-85 -186 -327 -201v201q108 30 145 131q31 91 31 346z" />
    <glyph glyph-name="uni043C" unicode="&#x43c;" horiz-adv-x="1302" 
d="M117 1024h198l336 -594l336 594h197v-1024h-217v610l-244 -438h-158l-229 432v-604h-219v1024z" />
    <glyph glyph-name="uni043D" unicode="&#x43d;" horiz-adv-x="1064" 
d="M117 1024h219v-408h393v408h217v-1024h-217v428h-393v-428h-219v1024z" />
    <glyph glyph-name="uni043E" unicode="&#x43e;" horiz-adv-x="1017" 
d="M944 578v-129q0 -222 -111.5 -344.5t-322.5 -122.5q-208 0 -322 123t-114 344v129q0 225 113 344.5t323 119.5t322 -119.5t112 -344.5zM510 170q107 0 162 74.5t55 210.5v118q0 279 -217 279q-219 0 -219 -279v-118q0 -285 219 -285z" />
    <glyph glyph-name="uni043F" unicode="&#x43f;" horiz-adv-x="1064" 
d="M117 0v1024h829v-1024h-217v836h-393v-836h-219z" />
    <glyph glyph-name="uni0440" unicode="&#x440;" 
d="M987 584v-140q0 -215 -106 -338.5t-297 -123.5q-170 0 -248 84v-455h-219v1413h219v-82q81 100 250 100q187 0 294 -121.5t107 -336.5zM553 170q107 0 162 74.5t55 210.5v118q0 279 -217 279q-214 0 -217 -266v-131q0 -285 217 -285z" />
    <glyph glyph-name="uni0441" unicode="&#x441;" horiz-adv-x="911" 
d="M723 270l166 -114q-98 -174 -365 -174q-210 0 -330 124t-120 338v140q0 221 119 339.5t339 118.5q250 0 357 -165l-168 -117q-65 92 -193 92q-237 0 -237 -279v-118q0 -285 237 -285q141 0 195 100z" />
    <glyph glyph-name="uni0442" unicode="&#x442;" horiz-adv-x="847" 
d="M0 836v188h848v-188h-316v-836h-217v836h-315z" />
    <glyph glyph-name="uni0443" unicode="&#x443;" horiz-adv-x="968" 
d="M401 -12l-391 1036h232l260 -721l233 721h226l-361 -1065q-46 -139 -94 -209q-95 -139 -356 -139v201q115 0 165 34t86 142z" />
    <glyph glyph-name="uni0444" unicode="&#x444;" horiz-adv-x="1384" 
d="M584 1413h217v-371q252 0 380 -116t128 -342v-140q0 -224 -129.5 -343t-378.5 -119v-371h-217v371q-249 0 -379.5 119t-130.5 343v140q0 226 129 342t381 116v371zM291 575v-124q0 -281 293 -281v682q-293 0 -293 -277zM1092 451v124q0 142 -71.5 209.5t-219.5 67.5v-682
q151 0 221 69t70 212z" />
    <glyph glyph-name="uni0445" unicode="&#x445;" horiz-adv-x="993" 
d="M623 524l354 -524h-248l-233 342l-234 -342h-246l353 524l-320 500h248l199 -324l200 324h246z" />
    <glyph glyph-name="uni0446" unicode="&#x446;" horiz-adv-x="1122" 
d="M1085 188v-428h-204v240h-764v1024h219v-836h393v836h217v-836h139z" />
    <glyph glyph-name="uni0447" unicode="&#x447;" horiz-adv-x="972" 
d="M70 1024h217v-274q0 -110 43.5 -155.5t138.5 -45.5q125 0 168 82v393h219v-1024h-219v410q-65 -56 -203 -56q-184 0 -274 89t-90 286v295z" />
    <glyph glyph-name="uni0448" unicode="&#x448;" horiz-adv-x="1495" 
d="M1378 1024v-1024h-1261v1024h219v-836h303v836h217v-836h303v836h219z" />
    <glyph glyph-name="uni0449" unicode="&#x449;" horiz-adv-x="1554" 
d="M1516 188v-428h-205v240h-1194v1024h219v-836h303v836h217v-836h303v836h219v-836h138z" />
    <glyph glyph-name="uni044A" unicode="&#x44a;" horiz-adv-x="1105" 
d="M-33 836v188h482v-371h180q430 0 430 -323q0 -157 -101.5 -243.5t-291.5 -86.5h-437v836h-262zM616 465h-167v-277h192q180 0 180 144q0 68 -48.5 100.5t-156.5 32.5z" />
    <glyph glyph-name="uni044B" unicode="&#x44b;" horiz-adv-x="1333" 
d="M117 0v1024h219v-371h127q430 0 430 -323q0 -159 -101.5 -244.5t-291.5 -85.5h-383zM449 465h-113v-277h137q182 0 182 144q0 68 -49 100.5t-157 32.5zM997 0v1024h217v-1024h-217z" />
    <glyph glyph-name="uni044C" unicode="&#x44c;" horiz-adv-x="993" 
d="M117 0v1024h219v-371h180q430 0 430 -323q0 -157 -101.5 -243.5t-291.5 -86.5h-436zM504 465h-168v-277h192q181 0 181 144q0 68 -48.5 100.5t-156.5 32.5z" />
    <glyph glyph-name="uni044D" unicode="&#x44d;" horiz-adv-x="929" 
d="M639 430h-358v178h358q-5 118 -64 181t-169 63q-130 0 -195 -92l-166 117q122 165 354 165q221 0 339 -118.5t118 -339.5v-140q0 -218 -119.5 -340t-337.5 -122q-258 0 -356 174l162 114q57 -100 201 -100q230 0 233 260z" />
    <glyph glyph-name="uni044E" unicode="&#x44e;" horiz-adv-x="1390" 
d="M1317 584v-140q0 -219 -106 -340.5t-302 -121.5q-191 0 -298.5 116.5t-108.5 329.5h-166v-428h-219v1024h219v-408h166q7 206 113.5 316t293.5 110q197 0 302.5 -118.5t105.5 -339.5zM909 170q191 0 191 283v122q0 277 -191 277q-188 0 -188 -277v-122q0 -283 188 -283z
" />
    <glyph glyph-name="uni044F" unicode="&#x44f;" horiz-adv-x="1024" 
d="M905 1024v-1024h-217v377h-168l-231 -377h-236l254 412q-209 77 -209 301q0 144 104.5 227.5t301.5 83.5h401zM539 563h149v273h-168q-184 0 -184 -131q0 -74 48.5 -108t154.5 -34z" />
    <glyph glyph-name="uni0451" unicode="&#x451;" horiz-adv-x="997" 
d="M725 270l164 -114q-101 -174 -367 -174q-212 0 -330 123.5t-118 338.5v140q0 225 106 341.5t309 116.5q414 0 414 -471v-112h-612v-4q0 -136 56 -210.5t167 -74.5q84 0 131 22.5t80 77.5zM489 852q-181 0 -196 -225h391q-12 225 -195 225zM383 1198h-223v215h223v-215z
M805 1198h-221v215h221v-215z" />
    <glyph glyph-name="uni0452" unicode="&#x452;" horiz-adv-x="1077" 
d="M133 1120h-192v178h192v115h217v-115h307v-178h-307v-250q74 105 250 105q181 0 278 -101t97 -301v-636q0 -169 -80.5 -247.5t-251.5 -78.5h-27v190h25q62 0 89.5 31t27.5 105v612q0 233 -197 233q-98 0 -154.5 -62.5t-56.5 -168.5v-551h-217v1120z" />
    <glyph glyph-name="uni0453" unicode="&#x453;" horiz-adv-x="751" 
d="M520 1161h-207l144 324h250zM117 1024h655v-188h-436v-836h-219v1024z" />
    <glyph glyph-name="uni0454" unicode="&#x454;" horiz-adv-x="940" 
d="M279 608h358v-178h-358q3 -260 233 -260q144 0 201 100l164 -114q-101 -174 -359 -174q-218 0 -337.5 122t-119.5 340v140q0 221 118 339.5t339 118.5q235 0 354 -165l-165 -117q-65 92 -195 92q-110 0 -169 -63t-64 -181z" />
    <glyph glyph-name="uni0455" unicode="&#x455;" horiz-adv-x="952" 
d="M846 872l-162 -116q-38 51 -87.5 71.5t-135.5 20.5q-160 0 -160 -105q0 -56 45.5 -85.5t149.5 -41.5q191 -20 282.5 -97.5t91.5 -225.5t-101.5 -229.5t-291.5 -81.5q-285 0 -411 170l165 118q72 -96 244 -96q85 0 131.5 29.5t46.5 83.5q0 59 -43 86q-49 29 -170 43
q-358 46 -358 321q0 142 100.5 223.5t282.5 81.5q273 0 381 -170z" />
    <glyph glyph-name="uni0456" unicode="&#x456;" horiz-adv-x="514" 
d="M377 1190h-240v223h240v-223zM367 0h-220v1024h220v-1024z" />
    <glyph glyph-name="uni0457" unicode="&#x457;" horiz-adv-x="514" 
d="M147 1198h-223v215h223v-215zM569 1198h-221v215h221v-215zM367 0h-220v1024h220v-1024z" />
    <glyph glyph-name="uni0458" unicode="&#x458;" horiz-adv-x="499" 
d="M154 1024h217v-1087q0 -178 -84.5 -252t-286.5 -74v192q89 0 121.5 38.5t32.5 133.5v1049zM381 1190h-238v223h238v-223z" />
    <glyph glyph-name="uni0459" unicode="&#x459;" horiz-adv-x="1595" 
d="M203 653v371h735v-371h180q430 0 430 -323q0 -157 -101.5 -243.5t-291.5 -86.5h-436v836h-305v-275q0 -247 -60 -385q-85 -186 -327 -201v201q108 30 145 131q31 91 31 346zM1106 465h-168v-277h192q181 0 181 144q0 68 -48.5 100.5t-156.5 32.5z" />
    <glyph glyph-name="uni045A" unicode="&#x45a;" horiz-adv-x="1605" 
d="M117 1024h219v-408h393v408h217v-371h182q431 0 431 -323q0 -157 -101.5 -243.5t-294.5 -86.5h-434v428h-393v-428h-219v1024zM1114 465h-168v-277h193q182 0 182 144q0 68 -49.5 100.5t-157.5 32.5z" />
    <glyph glyph-name="uni045B" unicode="&#x45b;" horiz-adv-x="1077" 
d="M133 1120h-192v178h192v115h217v-115h307v-178h-307v-250q74 105 250 105q181 0 278 -101t97 -301v-573h-217v549q0 233 -197 233q-98 0 -154.5 -62.5t-56.5 -168.5v-551h-217v1120z" />
    <glyph glyph-name="uni045C" unicode="&#x45c;" horiz-adv-x="987" 
d="M594 1161h-207l143 324h250zM444 608l256 416h246l-305 -496l336 -528h-256l-268 424h-117v-424h-219v1024h219v-416h108z" />
    <glyph glyph-name="uni045E" unicode="&#x45e;" horiz-adv-x="968" 
d="M401 -12l-391 1036h232l260 -721l233 721h226l-361 -1065q-46 -139 -94 -209q-95 -139 -356 -139v201q115 0 165 34t86 142zM616 1413h183q0 -254 -299 -254q-145 0 -223 64t-78 190h184q0 -119 117 -119q116 0 116 119z" />
    <glyph glyph-name="uni045F" unicode="&#x45f;" horiz-adv-x="1077" 
d="M623 0v-240h-181v240h-325v1024h219v-836h393v836h217v-1024h-323z" />
    <glyph glyph-name="uni0462" unicode="&#x462;" horiz-adv-x="1224" 
d="M156 1255v158h237v-158h342v-206h-342v-172h254q250 0 380 -120.5t130 -318.5t-130 -318t-380 -120h-491v1049h-176v206h176zM639 672h-246v-467h246q281 0 281 233q0 112 -71.5 173t-209.5 61z" />
    <glyph glyph-name="uni0463" unicode="&#x463;" horiz-adv-x="993" 
d="M117 846h-176v178h176v389h219v-389h321v-178h-321v-193h180q430 0 430 -323q0 -157 -101.5 -243.5t-291.5 -86.5h-436v846zM504 465h-168v-277h192q181 0 181 144q0 68 -48.5 100.5t-156.5 32.5z" />
    <glyph glyph-name="uni0472" unicode="&#x472;" horiz-adv-x="1255" 
d="M1157 797v-181q0 -312 -137.5 -473t-392.5 -161t-392 161t-137 473v181q0 312 137 473.5t392 161.5t392.5 -161.5t137.5 -473.5zM920 616v13h-584v-13q0 -220 71.5 -324t219.5 -104q149 0 221 104t72 324zM336 834h582q-12 391 -291 391t-291 -391z" />
    <glyph glyph-name="uni0473" unicode="&#x473;" horiz-adv-x="1017" 
d="M944 578v-129q0 -222 -111.5 -344.5t-322.5 -122.5q-208 0 -322 123t-114 344v129q0 225 113 344.5t323 119.5t322 -119.5t112 -344.5zM510 170q102 0 157 67.5t60 190.5h-436q9 -258 219 -258zM725 616q-15 236 -215 236q-201 0 -219 -236h434z" />
    <glyph glyph-name="uni0474" unicode="&#x474;" horiz-adv-x="1249" 
d="M514 0l-502 1413h262l349 -1032l262 772q53 151 139 213q91 66 268 66v-203q-73 0 -110 -31.5t-68 -118.5l-381 -1079h-219z" />
    <glyph glyph-name="uni0475" unicode="&#x475;" horiz-adv-x="1028" 
d="M1049 1042v-188q-56 0 -83.5 -25t-58.5 -102l-282 -727h-209l-408 1024h242l266 -731l199 541q47 127 114 167q71 41 220 41z" />
    <glyph glyph-name="uni0490" unicode="&#x490;" horiz-adv-x="997" 
d="M156 1413h630v221h211v-428h-604v-1206h-237v1413z" />
    <glyph glyph-name="uni0491" unicode="&#x491;" horiz-adv-x="751" 
d="M117 1024h458v190h197v-378h-436v-836h-219v1024z" />
    <glyph glyph-name="uni0492" unicode="&#x492;" horiz-adv-x="1005" 
d="M164 1413h842v-207h-605v-372h318v-205h-318v-629h-237v629h-184v205h184v579z" />
    <glyph glyph-name="uni0493" unicode="&#x493;" horiz-adv-x="798" 
d="M164 1024h655v-188h-436v-220h238v-188h-238v-428h-219v428h-189v188h189v408z" />
    <glyph glyph-name="uni0496" unicode="&#x496;" horiz-adv-x="1910" 
d="M647 608l-362 -608h-273l428 715l-352 698h254l297 -600h154v600h237v-600h154l297 600h254l-353 -698l306 -510h196v-471h-223v266h-123l-362 608h-146v-608h-237v608h-146z" />
    <glyph glyph-name="uni0497" unicode="&#x497;" horiz-adv-x="1456" 
d="M913 608l199 416h231l-239 -498l180 -338h152v-428h-207v240h-90l-219 424h-113v-424h-219v424h-113l-219 -424h-248l283 526l-240 498h232l196 -416h109v416h219v-416h106z" />
    <glyph glyph-name="uni0498" unicode="&#x498;" horiz-adv-x="1181" 
d="M713 -10v-256h-224v256q-345 47 -421 409h229q50 -114 117 -162.5t182 -48.5q274 0 274 224q0 219 -305 219h-133v205h143q250 0 250 202q0 189 -231 189q-111 0 -176.5 -46t-102.5 -147h-213q21 178 162 289q145 109 332 109q211 0 336 -101q131 -98 131 -278
q0 -207 -207 -310q117 -37 184.5 -126.5t67.5 -210.5q0 -166 -105.5 -278.5t-289.5 -137.5z" />
    <glyph glyph-name="uni0499" unicode="&#x499;" horiz-adv-x="923" 
d="M547 -10v-230h-207v228q-212 21 -303 170l149 112q76 -108 236 -108q84 0 132 39.5t48 107.5q0 137 -227 137h-94v172h100q182 0 182 130q0 54 -40 84t-115 30q-117 0 -203 -92l-156 111q130 161 383 161q169 0 269 -72t100 -190q0 -158 -150 -229q89 -31 139 -99
t50 -163q0 -116 -77 -195t-216 -104z" />
    <glyph glyph-name="uni049A" unicode="&#x49a;" horiz-adv-x="1323" 
d="M1294 205v-471h-221v266h-123l-401 608h-156v-608h-237v1413h237v-600h150l352 600h262l-403 -690l342 -518h198z" />
    <glyph glyph-name="uni049B" unicode="&#x49b;" horiz-adv-x="1038" 
d="M444 608l256 416h246l-305 -496l215 -340h158v-428h-205v240h-88l-268 424h-117v-424h-219v1024h219v-416h108z" />
    <glyph glyph-name="uni049C" unicode="&#x49c;" horiz-adv-x="1411" 
d="M907 723l479 -723h-282l-402 608h-49v-227h-190v227h-70v-608h-237v1413h237v-600h70v244h190v-244h43l353 600h262z" />
    <glyph glyph-name="uni049D" unicode="&#x49d;" horiz-adv-x="1110" 
d="M569 608l256 416h244l-305 -496l336 -528h-256l-266 424h-23v-209h-174v209h-45v-424h-219v1024h219v-416h45v211h174v-211h14z" />
    <glyph glyph-name="uni04A0" unicode="&#x4a0;" horiz-adv-x="1368" 
d="M864 723l479 -723h-282l-402 608h-155v-608h-238v1206h-315v207h553v-600h149l353 600h262z" />
    <glyph glyph-name="uni04A1" unicode="&#x4a1;" horiz-adv-x="1099" 
d="M557 608l256 416h246l-305 -496l336 -528h-256l-269 424h-116v-424h-220v836h-262v188h482v-416h108z" />
    <glyph glyph-name="uni04A2" unicode="&#x4a2;" horiz-adv-x="1390" 
d="M156 1413h237v-579h541v579h237v-1208h193v-471h-223v266h-207v629h-541v-629h-237v1413z" />
    <glyph glyph-name="uni04A3" unicode="&#x4a3;" horiz-adv-x="1122" 
d="M117 1024h219v-408h393v408h217v-836h139v-428h-204v240h-152v428h-393v-428h-219v1024z" />
    <glyph glyph-name="uni04AA" unicode="&#x4aa;" horiz-adv-x="1202" 
d="M739 -10v-256h-223v258q-204 32 -311 190t-107 434v181q0 312 137 473.5t392 161.5q216 0 347.5 -116t166.5 -341h-230q-53 250 -284 250q-148 0 -219.5 -104t-71.5 -324v-181q0 -428 291 -428q120 0 187 60t97 190h228q-58 -392 -400 -448z" />
    <glyph glyph-name="uni04AB" unicode="&#x4ab;" horiz-adv-x="911" 
d="M631 -10v-230h-205v230q-165 26 -258.5 147t-93.5 307v140q0 221 119 339.5t339 118.5q250 0 357 -165l-168 -117q-65 92 -193 92q-237 0 -237 -279v-118q0 -285 237 -285q141 0 195 100l166 -114q-77 -142 -258 -166z" />
    <glyph glyph-name="uni04AE" unicode="&#x4ae;" horiz-adv-x="1169" 
d="M465 590l-440 823h276l283 -565l284 565h275l-441 -823v-590h-237v590z" />
    <glyph glyph-name="uni04AF" unicode="&#x4af;" horiz-adv-x="1032" 
d="M516 293l264 731h244l-395 -1014v-399h-217v399l-404 1014h242z" />
    <glyph glyph-name="uni04B0" unicode="&#x4b0;" horiz-adv-x="1169" 
d="M449 621l-424 792h276l283 -565l284 565h275l-424 -792h260v-205h-277v-416h-237v416h-272v205h256z" />
    <glyph glyph-name="uni04B1" unicode="&#x4b1;" horiz-adv-x="1032" 
d="M516 293l264 731h244l-399 -1024h215v-188h-215v-201h-209v201h-221v188h221l-408 1024h242z" />
    <glyph glyph-name="uni04B2" unicode="&#x4b2;" horiz-adv-x="1251" 
d="M588 514l-295 -514h-260l407 729l-364 684h260l252 -483l254 483h258l-367 -684l295 -524h195v-471h-224v266h-114z" />
    <glyph glyph-name="uni04B3" unicode="&#x4b3;" horiz-adv-x="1034" 
d="M1014 188v-428h-205v240h-80l-233 342l-234 -342h-246l353 524l-320 500h248l199 -324l200 324h246l-319 -500l227 -336h164z" />
    <glyph glyph-name="uni04B6" unicode="&#x4b6;" horiz-adv-x="1280" 
d="M55 1413h238v-407q0 -164 61.5 -229.5t216.5 -65.5q197 0 252 104v598h238v-1208h190v-471h-221v266h-207v580q-89 -74 -295 -74q-261 0 -367 115.5t-106 384.5v407z" />
    <glyph glyph-name="uni04B7" unicode="&#x4b7;" horiz-adv-x="1038" 
d="M76 1024h217v-274q0 -110 43.5 -155.5t138.5 -45.5q125 0 168 82v393h219v-836h139v-428h-206v240h-152v410q-65 -56 -203 -56q-184 0 -274 89t-90 286v295z" />
    <glyph glyph-name="uni04B8" unicode="&#x4b8;" horiz-adv-x="1239" 
d="M473 958h205v-239q126 21 168 96v598h237v-1413h-237v580q-57 -44 -168 -64v-235h-205v225q-232 12 -326 129q-92 118 -92 371v407h238v-407q0 -137 41 -203.5t139 -85.5v241z" />
    <glyph glyph-name="uni04B9" unicode="&#x4b9;" horiz-adv-x="1026" 
d="M76 1024h217v-274q0 -168 115 -195v219h172v-211q74 20 110 66v395h217v-1024h-217v410q-42 -26 -110 -41v-197h-172v182q-167 6 -249.5 96.5t-82.5 278.5v295z" />
    <glyph glyph-name="uni04BA" unicode="&#x4ba;" horiz-adv-x="1216" 
d="M1159 0h-237v541q0 164 -61.5 229.5t-215.5 65.5q-199 0 -252 -105v-731h-237v1413h237v-444q85 73 295 73q266 0 367 -116q104 -116 104 -383v-543z" />
    <glyph glyph-name="uni04BB" unicode="&#x4bb;" horiz-adv-x="1077" 
d="M336 0h-219v1413h219v-477q72 106 250 106q180 0 276 -100.5t96 -300.5v-641h-217v616q0 232 -194 232q-98 0 -154.5 -62.5t-56.5 -167.5v-618z" />
    <glyph glyph-name="uni04D8" unicode="&#x4d8;" horiz-adv-x="1234" 
d="M98 616v119h811v62q0 220 -71.5 324t-219.5 104q-232 0 -282 -250h-230q32 221 164.5 339t347.5 118q256 0 392.5 -163t136.5 -483v-170q0 -312 -137 -473t-392 -161q-253 0 -386.5 159.5t-133.5 474.5zM618 188q134 0 204 81.5t83 258.5h-575q21 -340 288 -340z" />
    <glyph glyph-name="uni04D9" unicode="&#x4d9;" horiz-adv-x="997" 
d="M272 754l-163 114q101 174 366 174q212 0 330.5 -123.5t118.5 -338.5v-140q0 -225 -106.5 -341.5t-309.5 -116.5q-414 0 -414 471v112h613v4q0 136 -56.5 210.5t-167.5 74.5q-84 0 -131 -22.5t-80 -77.5zM508 172q182 0 197 225h-392q12 -225 195 -225z" />
    <glyph glyph-name="uni04E2" unicode="&#x4e2;" horiz-adv-x="1366" 
d="M1008 1546h-650v193h650v-193zM156 0v1413h237v-964l625 964h194v-1413h-237v954l-623 -954h-196z" />
    <glyph glyph-name="uni04E3" unicode="&#x4e3;" horiz-adv-x="1093" 
d="M831 1198h-567v193h567v-193zM117 1024h219v-639l442 639h197v-1024h-217v657l-449 -657h-192v1024z" />
    <glyph glyph-name="uni04E8" unicode="&#x4e8;" horiz-adv-x="1255" 
d="M1157 797v-181q0 -312 -137.5 -473t-392.5 -161t-392 161t-137 473v181q0 312 137 473.5t392 161.5t392.5 -161.5t137.5 -473.5zM920 616v13h-584v-13q0 -220 71.5 -324t219.5 -104q149 0 221 104t72 324zM336 834h582q-12 391 -291 391t-291 -391z" />
    <glyph glyph-name="uni04E9" unicode="&#x4e9;" horiz-adv-x="1017" 
d="M944 578v-129q0 -222 -111.5 -344.5t-322.5 -122.5q-208 0 -322 123t-114 344v129q0 225 113 344.5t323 119.5t322 -119.5t112 -344.5zM510 170q102 0 157 67.5t60 190.5h-436q9 -258 219 -258zM725 616q-15 236 -215 236q-201 0 -219 -236h434z" />
    <glyph glyph-name="uni04EE" unicode="&#x4ee;" horiz-adv-x="1187" 
d="M633 631l297 782h246l-455 -1149q-65 -164 -164 -223q-103 -59 -299 -59v211q118 0 170 24q52 25 88 111l-483 1085h260zM942 1546h-649v193h649v-193z" />
    <glyph glyph-name="uni04EF" unicode="&#x4ef;" horiz-adv-x="968" 
d="M401 -12l-391 1036h232l260 -721l233 721h226l-361 -1065q-46 -139 -94 -209q-95 -139 -356 -139v201q115 0 165 34t86 142zM774 1198h-567v193h567v-193z" />
    <glyph glyph-name="uni10D0" unicode="&#x10d0;" horiz-adv-x="1028" 
d="M680 803q107 -81 160 -144q50 -60 68 -125t18 -172q0 -172 -104 -276t-310 -104q-214 0 -317 110t-103 311q0 45 10 123h209l-2 -90q0 -142 48.5 -205t154.5 -63q97 0 148 52t51 145q0 106 -29.5 163.5t-128.5 130.5q-96 72 -137 121q-43 48 -56.5 93t-13.5 124v29h217
v-29q0 -72 21.5 -106t95.5 -88z" />
    <glyph glyph-name="uni10D1" unicode="&#x10d1;" 
d="M92 494q0 207 100.5 325.5t303.5 128.5v86q0 36 -23 62.5t-82 66.5q-74 47 -105.5 87.5t-31.5 103.5v61h215v-43q0 -25 18.5 -44t69.5 -52q80 -47 117 -95t37 -124v-133q131 -43 195.5 -154t64.5 -276v-54q0 -219 -109 -338.5t-330 -119.5q-222 0 -331 119t-109 339v54z
M309 446q0 -278 223 -278q224 0 224 278v41q0 277 -224 277q-223 0 -223 -277v-41z" />
    <glyph glyph-name="uni10D2" unicode="&#x10d2;" horiz-adv-x="1095" 
d="M102 139q0 216 112.5 336.5t334.5 120.5q49 0 71.5 33.5t22.5 107.5q0 65 -27.5 93t-85.5 28q-57 0 -81.5 -30.5t-24.5 -102.5h-217q0 158 78 237.5t247 79.5q328 0 328 -286q0 -141 -86 -203q219 -107 219 -414v-84q0 -216 -111.5 -336t-332.5 -120q-222 0 -334.5 120
t-112.5 336v84zM319 63q0 -278 230 -278q229 0 229 278v72q0 277 -229 277q-230 0 -230 -277v-72z" />
    <glyph glyph-name="uni10D3" unicode="&#x10d3;" horiz-adv-x="1558" 
d="M1085 1042q202 0 297 -111t95 -327v-100q0 -438 -412 -438t-412 438v84q0 144 -36 206t-123 62t-125.5 -64t-38.5 -206v-230q0 -276 137 -413.5t438 -137.5h340v-186h-340q-397 0 -594.5 191.5t-197.5 537.5v244q0 224 83.5 337t268.5 113q225 0 291 -159
q43 80 123 119.5t206 39.5zM1260 598q0 135 -47 196.5t-148 61.5q-103 0 -150 -61t-47 -197v-86q0 -139 46.5 -199.5t150.5 -60.5q101 0 148 61t47 199v86z" />
    <glyph glyph-name="uni10D4" unicode="&#x10d4;" horiz-adv-x="1120" 
d="M549 1042q428 0 428 -434v-553q0 -220 -108.5 -338t-331.5 -118q-224 0 -334.5 118.5t-110.5 337.5q0 75 8 140h213q-2 -18 -2 -132q0 -278 226 -278q225 0 225 278v541q0 254 -213 254q-215 0 -215 -190v-70h-217v74q0 171 109 270.5t323 99.5z" />
    <glyph glyph-name="uni10D5" unicode="&#x10d5;" horiz-adv-x="1058" 
d="M735 387q109 -32 160 -120.5t51 -246.5q0 -203 -107.5 -312t-328.5 -109t-329.5 118.5t-108.5 337.5q0 57 8 109h211q-2 -18 -2 -101q0 -141 54.5 -209.5t166.5 -68.5q113 0 167 60t54 188q0 127 -57.5 187.5t-173.5 60.5h-51v186h51q211 0 211 197q0 104 -47 149
t-152 45q-201 0 -201 -190v-45h-215v49q0 174 103 272t313 98q208 0 311 -96.5t103 -263.5q0 -120 -47 -189.5t-144 -105.5z" />
    <glyph glyph-name="uni10D6" unicode="&#x10d6;" horiz-adv-x="1361" 
d="M819 950q220 0 330.5 -120t110.5 -336v-54q0 -219 -109.5 -338.5t-331.5 -119.5q-221 0 -329.5 119.5t-108.5 338.5v19q0 125 51 256q-10 -2 -39 -2q-175 0 -258.5 87t-83.5 261v22q0 168 86.5 258.5t255.5 90.5q170 0 257 -90.5t87 -258.5v-14q0 -60 -16 -129
q68 10 98 10zM393 891q39 0 107 10q28 98 28 176v8q0 90 -33 129t-102 39q-68 0 -101.5 -39.5t-33.5 -128.5v-26q0 -168 135 -168zM1042 487q0 277 -223 277q-62 0 -170 -27q-53 -148 -53 -280v-11q0 -278 223 -278t223 278v41z" />
    <glyph glyph-name="uni10D7" unicode="&#x10d7;" horiz-adv-x="1615" 
d="M92 586q0 456 412 456q123 0 207 -44.5t123 -127.5q76 172 315 172q208 0 291.5 -109.5t83.5 -340.5v-92q0 -280 -37 -500h-211q33 299 33 508v78q0 150 -39.5 210t-143.5 60t-143 -62.5t-39 -213.5v-140q0 -456 -426 -456t-426 456v146zM309 446q0 -142 50 -209t159 -67
t159 67t50 209v134q0 142 -50 209t-159 67t-159 -67t-50 -209v-134z" />
    <glyph glyph-name="uni10D8" unicode="&#x10d8;" horiz-adv-x="1034" 
d="M518 1042q424 0 424 -456v-86q0 -212 -31 -500h-209q25 336 25 508v72q0 142 -50 209t-159 67t-159 -67t-50 -209v-72q0 -172 25 -508h-209q-33 286 -33 500v86q0 456 426 456z" />
    <glyph glyph-name="uni10D9" unicode="&#x10d9;" horiz-adv-x="1017" 
d="M696 467q112 -31 171 -134.5t59 -269.5q0 -223 -108 -343.5t-329 -120.5t-329.5 118.5t-108.5 337.5q0 57 8 109h211l-2 -101q0 -141 54.5 -209.5t166.5 -68.5t167 71.5t55 217.5q0 288 -252 288h-72v185h72q190 0 190 198v281h217v-254q0 -124 -43 -196t-127 -109z" />
    <glyph glyph-name="uni10DA" unicode="&#x10da;" horiz-adv-x="2027" 
d="M1581 1042q186 0 270 -109.5t84 -328.5q0 -153 -26 -393h-209q18 205 18 387q0 142 -33.5 200t-119.5 58t-122 -59t-36 -199v-301h-215v301q0 142 -36 200t-126 58t-126 -58t-36 -200v-301h-217v291q0 145 -34 206.5t-119 61.5q-88 0 -123 -59t-35 -211v-232
q0 -280 140.5 -414.5t439.5 -134.5h700v-186h-700q-396 0 -596.5 188.5t-200.5 542.5v242q0 229 83.5 339.5t274.5 110.5q114 0 181 -39t98 -120q58 159 270 159q210 0 268 -159q62 159 283 159z" />
    <glyph glyph-name="uni10DB" unicode="&#x10db;" horiz-adv-x="1132" 
d="M563 1432q426 0 426 -418v-574q0 -219 -108.5 -338.5t-329.5 -119.5t-329.5 119.5t-108.5 338.5v66q0 207 102.5 325.5t296.5 118.5q172 0 260 -102v162q0 127 -49.5 181t-165.5 54q-101 0 -152 -39t-51 -110h-217q0 155 106.5 245.5t319.5 90.5zM772 489
q0 134 -60 204.5t-171 70.5q-211 0 -211 -266v-52q0 -278 221 -278t221 278v43z" />
    <glyph glyph-name="uni10DC" unicode="&#x10dc;" horiz-adv-x="1130" 
d="M621 950q194 0 295.5 -118.5t101.5 -325.5v-66q0 -220 -108 -339t-328 -119q-221 0 -330 119.5t-109 338.5v600q0 131 35 215q34 81 119 120.5t235 39.5h414v-186h-414q-102 0 -137 -38.5t-35 -150.5v-192q82 102 261 102zM803 498q0 130 -54.5 198t-158.5 68
q-111 0 -170.5 -71t-59.5 -204v-43q0 -278 222 -278q221 0 221 278v52z" />
    <glyph glyph-name="uni10DD" unicode="&#x10dd;" horiz-adv-x="1617" 
d="M1135 1042q209 0 300 -111.5t91 -338.5v-92q0 -264 -39 -500h-209q31 298 31 508v78q0 144 -44.5 207t-152.5 63q-105 0 -149.5 -64.5t-44.5 -211.5v-338h-218v338q0 147 -44.5 211.5t-149.5 64.5q-108 0 -152.5 -63t-44.5 -207v-78q0 -210 31 -508h-209q-39 236 -39 500
v92q0 227 91 338.5t300 111.5q247 0 326 -172q79 172 326 172z" />
    <glyph glyph-name="uni10DE" unicode="&#x10de;" horiz-adv-x="1089" 
d="M737 739q110 -33 159.5 -114.5t49.5 -233.5q0 -192 -109.5 -300.5t-326.5 -108.5q-221 0 -329.5 119.5t-108.5 338.5q0 17 8 109h211l-2 -103q0 -278 221 -278t221 235q0 230 -231 230h-66v186h68q104 0 148 34t44 110q0 37 -8.5 60.5t-33 40.5t-50.5 27t-80 25
q-123 37 -172 66q-57 31 -79.5 74.5t-22.5 121.5v37h215v-18q0 -48 29.5 -68.5t113.5 -44.5q135 -43 191 -76q63 -37 88.5 -89t25.5 -140q0 -98 -41.5 -154.5t-132.5 -85.5z" />
    <glyph glyph-name="uni10DF" unicode="&#x10df;" horiz-adv-x="1112" 
d="M969 55q0 -219 -109 -337.5t-330 -118.5t-329.5 118.5t-108.5 337.5q0 51 8 103h213l-4 -95q0 -141 54.5 -209.5t166.5 -68.5q113 0 167.5 68.5t54.5 209.5v789l-187 -72q35 -84 35 -176q0 -123 -63.5 -188.5t-190.5 -65.5q-254 0 -254 264v91h191v-80q0 -101 63 -101
q66 0 66 101q0 121 -72 254l420 163h209v-987z" />
    <glyph glyph-name="uni10E0" unicode="&#x10e0;" horiz-adv-x="1646" 
d="M123 621q0 267 78 446q79 174 270 261t514 87h385v-186h-385q-290 0 -441.5 -83.5t-193.5 -256.5q67 61 195 61q222 0 295 -172q80 172 325 172q209 0 299 -110.5t90 -337.5v-39q0 -233 -36 -463h-211q32 250 32 496q-2 143 -46.5 205.5t-149.5 62.5t-150 -65t-45 -212
v-247h-217v247q0 147 -44.5 212t-149.5 65q-107 0 -152 -62.5t-45 -205.5q0 -166 31 -496h-209q-39 239 -39 483v138z" />
    <glyph glyph-name="uni10E1" unicode="&#x10e1;" horiz-adv-x="1077" 
d="M791 487q0 72 -33 170q-41 125 -41 217v52h217v-52q0 -61 33 -169q22 -80 30.5 -123t8.5 -95v-47q0 -219 -108 -338.5t-323 -119.5t-323.5 119.5t-108.5 338.5v975h217v-969q0 -278 215 -278q216 0 216 278v41z" />
    <glyph glyph-name="uni10E2" unicode="&#x10e2;" horiz-adv-x="1306" 
d="M360 1024v-971q0 -132 81 -200t227 -68t228.5 68t82.5 200v74q0 130 -61 188t-181 58h-20v-168h-207v522q0 156 72.5 235.5t238.5 79.5t242 -80.5t76 -234.5q0 -91 -35 -157t-107 -91q197 -83 197 -348v-86q0 -206 -138.5 -326t-387.5 -120t-387 120t-138 326v979h217z
M825 555q54 0 76.5 40.5t22.5 121.5q0 141 -107 141q-54 0 -77 -32t-23 -107v-164h108z" />
    <glyph glyph-name="uni10E3" unicode="&#x10e3;" horiz-adv-x="1159" 
d="M707 1042q163 0 236 -85.5t73 -256.5v-645q0 -219 -112.5 -337.5t-340.5 -118.5q-227 0 -336.5 118t-109.5 338q0 75 8 140h211q-4 -70 -4 -132q0 -278 231 -278q229 0 238 278v627q0 87 -28.5 126.5t-96.5 39.5q-65 0 -95 -42.5t-30 -129.5v-219h-217v219q0 100 -9 127
q-17 48 -81 45l-60 -2q-11 -1 -33 -2t-30 -2q-33 0 -60 6v186q17 -7 54 -4l61 2q33 0 60 2q93 4 139.5 -38.5t66.5 -133.5q23 80 94 126t171 46z" />
    <glyph glyph-name="uni10E4" unicode="&#x10e4;" horiz-adv-x="1476" 
d="M1176 383q208 -58 208 -352q0 -208 -134.5 -320t-391.5 -112q-262 0 -392 112.5t-130 329.5q0 25 2 33h215v-29q0 -260 305 -260q146 0 228.5 64.5t82.5 189.5q0 122 -56 181t-169 59h-26v184h26q225 0 225 196q0 101 -39 149t-126 48q-88 0 -126 -52t-38 -169v-53
q0 -195 -101 -303.5t-293 -108.5q-194 0 -294.5 104.5t-100.5 298.5v66q0 192 98 297.5t283 105.5q116 0 187.5 -38.5t113.5 -118.5q71 157 295 157q356 0 356 -358q0 -231 -208 -301zM623 633q0 120 -42.5 171.5t-134.5 51.5t-135 -51.5t-43 -171.5v-51q0 -120 43 -173
t135 -53q90 0 133.5 53.5t43.5 172.5v51z" />
    <glyph glyph-name="uni10E5" unicode="&#x10e5;" horiz-adv-x="1130" 
d="M987 55q0 -219 -107.5 -337.5t-328.5 -118.5t-329.5 118.5t-108.5 337.5q0 75 8 140h211q-2 -18 -2 -132q0 -141 54.5 -209.5t166.5 -68.5t166.5 68.5t54.5 209.5v533q-1 128 -59.5 194t-167.5 66q-101 0 -147 -56t-46 -173v-17h-217v25q0 194 94.5 300.5t286.5 106.5
q169 0 256 -100v471h215v-1358z" />
    <glyph glyph-name="uni10E6" unicode="&#x10e6;" horiz-adv-x="1576" 
d="M340 356q0 -278 137 -414.5t438 -136.5h340v-186h-340q-397 0 -594.5 191.5t-197.5 537.5v244q0 224 88 337t285 113q231 0 309 -172q39 86 113.5 129t195.5 43q197 0 284 -113t87 -337q0 -44 -0.5 -72t-3 -67t-3.5 -55t-7 -83t-9 -104h-211q19 198 19 375
q0 144 -40.5 207t-137.5 63t-138 -64t-41 -212v-283h-217v283q0 148 -40.5 212t-137.5 64t-137.5 -63t-40.5 -207v-230z" />
    <glyph glyph-name="uni10E7" unicode="&#x10e7;" horiz-adv-x="1161" 
d="M997 55q0 -219 -108.5 -337.5t-329.5 -118.5q-216 0 -326 112t-110 305q0 27 2 37t2 21h213v-11q-2 -4 -2 -18q0 -128 56.5 -195t164.5 -67q223 0 223 278v254q-87 -100 -262 -100q-197 0 -297 116.5t-100 325.5q0 130 29 367h208q-22 -248 -22 -365q0 -127 54 -192.5
t159 -65.5q111 0 171 70t60 203v350h215v-969z" />
    <glyph glyph-name="uni10E8" unicode="&#x10e8;" horiz-adv-x="1130" 
d="M688 1430q159 0 229 -86t70 -259v-645q0 -220 -108 -339t-328 -119q-221 0 -329.5 119.5t-108.5 338.5v66q0 207 102.5 325.5t296.5 118.5q172 0 260 -102v227q0 91 -24.5 129.5t-88.5 38.5t-88 -41t-24 -133v-18h-215v18q0 95 -23.5 134.5t-89.5 39.5q-51 0 -100 -18
v190q49 15 96 15q184 0 225 -173q21 81 85.5 127t162.5 46zM772 489q0 134 -60 204.5t-171 70.5q-211 0 -211 -266v-52q0 -278 221 -278t221 278v43z" />
    <glyph glyph-name="uni10E9" unicode="&#x10e9;" horiz-adv-x="1132" 
d="M143 973q0 457 426 457q207 0 311.5 -99t104.5 -256q0 -176 -119 -289q154 -114 154 -370q0 -142 -35 -416h-209q27 285 27 414q0 256 -211 256q-111 0 -171.5 -70t-60.5 -203v-397h-217v973zM360 756q87 100 261 100q43 0 84 -6q63 78 63 197q0 196 -199 196
q-109 0 -159 -67t-50 -211v-209z" />
    <glyph glyph-name="uni10EA" unicode="&#x10ea;" horiz-adv-x="1112" 
d="M360 1024v-961q0 -141 54.5 -209.5t167.5 -68.5q221 0 221 258v66q0 111 -56.5 173t-154.5 62h-17v186h19q88 0 130 38t42 118q0 58 -41 135q-27 46 -38 81.5t-11 86.5v35h217v-18q0 -62 39 -129q27 -47 39 -87t12 -102q0 -182 -174 -237q109 -32 160 -117t51 -238v-59
q0 -206 -110 -322t-328 -116q-221 0 -330 118.5t-109 337.5v969h217z" />
    <glyph glyph-name="uni10EB" unicode="&#x10eb;" horiz-adv-x="1130" 
d="M113 506q0 207 102.5 325.5t296.5 118.5q172 0 260 -102v565h215v-973q0 -220 -108 -339t-328 -119q-221 0 -329.5 119.5t-108.5 338.5v66zM330 446q0 -278 221 -278t221 278v43q0 134 -60 204.5t-171 70.5q-211 0 -211 -266v-52z" />
    <glyph glyph-name="uni10EC" unicode="&#x10ec;" horiz-adv-x="1130" 
d="M143 1085q0 173 70.5 259t230.5 86q98 0 164 -46t90 -127q19 87 72 130t148 43q46 0 96 -15v-190q-50 18 -101 18q-65 0 -86.5 -38.5t-21.5 -135.5v-18h-215v18q0 90 -26.5 132t-88.5 42q-64 0 -89.5 -39.5t-25.5 -128.5v-227q88 102 261 102q194 0 295.5 -118.5
t101.5 -325.5v-66q0 -220 -108 -339t-328 -119q-221 0 -330 119.5t-109 338.5v645zM360 446q0 -278 222 -278q221 0 221 278v52q0 266 -213 266q-111 0 -170.5 -71t-59.5 -204v-43z" />
    <glyph glyph-name="uni10ED" unicode="&#x10ed;" horiz-adv-x="1058" 
d="M731 535q0 -56 17.5 -90t66.5 -72q79 -66 115.5 -140t36.5 -182v-39q0 -190 -111 -301.5t-326 -111.5q-221 0 -329.5 118.5t-108.5 337.5q0 75 8 140h211q-2 -18 -2 -132q0 -141 54.5 -209.5t166.5 -68.5q109 0 165.5 60.5t56.5 172.5v33q0 129 -113 211q-66 53 -94.5 96
t-28.5 97v6q-53 -66 -149 -66q-126 0 -200.5 77.5t-74.5 215.5q0 143 89.5 221t254.5 78h80v426h215v-426h182v-182h-182v-270zM403 573q86 0 113 84v154h-55q-80 0 -119 -28.5t-39 -94.5q0 -58 28 -86.5t72 -28.5z" />
    <glyph glyph-name="uni10EE" unicode="&#x10ee;" horiz-adv-x="1130" 
d="M621 950q194 0 295.5 -118.5t101.5 -325.5v-66q0 -220 -108 -339t-328 -119q-221 0 -330 119.5t-109 338.5v973h217v-565q88 102 261 102zM360 446q0 -278 222 -278q221 0 221 278v52q0 266 -213 266q-111 0 -170.5 -71t-59.5 -204v-43z" />
    <glyph glyph-name="uni10EF" unicode="&#x10ef;" horiz-adv-x="1058" 
d="M633 510q334 -49 334 -424v-55q0 -207 -108.5 -319.5t-328.5 -112.5q-221 0 -329.5 118.5t-108.5 337.5q0 69 8 121h211q-2 -18 -2 -113q0 -141 54.5 -209.5t166.5 -68.5q222 0 222 252v47q0 248 -217 248h-117v309h-287v170h287v213h215v-213h301v-170h-301v-131z" />
    <glyph glyph-name="uni10F0" unicode="&#x10f0;" horiz-adv-x="1112" 
d="M770 539q96 -19 147.5 -80t51.5 -154q0 -152 -108 -237.5t-318 -85.5q-228 0 -339.5 119t-111.5 339q0 17 8 109h213q-4 -70 -4 -113q0 -136 58 -202t180 -66q99 0 152 37.5t53 105.5q0 70 -42.5 101.5t-129.5 31.5h-99v187h105q77 0 112 20.5t35 69.5q0 47 -35.5 67.5
t-111.5 20.5h-105v186h103q68 0 94 11q22 9 22 34q0 13 -11 25t-31 23t-38 19t-42.5 17.5t-34.5 14.5q-126 54 -162 78q-55 30 -77.5 67.5t-22.5 95.5v35h217v-16q0 -27 34 -51q40 -28 117 -60q93 -38 170 -78q52 -30 75.5 -65.5t23.5 -91.5q0 -60 -38 -99t-110 -51
q180 -27 180 -182t-180 -182z" />
    <glyph glyph-name="uni1C90" unicode="&#x1c90;" horiz-adv-x="1165" 
d="M1073 428q0 -128 -55 -229q-58 -102 -170 -159.5t-264 -57.5q-235 0 -363.5 123.5t-128.5 334.5q0 124 14 236h228l-2 -51q-4 -132 -4 -179q0 -137 64.5 -197.5t191.5 -60.5q121 0 187.5 58t66.5 178v84q0 104 -15 168q-15 63 -53 113t-115 112q-128 104 -186 180
q-55 71 -70.5 130t-15.5 171v31h235v-31q0 -66 11 -116q9 -44 44.5 -90.5t112.5 -110.5q129 -110 183 -182q60 -79 82 -163t22 -212v-80z" />
    <glyph glyph-name="uni1C91" unicode="&#x1c91;" horiz-adv-x="1247" 
d="M92 510q0 132 62 238q62 105 177 166t267 65v65q0 35 -26.5 54.5t-98.5 46.5q-46 17 -73.5 31t-56.5 36.5t-42.5 54t-13.5 72.5v74h225v-47q0 -28 27 -43q36 -20 82 -35q50 -18 82 -33.5t63 -40.5t46 -60.5t15 -82.5v-121q154 -47 241 -163.5t87 -276.5v-55
q0 -139 -63 -244q-65 -108 -187 -168.5t-282 -60.5q-162 0 -281 61q-120 60 -185 167.5t-65 244.5v55zM328 457q0 -132 80 -200.5t215 -68.5q136 0 216.5 68.5t80.5 200.5v51q0 132 -80.5 200t-216.5 68q-134 0 -214.5 -68t-80.5 -200v-51z" />
    <glyph glyph-name="uni1C92" unicode="&#x1c92;" horiz-adv-x="1267" 
d="M102 510q0 133 66 244q65 107 186.5 167t280.5 60q133 0 133 129q0 117 -152 117q-149 0 -149 -117h-236q0 322 385 322q193 0 290.5 -77.5t97.5 -221.5q0 -138 -103 -205q125 -57 194.5 -167t69.5 -251v-55q0 -139 -63 -244q-65 -108 -186 -168.5t-281 -60.5
q-164 0 -283 61q-121 60 -185.5 167.5t-64.5 244.5v55zM340 457q0 -132 80 -200.5t215 -68.5t215 68.5t80 200.5v51q0 132 -80 200t-215 68t-215 -68t-80 -200v-51z" />
    <glyph glyph-name="uni1C93" unicode="&#x1c93;" horiz-adv-x="1843" 
d="M123 981q0 206 108.5 328.5t321.5 122.5q249 0 340 -183q48 88 142.5 135.5t228.5 47.5q233 0 355 -121.5t122 -329.5v-74q0 -210 -122 -330t-362 -120q-241 0 -362 119.5t-121 330.5l2 70q0 115 -52 182.5t-157 67.5q-106 0 -157.5 -66.5t-51.5 -183.5v-256
q0 -255 163.5 -385.5t447.5 -130.5h497v-205h-497q-242 0 -434 80q-195 80 -303.5 242t-108.5 395v264zM1012 911q0 -249 245 -249q124 0 186 65t62 184v66q0 119 -62 184.5t-186 65.5t-184.5 -65.5t-60.5 -184.5v-66z" />
    <glyph glyph-name="uni1C94" unicode="&#x1c94;" horiz-adv-x="1294" 
d="M92 465q0 25 6 92h230v-90q0 -138 78 -208.5t217 -70.5q137 0 214.5 70.5t77.5 208.5v479q0 138 -74.5 209.5t-207.5 71.5q-137 0 -210 -55.5t-73 -149.5v-21h-237v23q0 107 55 201q58 96 176 151.5t289 55.5q162 0 280 -62q116 -63 177 -171.5t61 -248.5v-485
q0 -141 -61 -248q-64 -112 -184 -173.5t-283 -61.5q-168 0 -285 63q-119 61 -182.5 170.5t-63.5 249.5z" />
    <glyph glyph-name="uni1C95" unicode="&#x1c95;" horiz-adv-x="1294" 
d="M92 465q0 25 6 92h230v-90q0 -138 78 -208.5t217 -70.5q137 0 214.5 59t77.5 175q0 233 -286 233h-86v205h86q141 0 204.5 38t63.5 142q0 91 -71 139t-201 48q-137 0 -207 -55.5t-70 -149.5v-21h-235v23q0 106 53 201q55 96 171.5 151.5t287.5 55.5q163 0 278 -50
q114 -50 172 -135.5t58 -197.5q0 -227 -236 -285q254 -64 254 -348q0 -200 -140 -317t-388 -117q-168 0 -285 63q-119 61 -182.5 170.5t-63.5 249.5z" />
    <glyph glyph-name="uni1C96" unicode="&#x1c96;" horiz-adv-x="1544" 
d="M936 932q159 0 276 -60q113 -59 171.5 -162t58.5 -235v-37q0 -130 -58 -231q-60 -106 -175 -165.5t-273 -59.5q-159 0 -274 59q-113 59 -172.5 161.5t-59.5 231.5v21q0 111 47 235q-8 -2 -31 -2q-189 0 -292 95.5t-103 263.5v26q0 166 103.5 262.5t291.5 96.5
q189 0 292.5 -95.5t103.5 -261.5v-26q0 -49 -19 -127q78 10 113 10zM612 1069q0 166 -166 166q-167 0 -167 -168v-14q0 -168 167 -168q54 0 129 10q37 81 37 158v16zM1206 473q0 122 -72 187t-198 65q-81 0 -209 -23q-59 -127 -59 -249v-17q0 -120 72 -184t196 -64
q126 0 198 65t72 187v33z" />
    <glyph glyph-name="uni1C97" unicode="&#x1c97;" horiz-adv-x="1908" 
d="M1376 1432q225 0 333 -131.5t108 -364.5v-248q0 -260 -27 -688h-225q16 384 16 692v244q0 149 -56 220t-177 71t-177.5 -71t-56.5 -220v-461q0 -142 -57 -250q-60 -115 -176 -179t-277 -64q-163 0 -278 65t-174.5 175.5t-59.5 252.5v465q0 137 58 250t173 177.5t271 64.5
q286 0 397 -203q102 203 385 203zM879 936q0 141 -72.5 216t-202.5 75q-132 0 -204 -75t-72 -216v-459q0 -140 72 -214.5t204 -74.5q130 0 202.5 74.5t72.5 214.5v459z" />
    <glyph glyph-name="uni1C98" unicode="&#x1c98;" horiz-adv-x="1206" 
d="M602 1432q246 0 379 -130.5t133 -351.5v-262q0 -322 -20 -688h-228q13 375 13 692v254q0 281 -277 281q-274 0 -274 -281v-254q0 -346 12 -692h-227q-21 384 -21 688v262q0 221 132.5 351.5t377.5 130.5z" />
    <glyph glyph-name="uni1C99" unicode="&#x1c99;" horiz-adv-x="1294" 
d="M887 897q117 -32 185.5 -145.5t68.5 -272.5q0 -497 -531 -497q-167 0 -284 63q-118 61 -181 170.5t-63 249.5q0 25 6 92h229v-90q0 -138 78 -208.5t215 -70.5q148 0 221.5 68t73.5 229q0 151 -76.5 227t-210.5 76h-131v207h131q224 0 224 246v172h235v-164
q0 -141 -49 -232t-141 -120z" />
    <glyph glyph-name="uni1C9A" unicode="&#x1c9a;" horiz-adv-x="2381" 
d="M1843 1432q219 0 327.5 -120.5t108.5 -330.5q0 -183 -30 -377h-230q25 220 25 373q0 250 -207 250q-201 0 -201 -250v-279h-235v279q0 250 -199 250q-201 0 -201 -250v-279h-235v279q0 250 -199 250q-209 0 -209 -250v-236q0 -536 652 -536h897v-205h-897
q-423 0 -655 187.5t-232 551.5v242q0 209 109.5 330t328.5 121q229 0 318 -156q89 156 323 156q230 0 322 -160q89 160 319 160z" />
    <glyph glyph-name="uni1C9B" unicode="&#x1c9b;" horiz-adv-x="1290" 
d="M1147 455q0 -139 -64 -246t-183.5 -167t-278.5 -60q-162 0 -281 61q-120 60 -184 166.5t-64 245.5v41q0 134 58 235q58 104 165.5 160.5t253.5 56.5q116 0 205 -35t135 -94v144q0 132 -75 198t-207 66q-283 0 -283 -207h-235q0 193 134.5 302.5t383.5 109.5
q168 0 284 -64q115 -62 174.5 -167.5t59.5 -237.5zM911 492q0 120 -82.5 185.5t-226.5 65.5q-129 0 -201.5 -62t-72.5 -189v-35q0 -135 78.5 -202t214.5 -67t213 67t77 202v35z" />
    <glyph glyph-name="uni1C9C" unicode="&#x1c9c;" horiz-adv-x="1290" 
d="M721 948q151 0 256 -57q107 -57 164 -159t57 -236v-41q0 -141 -63 -246q-64 -107 -184 -167t-279 -60q-162 0 -281 61q-120 60 -184 166.5t-64 245.5v569q0 142 41 229q41 84 131.5 122t245.5 38h565v-205h-563q-114 0 -149 -36.5t-35 -159.5v-193q49 59 138 94t204 35z
M963 492q0 127 -72 189t-201 62q-147 0 -229 -65t-82 -186v-35q0 -135 78.5 -202t214.5 -67t213.5 67t77.5 202v35z" />
    <glyph glyph-name="uni1C9D" unicode="&#x1c9d;" horiz-adv-x="1910" 
d="M1358 1432q234 0 347.5 -126.5t113.5 -355.5v-262q0 -304 -21 -688h-227q12 346 12 692v250q0 285 -254 285t-254 -285v-610h-237v610q0 285 -254 285t-254 -285v-250q0 -265 10 -692h-227q-21 384 -21 688v262q0 229 114 355.5t347 126.5q299 0 403 -207
q48 100 150 153.5t252 53.5z" />
    <glyph glyph-name="uni1C9E" unicode="&#x1c9e;" horiz-adv-x="1273" 
d="M866 745q128 -36 191 -118.5t63 -225.5q0 -193 -138 -306t-390 -113q-168 0 -285 63q-119 61 -182.5 170.5t-63.5 249.5q0 13 7 92h231v-90q0 -138 77.5 -208.5t215.5 -70.5q141 0 217 55.5t76 164.5q0 120 -73 174.5t-214 54.5h-100v205h100q132 0 193 22q57 20 57 90
q0 24 -10 42.5t-27 32t-45 25t-56.5 20.5t-69.5 21q-7 2 -11 3t-10 3t-11 3q-148 43 -205 70q-68 31 -96 77.5t-28 130.5v31h235v-27q0 -32 31 -47q37 -20 110 -39l43 -12q165 -48 242 -86q80 -42 111.5 -94.5t31.5 -138.5q0 -88 -55 -147t-162 -77z" />
    <glyph glyph-name="uni1C9F" unicode="&#x1c9f;" horiz-adv-x="1294" 
d="M1151 465q0 -141 -61 -248q-64 -112 -184 -173.5t-283 -61.5q-168 0 -285 63q-119 61 -182.5 170.5t-63.5 249.5q0 25 6 92h230v-90q0 -138 78 -208.5t217 -70.5q137 0 214.5 70.5t77.5 208.5v768l-241 -66q26 -68 26 -165q0 -125 -76.5 -197t-224.5 -72
q-151 0 -229 73.5t-78 205.5v100h219v-88q0 -45 23 -71.5t65 -26.5q82 0 82 98q0 124 -75 270l499 136h246v-967z" />
    <glyph glyph-name="uni1CA0" unicode="&#x1ca0;" horiz-adv-x="1925" 
d="M123 625q0 263 92 436q94 174 324.5 263t621.5 89h481v-205h-481q-375 0 -573 -91t-240 -271q95 86 262 86q139 0 227.5 -52t141.5 -155q100 207 397 207q234 0 345.5 -125t111.5 -356v-27q0 -163 -41 -424h-227q30 276 30 428v16q0 283 -249 283q-250 0 -250 -283v-211
h-236v211q0 283 -250 283t-250 -283v-16q0 -168 31 -428h-227q-41 238 -41 424v201z" />
    <glyph glyph-name="uni1CA1" unicode="&#x1ca1;" horiz-adv-x="1259" 
d="M963 485q0 66 -39 185q-41 128 -41 207v30h235v-30q0 -58 35 -162q45 -140 45 -228v-32q0 -141 -63 -246q-64 -107 -184 -167t-279 -60q-162 0 -281 61q-120 60 -184 166.5t-64 245.5v958h236v-956q0 -135 78.5 -202t214.5 -67t213.5 67t77.5 202v28z" />
    <glyph glyph-name="uni1CA2" unicode="&#x1ca2;" horiz-adv-x="1507" 
d="M381 1413v-936q0 -152 96.5 -220.5t300.5 -68.5q203 0 302.5 67t99.5 208v31q0 132 -83 194t-235 57h-39v-163h-235v526q0 160 88 242t289 82q202 0 292.5 -82t90.5 -238q0 -94 -41.5 -161.5t-130.5 -92.5q239 -88 239 -360v-41q0 -224 -162.5 -349.5t-474.5 -125.5
q-314 0 -474.5 128t-160.5 361v942h238zM969 950q143 0 143 150q0 127 -145 127q-74 0 -109 -30t-35 -103v-144h146z" />
    <glyph glyph-name="uni1CA3" unicode="&#x1ca3;" horiz-adv-x="1294" 
d="M786 1432q148 0 230 -54q76 -52 105.5 -137.5t29.5 -222.5v-553q0 -141 -61 -248q-64 -112 -184.5 -173.5t-284.5 -61.5q-168 0 -285 63q-118 61 -181 170.5t-63 249.5q0 25 6 92h230v-90q0 -138 78 -208.5t215 -70.5q138 0 216 70.5t78 208.5v537q0 123 -34 173t-121 50
q-84 0 -121 -49t-37 -150v-188h-235v198q0 112 -23.5 153.5t-93.5 41.5l-64 -2q-62 -4 -67 -4q-33 0 -68 6v194q24 -4 64 -4l73 2q16 2 66 2q103 0 159 -36.5t83 -114.5q68 156 290 156z" />
    <glyph glyph-name="uni1CA4" unicode="&#x1ca4;" horiz-adv-x="1748" 
d="M1403 766q129 -32 191.5 -118t62.5 -232q0 -209 -163 -321.5t-476 -112.5q-631 0 -631 456l2 33h236v-29q0 -133 98 -193.5t295 -60.5q403 0 403 238q0 119 -71.5 171t-223.5 52h-43v205h45q293 0 293 188q0 185 -211 185q-221 0 -221 -211v-19q0 -195 -122.5 -308.5
t-346.5 -113.5q-226 0 -347.5 110t-121.5 304v31q0 193 121 302.5t344 109.5q144 0 231 -40.5t136 -121.5q92 162 352 162q420 0 420 -365q0 -233 -252 -301zM754 1012q0 107 -61 161t-173 54q-233 0 -233 -215v-15q0 -215 233 -215q234 0 234 215v15z" />
    <glyph glyph-name="uni1CA5" unicode="&#x1ca5;" horiz-adv-x="1294" 
d="M1151 465q0 -141 -61 -248q-64 -112 -184 -173.5t-283 -61.5q-168 0 -285 63q-119 61 -182.5 170.5t-63.5 249.5q0 25 6 92h232v-90q0 -138 77.5 -208.5t215.5 -70.5q137 0 214.5 70.5t77.5 208.5v354q0 139 -85.5 217t-225.5 78q-124 0 -187 -50.5t-63 -164.5v-24h-235
v26q0 198 117.5 308t332.5 110q110 0 205.5 -36t140.5 -91v219h236v-948z" />
    <glyph glyph-name="uni1CA6" unicode="&#x1ca6;" horiz-adv-x="1843" 
d="M1298 1432q224 0 333.5 -125.5t109.5 -348.5q0 -121 -19 -354h-229q10 225 10 346q0 139 -52 208t-175 69q-121 0 -173 -69t-52 -208v-252h-238v252q0 277 -227 277q-228 0 -228 -277v-229q0 -255 162.5 -384.5t448.5 -129.5h497v-207h-497q-242 0 -434 80
q-195 80 -303.5 242t-108.5 395v241q0 221 108 347.5t332 126.5q272 0 367 -197q96 197 368 197z" />
    <glyph glyph-name="uni1CA7" unicode="&#x1ca7;" horiz-adv-x="1294" 
d="M1151 463q0 -141 -61 -248q-64 -112 -184.5 -173.5t-284.5 -61.5t-281 63q-118 61 -183 162.5t-65 220.5l2 43h234v-27q0 -121 80 -188.5t213 -67.5q138 0 216 70.5t78 208.5v274q-45 -59 -134 -93t-208 -34q-143 0 -254 60q-108 59 -165.5 161.5t-57.5 237.5
q0 154 31 340h229q-24 -193 -24 -338q0 -130 71.5 -193t200.5 -63q148 0 229.5 65.5t81.5 184.5v344h236v-948z" />
    <glyph glyph-name="uni1CA8" unicode="&#x1ca8;" horiz-adv-x="1290" 
d="M1147 453q0 -137 -64 -244t-183.5 -167t-278.5 -60q-162 0 -281 61q-120 60 -184 166.5t-64 243.5v41q0 134 58 235q58 104 165.5 160.5t253.5 56.5q116 0 205.5 -34.5t134.5 -92.5v232q0 88 -33.5 131t-105.5 43q-68 0 -104.5 -38t-36.5 -106v-18h-236v18q0 82 -32 117
t-107 35q-58 0 -131 -21v199q78 19 143 19q102 0 160 -41.5t84 -122.5q64 164 276 164q196 0 278.5 -96.5t82.5 -293.5v-587zM911 492q0 118 -82.5 183.5t-226.5 65.5q-129 0 -201.5 -62t-72.5 -187v-35q0 -135 78.5 -203t214.5 -68q134 0 212 68t78 203v35z" />
    <glyph glyph-name="uni1CA9" unicode="&#x1ca9;" horiz-adv-x="1290" 
d="M143 948q0 229 132 355.5t380 126.5q253 0 381.5 -97t128.5 -278q0 -167 -125 -285q76 -62 117 -154t41 -204q0 -177 -37 -414h-229q31 279 31 410q0 130 -73 194t-202 64q-147 0 -228 -65.5t-81 -186.5v-414h-236v948zM379 741q45 59 135.5 94t206.5 35q88 0 149 -20
q60 78 60 184q0 101 -69.5 146t-205.5 45q-276 0 -276 -279v-205z" />
    <glyph glyph-name="uni1CAA" unicode="&#x1caa;" horiz-adv-x="1294" 
d="M948 815q254 -70 254 -338v-37q0 -125 -61 -229q-63 -107 -184 -168t-285 -61q-166 0 -283 63q-119 61 -182.5 169.5t-63.5 248.5v950h236v-946q0 -138 78 -209.5t215 -71.5t216 68t79 186v43q0 116 -67.5 172t-192.5 56h-39v204h39q114 0 167.5 33.5t53.5 110.5
q0 40 -11 69t-43 80q-31 47 -44 83t-13 83v39h236v-33q0 -28 9 -49t34 -59q37 -62 52 -104.5t15 -106.5q0 -94 -56 -161t-159 -85z" />
    <glyph glyph-name="uni1CAB" unicode="&#x1cab;" horiz-adv-x="1290" 
d="M1147 453q0 -137 -64 -244t-183.5 -167t-278.5 -60q-162 0 -281 61q-120 60 -184 166.5t-64 243.5v41q0 134 58 235q58 104 165.5 160.5t253.5 56.5q116 0 205.5 -34.5t134.5 -92.5v594h236zM911 492q0 118 -82.5 183.5t-226.5 65.5q-129 0 -201.5 -62t-72.5 -187v-35
q0 -135 78.5 -203t214.5 -68q134 0 212 68t78 203v35z" />
    <glyph glyph-name="uni1CAC" unicode="&#x1cac;" horiz-adv-x="1290" 
d="M143 1040q0 197 82.5 293.5t276.5 96.5q107 0 177.5 -43.5t100.5 -120.5q26 82 83.5 123t158.5 41q64 0 145 -19v-199q-74 21 -131 21q-75 0 -107 -35t-32 -117v-18h-235v18q0 68 -37 106t-105 38q-141 0 -141 -174v-232q45 59 134 93t208 34q151 0 256 -57
q107 -57 164 -159t57 -236v-41q0 -139 -63 -244q-64 -107 -185 -167t-280 -60q-162 0 -281 61q-118 60 -182 166.5t-64 243.5v587zM379 457q0 -135 78.5 -203t212.5 -68q136 0 214.5 68t78.5 203v35q0 125 -73 187t-202 62q-146 0 -227.5 -65.5t-81.5 -183.5v-35z" />
    <glyph glyph-name="uni1CAD" unicode="&#x1cad;" horiz-adv-x="1243" 
d="M967 737q184 -102 184 -313v-14q0 -126 -61 -220q-64 -100 -184.5 -155t-282.5 -55q-168 0 -285 63q-119 61 -182.5 170.5t-63.5 249.5q0 25 6 92h232v-90q0 -137 78 -208t215 -71q133 0 212.5 59.5t79.5 166.5v16q0 120 -153 195q-80 38 -112 74.5t-32 90.5v7
q-31 -28 -83 -47t-105 -19q-154 0 -242 74.5t-88 208.5q0 139 103 209.5t301 70.5h114v119h236v-119h225v-205h-225v-213q0 -53 20.5 -75.5t92.5 -61.5zM522 1098q-99 0 -141.5 -18.5t-42.5 -71.5q0 -48 33.5 -66t95.5 -18q88 0 151 63v111h-96z" />
    <glyph glyph-name="uni1CAE" unicode="&#x1cae;" horiz-adv-x="1290" 
d="M379 819q45 59 134 93t208 34q151 0 256 -57q107 -57 164 -159t57 -236v-41q0 -139 -63 -244q-64 -107 -184 -167t-279 -60q-162 0 -281 61q-120 60 -184 166.5t-64 243.5v960h236v-594zM379 457q0 -135 78.5 -203t214.5 -68q134 0 212.5 68t78.5 203v35q0 125 -72 187
t-201 62q-148 0 -229.5 -65.5t-81.5 -183.5v-35z" />
    <glyph glyph-name="uni1CAF" unicode="&#x1caf;" horiz-adv-x="1243" 
d="M735 889q203 -24 309.5 -136.5t106.5 -287.5v-51q0 -198 -141 -315t-389 -117q-166 0 -283 63q-119 61 -182.5 169.5t-63.5 248.5q0 25 6 92h230v-88q0 -138 78 -209.5t215 -71.5q138 0 216 59.5t78 174.5v39q0 122 -74.5 175.5t-215.5 53.5h-125v309h-353v205h353v211
h235v-211h340v-205h-340v-108z" />
    <glyph glyph-name="uni1CB0" unicode="&#x1cb0;" horiz-adv-x="1294" 
d="M909 526q120 -19 181 -78.5t61 -154.5q0 -154 -134 -232.5t-396 -78.5q-166 0 -283 63q-119 61 -182.5 169.5t-63.5 248.5q0 25 6 92h230v-88q0 -140 81 -210.5t232 -70.5q274 0 274 125q0 60 -45 86q-48 25 -172 25h-139v203h150q102 0 141 20q37 21 37 60q0 40 -37 61
q-39 20 -143 20h-148v197h156q78 0 102 8q27 9 27 35q0 22 -25 35q-56 21 -117 39l-55 16q-129 42 -190 74q-65 34 -92 76.5t-27 111.5v35h235v-29q0 -30 39 -47q41 -23 136 -49q148 -46 210 -76q67 -33 94 -72.5t27 -101.5q0 -123 -170 -153q109 -19 161 -62t52 -118
q0 -153 -213 -179z" />
    <glyph glyph-name="uni1E9E" unicode="&#x1e9e;" horiz-adv-x="1241" 
d="M1092 1309l-220 -377q117 -20 168.5 -85t51.5 -190v-370q0 -172 -72 -232q-70 -55 -238 -55h-166v205h121q63 0 90 29.5t27 97.5v286q0 75 -25.5 105.5t-91.5 30.5h-121v159l170 285q-67 27 -157 27q-124 0 -180 -55t-56 -177v-993h-237v1010q0 204 120 313t353 109
q133 0 270 -41q130 -39 193 -82z" />
    <glyph glyph-name="uni2010" unicode="&#x2010;" horiz-adv-x="653" 
d="M592 496h-531v192h531v-192z" />
    <glyph glyph-name="uni2011" unicode="&#x2011;" horiz-adv-x="653" 
d="M592 496h-531v192h531v-192z" />
    <glyph glyph-name="figuredash" unicode="&#x2012;" horiz-adv-x="1069" 
d="M942 612h-815v205h815v-205z" />
    <glyph glyph-name="endash" unicode="&#x2013;" horiz-adv-x="1042" 
d="M920 489h-797v205h797v-205z" />
    <glyph glyph-name="emdash" unicode="&#x2014;" horiz-adv-x="1421" 
d="M1380 489h-1339v205h1339v-205z" />
    <glyph glyph-name="quoteleft" unicode="&#x2018;" horiz-adv-x="473" 
d="M350 1094h-244v344l244 209v-553z" />
    <glyph glyph-name="quoteright" unicode="&#x2019;" horiz-adv-x="485" 
d="M106 1477h232v-357l-232 -196v553z" />
    <glyph glyph-name="quotesinglbase" unicode="&#x201a;" horiz-adv-x="487" 
d="M123 242h242v-344l-242 -209v553z" />
    <glyph glyph-name="quotedblleft" unicode="&#x201c;" horiz-adv-x="790" 
d="M319 1094h-243v344l243 209v-553zM674 1094h-242v344l242 209v-553z" />
    <glyph glyph-name="quotedblright" unicode="&#x201d;" horiz-adv-x="790" 
d="M76 1477h243v-344l-243 -209v553zM432 1477h242v-344l-242 -209v553z" />
    <glyph glyph-name="quotedblbase" unicode="&#x201e;" horiz-adv-x="833" 
d="M123 242h242v-344l-242 -209v553zM477 242h244v-344l-244 -209v553z" />
    <glyph glyph-name="dagger" unicode="&#x2020;" horiz-adv-x="1138" 
d="M55 817v207h396v389h237v-389h393v-207h-393v-1206h-237v1206h-396z" />
    <glyph glyph-name="daggerdbl" unicode="&#x2021;" horiz-adv-x="1138" 
d="M55 817v207h396v389h237v-389h393v-207h-393v-612h393v-205h-393v-389h-237v389h-396v205h396v612h-396z" />
    <glyph glyph-name="bullet" unicode="&#x2022;" horiz-adv-x="608" 
d="M453 551q-35 -35 -76.5 -51t-79.5 -13t-74 20t-64 45t-45 64t-20 74t13 79.5t51 76.5t76.5 51t79.5 13t74 -20t64 -45t45 -64t20 -74t-13 -79.5t-51 -76.5z" />
    <glyph glyph-name="ellipsis" unicode="&#x2026;" horiz-adv-x="1720" 
d="M123 283h283v-283h-283v283zM719 283h282v-283h-282v283zM1315 283h282v-283h-282v283z" />
    <glyph glyph-name="perthousand" unicode="&#x2030;" horiz-adv-x="2215" 
d="M1483 401v-106q0 -151 -77 -232t-228 -81q-143 0 -221 82t-78 231v106q0 149 79 230.5t220 81.5q147 0 226 -81t79 -231zM1180 135q129 0 129 162v100q0 160 -129 160q-125 0 -125 -160v-100q0 -162 125 -162zM653 1120v-106q0 -151 -77.5 -232.5t-227.5 -81.5
q-145 0 -223 82t-78 232v106q0 149 79 230.5t222 81.5q147 0 226 -81t79 -231zM348 854q129 0 129 162v100q0 160 -129 160q-123 0 -123 -160v-100q0 -162 123 -162zM2159 401v-106q0 -151 -77.5 -232t-228.5 -81q-146 0 -223.5 81.5t-77.5 231.5v106q0 149 79 230.5
t222 81.5q147 0 226.5 -81t79.5 -231zM1853 135q129 0 129 162v100q0 160 -129 160q-122 0 -122 -160v-100q0 -162 122 -162zM254 0l790 1413h218l-789 -1413h-219z" />
    <glyph glyph-name="guilsinglleft" unicode="&#x2039;" horiz-adv-x="675" 
d="M537 106l-476 474l476 473v-256l-222 -217l222 -220v-254z" />
    <glyph glyph-name="guilsinglright" unicode="&#x203a;" horiz-adv-x="675" 
d="M119 797v256l475 -473l-475 -474v254l219 220z" />
    <glyph glyph-name="fraction" unicode="&#x2044;" horiz-adv-x="1159" 
d="M12 0l973 1413h217l-971 -1413h-219z" />
    <glyph glyph-name="uni2074" unicode="&#x2074;" horiz-adv-x="706" 
d="M63 987l269 426h174l-252 -412h137v103h148v-103h79v-127h-79v-108h-148v108h-328v113z" />
    <glyph glyph-name="Euro" unicode="&#x20ac;" horiz-adv-x="1069" 
d="M18 442v199h138v123h-138v199h146q55 469 446 469q380 0 426 -457h-229q-17 136 -62 193t-135 57q-99 0 -148.5 -61t-62.5 -201h256v-199h-262v-123h262v-199h-254q17 -131 67 -192.5t142 -61.5q87 0 133.5 59.5t63.5 190.5h227q-25 -234 -127.5 -345t-296.5 -111
q-386 0 -444 460h-148z" />
    <glyph glyph-name="uni20B4" unicode="&#x20b4;" horiz-adv-x="1069" 
d="M104 465h-92v192h1047v-192h-709q-18 -35 -18 -88q0 -89 57 -139t168 -50q83 0 138 32.5t128 121.5l183 -127q-91 -119 -201 -180q-103 -53 -262 -53q-220 0 -334 114q-115 121 -115 283q0 28 10 86zM1059 758h-1047v194h703q20 33 20 88q0 88 -51 136.5t-147 48.5
q-77 0 -131 -34t-115 -120l-176 129q151 232 420 232q210 0 325 -104t113 -279q0 -47 -15 -97h101v-194z" />
    <glyph glyph-name="uni20B8" unicode="&#x20b8;" horiz-adv-x="1069" 
d="M23 1206v207h1026v-207h-1026zM23 899v207h1026v-207h-396v-899h-237v899h-393z" />
    <glyph glyph-name="uni20BD" unicode="&#x20bd;" horiz-adv-x="1069" 
d="M195 516h-177v205h177v692h346q249 0 385.5 -116t136.5 -330q0 -215 -137.5 -333t-384.5 -118h-109v-92h238v-205h-238v-219h-237v219h-177v205h177v92zM432 1206v-485h86q307 0 307 246q0 239 -307 239h-86z" />
    <glyph glyph-name="uni20BE" unicode="&#x20be;" horiz-adv-x="1533" 
d="M61 780q0 241 110 399.5t327 217.5v266h182v-236q30 3 94 3l78 -3v236h182v-264q215 -56 327 -206t112 -364q0 -134 -27 -233h-229q18 77 18 190q0 152 -47.5 248t-153.5 144v-484h-182v529q-16 2 -78 2q-12 0 -94 -4v-527h-182v477q-104 -49 -151.5 -146t-47.5 -249
q0 -298 170.5 -434.5t495.5 -136.5h436v-207h-1264v207h209q-144 87 -214.5 227t-70.5 348z" />
    <glyph glyph-name="uni2116" unicode="&#x2116;" horiz-adv-x="1939" 
d="M1890 1100v-96q0 -157 -80.5 -245.5t-230.5 -88.5q-147 0 -229 89t-82 245v96q0 158 81.5 245t229.5 87q149 0 230 -86.5t81 -245.5zM1579 848q59 0 91 44t32 120v80q0 161 -123 161q-125 0 -125 -161v-80q0 -164 125 -164zM930 440v973h229v-1413h-211l-575 961v-961
h-230v1413h205zM1845 383h-530v201h530v-201z" />
    <glyph glyph-name="trademark" unicode="&#x2122;" horiz-adv-x="1839" 
d="M55 1239v174h707v-174h-258v-680h-193v680h-256zM838 1413h178l276 -481l277 481h180v-854h-193v475l-192 -329h-156l-180 329v-475h-190v854z" />
    <glyph glyph-name="arrowleft" unicode="&#x2190;" horiz-adv-x="1792" 
d="M428 455l643 -643h-225l-723 723l723 722h225l-643 -643h1241v-159h-1241z" />
    <glyph glyph-name="arrowup" unicode="&#x2191;" horiz-adv-x="1691" 
d="M846 1309l723 -723v-226l-643 644v-1242h-160v1242l-643 -644v226z" />
    <glyph glyph-name="arrowright" unicode="&#x2192;" horiz-adv-x="1792" 
d="M1669 535l-723 -723h-225l643 643h-1241v159h1241l-643 643h225z" />
    <glyph glyph-name="arrowdown" unicode="&#x2193;" horiz-adv-x="1691" 
d="M846 -240l-723 723v226l643 -643v1241h160v-1241l643 643v-226z" />
    <glyph glyph-name="uni2196" unicode="&#x2196;" horiz-adv-x="1429" 
d="M281 752v-912l-158 160v1024h1024l160 -158h-912l877 -878l-113 -113z" />
    <glyph glyph-name="uni2197" unicode="&#x2197;" horiz-adv-x="1429" 
d="M1307 1024v-1024l-158 -160v912l-879 -877l-112 113l876 878h-911l160 158h1024z" />
    <glyph glyph-name="uni2198" unicode="&#x2198;" horiz-adv-x="1429" 
d="M1149 272v912l158 -160v-1024h-1024l-160 158h911l-876 878l112 113z" />
    <glyph glyph-name="uni2199" unicode="&#x2199;" horiz-adv-x="1429" 
d="M123 0v1024l158 160v-912l878 877l113 -113l-877 -878h912l-160 -158h-1024z" />
    <glyph glyph-name="uni21A3" unicode="&#x21a3;" horiz-adv-x="2703" 
d="M82 801l104 104l328 -330l-328 -329l-104 102l225 227zM383 801l104 104l228 -227h1597l-123 123l103 104l329 -330l-329 -329l-103 102l123 125h-1597l-228 -227l-104 102l227 227z" />
    <glyph glyph-name="partialdiff" unicode="&#x2202;" horiz-adv-x="1028" 
d="M944 954v-505q0 -222 -111.5 -344.5t-322.5 -122.5q-208 0 -322 123t-114 344v129q0 221 111.5 342.5t314.5 121.5q138 0 227 -65q-3 266 -235 266q-110 0 -228 -80l-106 142q145 127 348 127q215 0 326.5 -122t111.5 -356zM510 170q107 0 162 74.5t55 210.5v118
q0 279 -217 279q-219 0 -219 -279v-118q0 -285 219 -285z" />
    <glyph glyph-name="product" unicode="&#x220f;" horiz-adv-x="1306" 
d="M143 -389v1802h1020v-1802h-237v1595h-545v-1595h-238z" />
    <glyph glyph-name="summation" unicode="&#x2211;" 
d="M61 1413h943v-205h-639l378 -598v-200l-378 -594h639v-205h-943v170l467 731l-467 731v170z" />
    <glyph glyph-name="minus" unicode="&#x2212;" horiz-adv-x="1030" 
d="M913 629h-796v192h796v-192z" />
    <glyph glyph-name="uni2215" unicode="&#x2215;" horiz-adv-x="993" 
d="M985 1663l-688 -1901h-201l688 1901h201z" />
    <glyph glyph-name="radical" unicode="&#x221a;" horiz-adv-x="1349" 
d="M29 817v207h397l283 -668l233 1057h567v-207h-379l-292 -1206h-222l-366 817h-221z" />
    <glyph glyph-name="infinity" unicode="&#x221e;" horiz-adv-x="1611" 
d="M803 561q-181 -227 -379 -227q-157 0 -258 104q-100 106 -100 262q0 161 100 261q100 106 264 106q211 0 385 -223q177 223 369 223q160 0 260 -106q102 -108 102 -261q0 -155 -100.5 -260.5t-253.5 -105.5q-208 0 -389 227zM1188 535q63 0 105.5 34t52 82t-1.5 96.5
t-55.5 82.5t-108.5 34q-50 0 -93 -24q-39 -19 -60 -39t-87 -96q73 -92 129.5 -131t118.5 -39zM428 535q68 0 123.5 37.5t130.5 129.5q-137 162 -254 162q-74 0 -122 -46t-48 -118q0 -73 48 -119t122 -46z" />
    <glyph glyph-name="integral" unicode="&#x222b;" horiz-adv-x="612" 
d="M168 -18v1105q0 178 77.5 252t262.5 74h63v-205h-45q-78 0 -105.5 -35.5t-27.5 -132.5v-1103q0 -178 -78 -252t-264 -74h-63v205h47q79 0 106 34.5t27 131.5z" />
    <glyph glyph-name="approxequal" unicode="&#x2248;" horiz-adv-x="1024" 
d="M854 975l86 -156q-106 -106 -229 -106q-71 0 -207 53q-131 55 -191 55q-68 0 -143 -63l-86 157q107 107 225 107q72 0 209 -55q145 -54 197 -54q68 0 139 62zM854 633l86 -154q-108 -108 -229 -108q-71 0 -207 53q-131 55 -191 55q-68 0 -143 -63l-86 157
q107 107 225 107q72 0 209 -55q145 -54 197 -54q68 0 139 62z" />
    <glyph glyph-name="notequal" unicode="&#x2260;" horiz-adv-x="1024" 
d="M451 772h-338v203h426l147 340l174 -72l-117 -268h166v-203h-254l-63 -149h317v-201h-405l-139 -326l-175 72l109 254h-186v201h274z" />
    <glyph glyph-name="lessequal" unicode="&#x2264;" horiz-adv-x="892" 
d="M690 348l-475 473l475 473v-256l-219 -217l219 -219v-254zM690 -61l-475 473v252l475 -469v-256z" />
    <glyph glyph-name="greaterequal" unicode="&#x2265;" horiz-adv-x="892" 
d="M215 1038v256l475 -473l-475 -473v254l221 219zM215 195l475 469v-252l-475 -473v256z" />
    <glyph glyph-name="uni231A" unicode="&#x231a;" horiz-adv-x="1363" 
d="M913 -420h-534v481q-124 73 -190 197.5t-66 253.5t66 253t190 196v481h534v-479q100 -62 165.5 -158t84.5 -211h78v-164h-78q-41 -244 -250 -369v-481zM647 942q-178 0 -305 -126.5t-127 -303.5q0 -178 126.5 -305t305.5 -127q177 0 303.5 127t126.5 305
q0 177 -126.5 303.5t-303.5 126.5zM999 690l-12 -39l-340 -190l-272 153l-13 41l41 11l244 -144l314 178z" />
    <glyph glyph-name="uni23F2" unicode="&#x23f2;" horiz-adv-x="2195" 
d="M1098 -274q-199 0 -380 76.5t-311 207t-207 311t-77 379.5q0 404 285 689q286 286 690 286q158 0 306.5 -49.5t268.5 -140t210.5 -210.5t140 -268.5t49.5 -306.5q0 -403 -287 -690q-284 -284 -688 -284zM485 1311q-252 -252 -252 -611q0 -357 252 -612q255 -252 613 -252
t610 252q252 255 252 612q0 176 -68 335.5t-183.5 275t-275 184t-335.5 68.5q-358 0 -613 -252zM1145 1243h-94v258h94v-258zM1804 1114l-20 -74l-686 -393l-508 291l-21 72l74 20l455 -264l633 367zM297 651v94h258v-94h-258zM1642 651v94h259v-94h-259zM1145 -102h-94v258
h94v-258z" />
    <glyph glyph-name="uni2550" unicode="&#x2550;" horiz-adv-x="4419" 
d="M0 825h4420v-204h-4420v204zM0 526h4420v-207h-4420v207z" />
    <glyph glyph-name="lozenge" unicode="&#x25ca;" horiz-adv-x="1142" 
d="M53 606l400 596h241l396 -596l-396 -606h-241zM829 606l-258 406l-260 -406l260 -418z" />
    <glyph glyph-name="uni261D" unicode="&#x261d;" horiz-adv-x="1443" 
d="M1321 510v-567h-758l-440 598q20 20 59 39q128 62 236 -52l145 -151v921q0 125 103 125q102 0 102 -118v-469h74q59 0 84.5 -26.5t25.5 -84.5h74q59 0 85 -26.5t26 -84.5h69q61 0 88 -24t27 -80zM1196 -291q-13 13 -30.5 15t-31.5 -6.5t-23.5 -22.5t-8.5 -32.5t14 -35.5
q15 -15 32.5 -17t31 7t22.5 23t8 33t-14 36zM1321 -498h-758v330h758v-330z" />
    <glyph glyph-name="uni261E" unicode="&#x261e;" horiz-adv-x="2172" 
d="M1137 104h-568v758l598 441q18 -18 39 -62q64 -124 -51 -233l-151 -146h921q125 0 125 -102q0 -103 -119 -103h-469v-73q0 -59 -26 -85t-84 -26v-74q0 -59 -26.5 -84.5t-84.5 -25.5v-70q0 -61 -24 -88t-80 -27zM330 227q18 18 17.5 41t-15.5 37.5t-36.5 18.5t-45.5 -15
q-18 -18 -17 -40.5t16.5 -36t37 -18t43.5 12.5zM123 104v758h336v-758h-336z" />
    <glyph glyph-name="uni26F3" unicode="&#x26f3;" horiz-adv-x="1380" 
d="M123 1051q0 154 76 284.5t206.5 206.5t284.5 76t284.5 -76t206.5 -206.5t76 -284.5q0 -180 -167 -443l-400 -628l-403 632q-164 262 -164 439zM528 1210q-65 -65 -65 -159q0 -95 65 -160q72 -66 162 -66q54 0 97.5 19.5t70 51t41 72t14.5 83t-14.5 83t-41 72t-70 51
t-97.5 19.5q-90 0 -162 -66z" />
    <glyph glyph-name="uni2709" unicode="&#x2709;" horiz-adv-x="2531" 
d="M123 1061v123h2285v-123l-1142 -684zM123 76v909l692 -412zM2408 76l-692 497l692 412v-909zM1659 539l749 -539h-2285l749 539l394 -234z" />
    <glyph glyph-name="uniF040" unicode="&#xf040;" horiz-adv-x="6254" 
d="M2683 473h-2683v205h2687l231 231l105 -102l-234 -234l234 -233l-105 -102zM3232 807l104 102l232 -231h2687v-205h-2683l-236 -235l-104 102l233 233z" />
    <glyph glyph-name="uniF041" unicode="&#xf041;" horiz-adv-x="5847" 
d="M2691 678l119 207l151 -88l-305 -529l-151 86l67 119h-2572v205h2691zM2886 354l305 531l151 -88l-69 -119h2574v-205h-2691l-119 -205z" />
    <glyph glyph-name="uniF042" unicode="&#xf042;" horiz-adv-x="5785" 
d="M0 678h2572v-205h-2572v205zM5786 473h-2818v205h2818v-205z" />
    <glyph glyph-name="uniF043" unicode="&#xf043;" horiz-adv-x="1443" 
d="M563 -57l-440 598l16 12q33 31 78.5 42.5t100 -4.5t100.5 -63l145 -151v921q0 125 103 125q102 0 102 -118v-469h74q59 0 84.5 -26.5t25.5 -84.5h74q59 0 85 -26.5t26 -84.5h69q61 0 88 -24t27 -80v-567h-758zM1116 -291q-18 -18 -16.5 -41.5t17 -38t36.5 -18.5t43 16
q18 18 16.5 41t-17 37t-36.5 18.5t-43 -14.5zM721 1485h-113v323h113v-323zM170 1239v113h324v-113h-324zM838 1239v113h323v-113h-323zM563 -168h758v-330h-758v330z" />
    <glyph glyph-name="uniF044" unicode="&#xf044;" horiz-adv-x="1906" 
d="M362 258l7 21q22 69 85 110.5t160 22.5l412 -93v979q0 125 102 125q103 0 103 -118v-469h74q59 0 84.5 -26.5t25.5 -84.5h74q59 0 84.5 -26.5t25.5 -84.5h70q61 0 88 -24t27 -80v-567h-758zM1579 -291q-18 -18 -16.5 -41.5t17 -38t36.5 -18.5t43 16q18 18 16.5 41t-17 37
t-36.5 18.5t-43 -14.5zM1133 1554v113h323v-324h-113v211h-210zM446 143v-112h-323v323h113v-211h210zM1026 -168h758v-330h-758v330z" />
    <glyph glyph-name="uniF045" unicode="&#xf045;" horiz-adv-x="1849" 
d="M758 1362h1030v-113h-1020v-413h74q59 0 84.5 -26.5t25.5 -84.5h74q59 0 85 -26.5t26 -84.5h69q61 0 88 -24t27 -80v-567h-758l-440 598q20 20 59 39q128 62 236 -52l145 -151v921q0 125 103 125q71 0 92 -61zM1196 -291q-13 13 -30.5 15t-31.5 -6.5t-23.5 -22.5
t-8.5 -32.5t14 -35.5q15 -15 32.5 -17t31 7t22.5 23t8 33t-14 36zM408 1075l-230 230l230 229l79 -80l-149 -149l149 -150zM1321 -498h-758v330h758v-330z" />
    <glyph glyph-name="uniF046" unicode="&#xf046;" horiz-adv-x="1949" 
d="M1827 510v-567h-758l-440 598q20 20 59 39q128 62 236 -52l145 -151v872h-1008v113h1018q21 61 92 61q103 0 103 -118v-469h74q110 0 110 -111h74q110 0 110 -111h70q61 0 88 -24t27 -80zM1702 -291q-13 13 -30.5 15t-31.5 -6.5t-23.5 -22.5t-8.5 -32.5t14 -35.5
q15 -15 32.5 -17t31 7t22.5 23t8 33t-14 36zM1442 1534l229 -229l-229 -230l-80 80l149 150l-149 149zM1827 -498h-758v330h758v-330z" />
    <glyph glyph-name="uniF047" unicode="&#xf047;" horiz-adv-x="2068" 
d="M1786 1053l-12 -9v-1298h-113v1235l-281 -162l35 -63q55 -98 -39 -150l37 -65q55 -94 -41 -150l35 -61q59 -100 -35 -152l-489 -284l-379 657l297 680l10 -4q54 -21 98 -70q28 -31 37 -80t-8 -108l-59 -203l800 463q108 58 160 -27q52 -88 -53 -149zM604 -55
q-13 13 -30.5 15t-31.5 -6.5t-23.5 -22.5t-8.5 -32.5t14 -35.5q15 -15 32.5 -17t31 7t22.5 23t8 33t-14 36zM1567 1333l-80 80l229 229l230 -229l-80 -80l-150 150zM502 -326l-379 658l287 166l376 -658z" />
    <glyph glyph-name="uniF048" unicode="&#xf048;" horiz-adv-x="2344" 
d="M993 0l-491 281l381 657l737 82q5 -31 2 -72q-9 -140 -160 -178l-205 -49l680 -393v1235h113v-1301l8 -4q106 -62 56 -152q-51 -86 -156 -28l-406 235l-36 -61q-58 -99 -150 -43l-37 -64q-56 -95 -151 -39l-35 -61q-60 -97 -150 -45zM311 520q15 -15 33 -17t32 7t23.5 23
t8 32.5t-16.5 34.5q-13 15 -30.5 17t-31.5 -6.5t-23.5 -22t-8.5 -32.5t14 -36zM123 502l379 655l286 -164l-380 -655zM2222 -104l-229 -230l-230 230l80 79l150 -149l149 149z" />
    <glyph glyph-name="uniF400" unicode="&#xf400;" horiz-adv-x="0" 
d="M-389 1161h-207l143 324h250z" />
    <glyph glyph-name="uniF401" unicode="&#xf401;" horiz-adv-x="0" 
d="M-526 1524h-211l164 264h258z" />
    <glyph glyph-name="uniF406" unicode="&#xf406;" horiz-adv-x="1048" 
d="M711 1800h198q0 -147 -103.5 -229t-281.5 -82q-179 0 -283 82.5t-104 228.5h199q21 -129 188 -129q169 0 187 129z" />
    <glyph glyph-name="uniF407" unicode="&#xf407;" horiz-adv-x="841" 
d="M307 -145l39 196l146 -6l-25 -90q115 -44 115 -152q0 -78 -65 -124t-171 -46q-58 0 -86 7l29 120q6 -2 39 -2q80 0 80 49q0 48 -101 48z" />
    <glyph glyph-name="uniF408" unicode="&#xf408;" horiz-adv-x="1048" 
d="M139 1511l283 291h205l282 -291h-239l-146 154l-145 -154h-240z" />
    <glyph glyph-name="uniF409" unicode="&#xf409;" horiz-adv-x="784" 
d="M270 -117h242v-233l-242 -209v442z" />
    <glyph glyph-name="uniF40A" unicode="&#xf40a;" horiz-adv-x="378" 
d="M111 1413h241v-295l-241 -207v502z" />
    <glyph glyph-name="uniF40B" unicode="&#xf40b;" horiz-adv-x="784" 
d="M512 1573h-242v207h242v-207z" />
    <glyph glyph-name="uniF40C" unicode="&#xf40c;" horiz-adv-x="897" 
d="M446 1438q-73 0 -127 30t-78.5 74.5t-24.5 97t24 97t78 74.5t128 30q105 0 169.5 -55.5t64.5 -147.5q0 -90 -64.5 -145t-169.5 -55zM352 1638q0 -36 25.5 -56.5t68.5 -20.5q92 0 92 52q0 42 -49 84q-53 45 -94 32q-43 -13 -43 -91z" />
    <glyph glyph-name="uniF40D" unicode="&#xf40d;" horiz-adv-x="1013" 
d="M631 1524q-45 0 -127 28q-85 29 -113 29q-62 0 -112 -53l-121 123q99 114 231 114q41 0 123 -28q85 -29 115 -29q60 0 110 53l119 -123q-95 -114 -225 -114z" />
    <glyph glyph-name="uniF40E" unicode="&#xf40e;" horiz-adv-x="837" 
d="M483 94l62 -94q-62 -47 -86 -74q-25 -28 -25 -57q0 -51 72 -51q3 0 8 0.5t14.5 1.5t18.5 2l28 -121q-16 -8 -96 -8q-97 0 -158 41t-61 114q0 136 223 246z" />
    <glyph glyph-name="uni0410.var.accented" unicode="&#xf460;" horiz-adv-x="1218" 
d="M721 1524h-211l164 264h258zM354 293l-96 -293h-254l492 1413h225l491 -1413h-251l-97 293h-510zM797 498l-189 571l-188 -571h377z" />
    <glyph glyph-name="uni0415.var.accented" unicode="&#xf461;" horiz-adv-x="1091" 
d="M664 1524h-211l163 264h258zM156 0v1413h866v-207h-629v-372h568v-205h-568v-424h629v-205h-866z" />
    <glyph glyph-name="uni0418.var.accented" unicode="&#xf462;" horiz-adv-x="1366" 
d="M766 1524h-211l164 264h258zM156 0v1413h237v-964l625 964h194v-1413h-237v954l-623 -954h-196z" />
    <glyph glyph-name="uni041E.var.accented" unicode="&#xf463;" horiz-adv-x="1255" 
d="M1157 797v-181q0 -312 -137.5 -473t-392.5 -161t-392 161t-137 473v181q0 312 137 473.5t392 161.5t392.5 -161.5t137.5 -473.5zM336 797v-181q0 -220 71.5 -324t219.5 -104q149 0 221 104t72 324v181q0 220 -72 324t-221 104q-148 0 -219.5 -104t-71.5 -324zM688 1524
h-211l164 264h258z" />
    <glyph glyph-name="uni0423.var.accented" unicode="&#xf464;" horiz-adv-x="1187" 
d="M633 631l297 782h246l-455 -1149q-65 -164 -164 -223q-103 -59 -299 -59v211q118 0 170 24q52 25 88 111l-483 1085h260zM711 1524h-211l164 264h258z" />
    <glyph glyph-name="uni042B.var.accented" unicode="&#xf465;" horiz-adv-x="1634" 
d="M156 0v1413h237v-536h215q260 0 385 -125q127 -127 127 -314t-129 -313q-125 -125 -397 -125h-438zM600 672h-207v-467h207q69 0 125 20t90.5 53t53.5 75t19 85.5t-19 85.5t-53.5 75t-90.5 53t-125 20zM877 1524h-211l163 264h258zM1243 1413h238v-1413h-238v1413z" />
    <glyph glyph-name="uni042D.var.accented" unicode="&#xf466;" horiz-adv-x="1202" 
d="M864 608h-473v205h473q-3 412 -291 412q-229 0 -282 -250h-230q32 224 163.5 340.5t348.5 116.5q255 0 392 -161.5t137 -473.5v-181q0 -312 -137 -473t-392 -161q-446 0 -510 456h228q29 -130 96.5 -190t185.5 -60q288 0 291 420zM655 1524h-211l164 264h258z" />
    <glyph glyph-name="uni042E.var.accented" unicode="&#xf467;" horiz-adv-x="1675" 
d="M1577 786v-159q0 -645 -494 -645q-495 0 -495 647h-195v-629h-237v1413h237v-579h195q18 598 495 598q494 0 494 -646zM825 778v-143q0 -235 61 -341t197 -106q135 0 195.5 106t60.5 341v143q0 234 -60.5 340.5t-195.5 106.5q-136 0 -197 -106.5t-61 -340.5zM760 1524
h-211l164 264h258z" />
    <glyph glyph-name="uni042F.var.accented" unicode="&#xf468;" horiz-adv-x="1249" 
d="M612 573l-317 -573h-262l344 602q-287 86 -287 391q0 204 135.5 312t388.5 108h480v-1413h-238v573h-244zM627 778h229v428h-229q-159 0 -229 -49t-70 -164q0 -116 69 -165.5t230 -49.5zM731 1524h-211l164 264h258z" />
    <glyph glyph-name="uni0401.var.accented" unicode="&#xf469;" horiz-adv-x="1091" 
d="M692 1798h-211l164 264h258zM487 1565h-221v215h221v-215zM911 1565h-223v215h223v-215zM156 0v1413h866v-207h-629v-372h568v-205h-568v-424h629v-205h-866z" />
    <glyph glyph-name="uni0430.var.accented" unicode="&#xf46a;" horiz-adv-x="999" 
d="M430 -18q-172 0 -268 83.5t-96 235.5q0 151 97.5 227t282.5 76h222v86q0 96 -42.5 130t-160.5 34q-92 0 -136 -18.5t-79 -73.5l-158 110q56 91 145.5 130.5t241.5 39.5q213 0 308.5 -82t95.5 -272v-688h-215v94q-37 -61 -91 -86.5t-147 -25.5zM668 387v49h-205
q-182 0 -182 -135q0 -133 174 -133q114 0 163.5 49t49.5 170zM573 1161h-206l143 324h250z" />
    <glyph glyph-name="uni0435.var.accented" unicode="&#xf46b;" horiz-adv-x="997" 
d="M725 270l164 -114q-101 -174 -367 -174q-212 0 -330 123.5t-118 338.5v140q0 225 106 341.5t309 116.5q414 0 414 -471v-112h-612v-4q0 -136 56 -210.5t167 -74.5q84 0 131 22.5t80 77.5zM489 852q-181 0 -196 -225h391q-12 225 -195 225zM588 1161h-207l143 324h250z
" />
    <glyph glyph-name="uni0438.var.accented" unicode="&#xf46c;" horiz-adv-x="1093" 
d="M637 1161h-207l143 324h250zM117 1024h219v-639l442 639h197v-1024h-217v657l-449 -657h-192v1024z" />
    <glyph glyph-name="uni043E.var.accented" unicode="&#xf46d;" horiz-adv-x="1017" 
d="M944 578v-129q0 -222 -111.5 -344.5t-322.5 -122.5q-208 0 -322 123t-114 344v129q0 225 113 344.5t323 119.5t322 -119.5t112 -344.5zM510 170q107 0 162 74.5t55 210.5v118q0 279 -217 279q-219 0 -219 -279v-118q0 -285 219 -285zM588 1161h-207l143 324h250z" />
    <glyph glyph-name="uni0443.var.accented" unicode="&#xf46e;" horiz-adv-x="968" 
d="M401 -12l-391 1036h232l260 -721l233 721h226l-361 -1065q-46 -139 -94 -209q-95 -139 -356 -139v201q115 0 165 34t86 142zM598 1161h-207l144 324h249z" />
    <glyph glyph-name="uni044B.var.accented" unicode="&#xf46f;" horiz-adv-x="1333" 
d="M117 0v1024h219v-371h127q430 0 430 -323q0 -159 -101.5 -244.5t-291.5 -85.5h-383zM449 465h-113v-277h137q182 0 182 144q0 68 -49 100.5t-157 32.5zM725 1161h-207l144 324h249zM997 0v1024h217v-1024h-217z" />
    <glyph glyph-name="uni044D.var.accented" unicode="&#xf470;" horiz-adv-x="929" 
d="M639 430h-358v178h358q-5 118 -64 181t-169 63q-130 0 -195 -92l-166 117q122 165 354 165q221 0 339 -118.5t118 -339.5v-140q0 -218 -119.5 -340t-337.5 -122q-258 0 -356 174l162 114q57 -100 201 -100q230 0 233 260zM518 1161h-207l144 324h250z" />
    <glyph glyph-name="uni044E.var.accented" unicode="&#xf471;" horiz-adv-x="1390" 
d="M1317 584v-140q0 -219 -106 -340.5t-302 -121.5q-191 0 -298.5 116.5t-108.5 329.5h-166v-428h-219v1024h219v-408h166q7 206 113.5 316t293.5 110q197 0 302.5 -118.5t105.5 -339.5zM909 170q191 0 191 283v122q0 277 -191 277q-188 0 -188 -277v-122q0 -283 188 -283z
M649 1161h-207l144 324h250z" />
    <glyph glyph-name="uni044F.var.accented" unicode="&#xf472;" horiz-adv-x="1024" 
d="M905 1024v-1024h-217v377h-168l-231 -377h-236l254 412q-209 77 -209 301q0 144 104.5 227.5t301.5 83.5h401zM539 563h149v273h-168q-184 0 -184 -131q0 -74 48.5 -108t154.5 -34zM645 1161h-207l144 324h249z" />
    <glyph glyph-name="uni0451.var.accented" unicode="&#xf473;" horiz-adv-x="997" 
d="M725 270l164 -114q-101 -174 -367 -174q-212 0 -330 123.5t-118 338.5v140q0 225 106 341.5t309 116.5q414 0 414 -471v-112h-612v-4q0 -136 56 -210.5t167 -74.5q84 0 131 22.5t80 77.5zM489 852q-181 0 -196 -225h391q-12 225 -195 225zM578 1468h-207l143 324h250z
M383 1198h-223v215h223v-215zM805 1198h-221v215h221v-215z" />
    <glyph glyph-name="dollar.fitted" unicode="&#xf5f5;" horiz-adv-x="1173" 
d="M1071 1200l-180 -129q-90 122 -209 146v-414q215 -50 311.5 -147t96.5 -269q0 -167 -105.5 -274.5t-294.5 -126.5v-224h-201v228q-268 30 -409 223l186 129q103 -121 232 -145l2 12v414q-383 94 -383 417q0 161 95 261.5t277 123.5v238h201v-238q254 -30 381 -225z
M852 377q0 70 -39 115.5t-131 80.5v-378q170 30 170 182zM354 1040q0 -127 146 -186v360q-146 -30 -146 -174z" />
    <glyph glyph-name="Euro.fitted" unicode="&#xf5f6;" horiz-adv-x="1286" 
d="M14 442v199h168v123h-168v199h181q35 232 167 350.5t349 118.5q216 0 347.5 -116t166.5 -341h-230q-53 250 -284 250q-232 0 -279 -262h346v-199h-358v-123h358v-199h-344q52 -254 277 -254q120 0 187 60t97 190h228q-67 -456 -512 -456q-215 0 -347.5 116.5
t-168.5 343.5h-181z" />
    <glyph glyph-name="cent.fitted" unicode="&#xf5f7;" horiz-adv-x="911" 
d="M723 274l166 -116q-83 -142 -268 -166v-230h-197v232q-165 26 -257.5 147t-92.5 308v131q0 190 90 305.5t260 144.5v244h197v-242q179 -27 268 -160l-168 -116q-64 94 -193 94q-237 0 -237 -281v-110q0 -285 237 -285q141 0 195 100z" />
    <glyph glyph-name="sterling.fitted" unicode="&#xf5f8;" horiz-adv-x="1064" 
d="M985 0h-934v205h148v399h-148v207h148v45q0 576 440 576q261 0 387 -197l-197 -113q-77 103 -184 103q-110 0 -159.5 -86.5t-49.5 -282.5v-45h291v-207h-291v-399h549v-205z" />
    <glyph glyph-name="yen.fitted" unicode="&#xf5f9;" horiz-adv-x="1183" 
d="M182 268v199h291v123h-291v198h185l-334 625h276l283 -565l285 565h274l-334 -625h184v-198h-290v-123h290v-199h-290v-268h-238v268h-291z" />
    <glyph glyph-name="florin.fitted" unicode="&#xf5fa;" horiz-adv-x="647" 
d="M66 817v207h131v63q0 178 78.5 252t265.5 74h61v-207h-41q-78 0 -105.5 -34t-27.5 -128v-20h174v-207h-174v-880q0 -176 -90 -251t-295 -75v207q89 0 121.5 36.5t32.5 129.5v833h-131z" />
    <glyph glyph-name="uni20B4.fitted" unicode="&#xf5fb;" horiz-adv-x="1208" 
d="M172 465h-92v192h1048v-192h-708q-19 -36 -19 -88q0 -89 57.5 -139t166.5 -50q83 0 138 32.5t128 121.5l184 -127q-104 -129 -201 -180q-103 -53 -262 -53q-219 0 -333 114q-115 121 -115 283q0 59 8 86zM1128 758h-1048v194h704q21 40 21 88q0 88 -52.5 136.5
t-146.5 48.5q-81 0 -134.5 -34t-111.5 -120l-178 129q151 232 422 232q207 0 322.5 -104t115.5 -279q0 -51 -14 -97h100v-194z" />
    <glyph glyph-name="uni20BD.fitted" unicode="&#xf5fc;" horiz-adv-x="1069" 
d="M195 516h-177v205h177v692h346q249 0 385.5 -116t136.5 -330q0 -215 -137.5 -333t-384.5 -118h-109v-92h238v-205h-238v-219h-237v219h-177v205h177v92zM432 1206v-485h86q307 0 307 246q0 239 -307 239h-86z" />
    <glyph glyph-name="uni20B8.fitted" unicode="&#xf5fd;" horiz-adv-x="1079" 
d="M14 1206v207h1051v-207h-1051zM14 899v207h1051v-207h-406v-899h-237v899h-408z" />
    <glyph glyph-name="currency.fitted" unicode="&#xf5fe;" horiz-adv-x="1140" 
d="M162 750q0 115 53 204l-149 152l147 147l147 -149q92 57 209 57q115 0 207 -57l152 151l147 -147l-151 -152q57 -92 57 -206q0 -117 -57 -209l151 -150l-147 -147l-152 151q-98 -55 -207 -55q-113 0 -207 55l-149 -149l-147 147l149 150q-53 95 -53 207zM569 535
q90 0 150.5 62t60.5 153q0 93 -60 155t-151 62q-65 0 -112.5 -32t-69.5 -80t-22.5 -104t21 -104t69.5 -80t114 -32z" />
    <glyph glyph-name="uniF639" unicode="&#xf639;" horiz-adv-x="1118" 
d="M1004 999v-585q0 -207 -130 -322q-125 -110 -315 -110q-189 0 -317 110q-127 115 -127 322v583q0 212 127 324q126 110 317.5 110t317.5 -110q127 -109 127 -322zM766 428v557q0 112 -55 176t-152 64q-98 0 -153.5 -63.5t-55.5 -176.5v-557q0 -113 55.5 -176.5
t153.5 -63.5q97 0 152 64t55 176z" />
    <glyph glyph-name="uniF63A" unicode="&#xf63a;" horiz-adv-x="1038" 
d="M389 205h537v-205h-854v168l485 569q143 162 143 297q0 54 -21.5 96t-56 63.5t-76.5 31.5t-84.5 -0.5t-78 -32t-59 -63.5t-25.5 -95h-217q0 175 122 286.5t304 111.5q186 0 305 -113q123 -114 123 -289q0 -131 -76 -244q-38 -57 -63 -90l-74 -92z" />
    <glyph glyph-name="uniF63B" unicode="&#xf63b;" horiz-adv-x="1028" 
d="M469 627h-98v204h98q110 0 168.5 55.5t58.5 155.5q0 80 -57 133.5t-143 53.5q-83 0 -138 -49t-63 -125h-217q3 167 127 270q125 107 299 107q185 0 305 -111q123 -111 123 -272q0 -105 -53.5 -188t-147.5 -128q221 -99 221 -342q0 -174 -116 -293q-116 -116 -316 -116
q-203 0 -326.5 104.5t-134.5 282.5h217q12 -86 72.5 -133.5t161.5 -47.5q92 0 149.5 58.5t57.5 150.5q0 111 -63.5 170.5t-184.5 59.5z" />
    <glyph glyph-name="uniF63C" unicode="&#xf63c;" horiz-adv-x="1075" 
d="M33 381l489 1032h252l-452 -993h331v385h238v-385h129v-207h-129v-213h-238v213h-620v168z" />
    <glyph glyph-name="uniF63D" unicode="&#xf63d;" horiz-adv-x="1040" 
d="M524 752q-110 0 -172 -105h-215v766h766v-223h-534v-299q82 82 217 82q179 0 275.5 -132t96.5 -378q0 -234 -110 -357.5t-320 -123.5q-177 0 -295 100.5t-135 267.5h234q40 -162 192 -162q197 0 197 267q0 297 -197 297z" />
    <glyph glyph-name="uniF63E" unicode="&#xf63e;" horiz-adv-x="1038" 
d="M477 1413h258l-286 -600q53 27 135 27q165 0 272 -119q109 -121 109 -299q0 -208 -125 -324q-122 -116 -320 -116q-195 0 -321 114q-125 116 -125 322q0 115 114 370zM520 188q50 0 91 19.5t66 51.5t39 73t14 83.5t-14 83.5t-39 73t-66 51.5t-91 19.5q-57 0 -102.5 -25
t-69.5 -65t-35 -88.5t-0.5 -97.5t34 -89t69 -65t104.5 -25z" />
    <glyph glyph-name="uniF63F" unicode="&#xf63f;" horiz-adv-x="903" 
d="M242 1206v-231h-205v438h831v-182l-424 -1231h-247l426 1206h-381z" />
    <glyph glyph-name="uniF640" unicode="&#xf640;" horiz-adv-x="1060" 
d="M74 395q0 111 60.5 205t152.5 133q-87 43 -140 127t-53 182q0 175 129 283q125 107 307 107q183 0 308 -107q129 -108 129 -283q0 -98 -53 -182t-140 -127q93 -39 153 -133t60 -205q0 -186 -133 -301q-130 -112 -324 -112q-193 0 -323 112q-133 115 -133 301zM311 410
q0 -94 63 -159t156 -65q92 0 157 66t65 158q0 98 -70 159q-68 62 -152 62q-90 0 -154.5 -63t-64.5 -158zM731 1026q0 54 -22 96t-57.5 64t-78.5 32.5t-85.5 0.5t-78 -32t-57.5 -64.5t-22 -96.5q0 -55 22 -98.5t57.5 -65.5t78 -32.5t85.5 0t78.5 32.5t57.5 65.5t22 98.5z" />
    <glyph glyph-name="uniF641" unicode="&#xf641;" horiz-adv-x="1038" 
d="M563 0h-258l285 600q-56 -29 -135 -29q-167 0 -274 118.5t-107 301.5q0 208 125 324q126 117 319 117q195 0 322 -115q125 -113 125 -322q0 -113 -115 -370zM518 770q51 0 92.5 19.5t67 51.5t39.5 73t14 83.5t-14 83.5t-39.5 73t-67 51.5t-92.5 19.5q-67 0 -116 -33.5
t-71 -84.5t-22 -109.5t22 -109.5t71 -84.5t116 -33.5z" />
    <glyph glyph-name="uniF6BA" unicode="&#xf6ba;" horiz-adv-x="653" 
d="M592 610h-531v193h531v-193z" />
    <glyph glyph-name="uniF6BB" unicode="&#xf6bb;" horiz-adv-x="1042" 
d="M920 604h-797v205h797v-205z" />
    <glyph glyph-name="uniF6BC" unicode="&#xf6bc;" horiz-adv-x="1421" 
d="M1380 604h-1339v205h1339v-205z" />
    <glyph glyph-name="uniF6C3" unicode="&#xf6c3;" horiz-adv-x="661" 
d="M209 -117h244v-233l-244 -209v442z" />
    <glyph glyph-name="uniF6C9" unicode="&#xf6c9;" horiz-adv-x="831" 
d="M416 1524h-211l164 264h258z" />
    <glyph glyph-name="uniF6CA" unicode="&#xf6ca;" horiz-adv-x="1048" 
d="M909 1802l-282 -291h-205l-283 291h240l145 -153l146 153h239z" />
    <glyph glyph-name="uniF6CB" unicode="&#xf6cb;" horiz-adv-x="987" 
d="M391 1565h-221v215h221v-215zM815 1565h-223v215h223v-215z" />
    <glyph glyph-name="uniF6CE" unicode="&#xf6ce;" horiz-adv-x="796" 
d="M186 1788h260l164 -264h-213z" />
    <glyph glyph-name="uniF6CF" unicode="&#xf6cf;" horiz-adv-x="1171" 
d="M383 1524h-213l164 264h260zM768 1524h-211l184 264h258z" />
    <glyph glyph-name="uniF6D0" unicode="&#xf6d0;" horiz-adv-x="989" 
d="M819 1546h-649v193h649v-193z" />
    <glyph glyph-name="uniF6D1" unicode="&#xf6d1;" horiz-adv-x="966" 
d="M639 1800h219q0 -301 -375 -301q-377 0 -377 301h222q0 -143 155 -143q156 0 156 143z" />
    <glyph glyph-name="uniF6D4" unicode="&#xf6d4;" horiz-adv-x="843" 
d="M539 1413h182q0 -254 -299 -254q-145 0 -223 64t-78 190h184q0 -119 117 -119t117 119z" />
    <glyph glyph-name="uniF6DC" unicode="&#xf6dc;" horiz-adv-x="665" 
d="M289 1413h223v-1413h-238v1157l-202 -139v239z" />
    <glyph glyph-name="uniFEFF" unicode="&#xfeff;" horiz-adv-x="0" 
 />
    <glyph glyph-name="uniF4D3" unicode="&#x1f4d3;" horiz-adv-x="1540" 
d="M123 123v1669q0 51 37 88t88 37h1044q51 0 88 -37t37 -88v-1669q0 -51 -37 -87t-88 -36h-1044q-51 0 -88 36t-37 87zM770 51q39 0 61.5 26.5t22.5 57.5t-22.5 57.5t-61.5 26.5q-53 0 -75 -42t0 -84t75 -42zM805 1800zM1327 270v1416h-1114v-1416h1114z" />
    <glyph glyph-name="uniF4F1" unicode="&#x1f4f1;" horiz-adv-x="1130" 
d="M123 123v1464q0 51 37 88t88 37h635q51 0 88 -37t37 -88v-1464q0 -51 -37 -87t-88 -36h-635q-51 0 -88 36t-37 87zM565 51q39 0 61.5 26.5t22.5 57.5t-22.5 57.5t-61.5 26.5q-53 0 -75 -42t0 -84t75 -42zM662 1618h-193q-23 0 -23 -25q0 -24 23 -24h193q22 0 22 24
q0 25 -22 25zM918 270v1211h-705v-1211h705z" />
    <glyph glyph-name="NULL" horiz-adv-x="0" 
 />
    <glyph glyph-name="CR" horiz-adv-x="681" 
 />
    <glyph glyph-name="CR.001" horiz-adv-x="681" 
 />
    <glyph glyph-name="uni2197.ss02" horiz-adv-x="1366" 
d="M1243 1024v-1024h-160v752l-847 -848l-113 112l848 848h-752v160h1024z" />
    <glyph glyph-name="uni2199.ss02" horiz-adv-x="1366" 
d="M123 0v1024h160v-752l847 848l113 -112l-848 -848h752v-160h-1024z" />
    <glyph glyph-name="a.ss01" 
d="M74 444v140q0 216 108 337t299 121q159 0 246 -90v72h217v-1024h-217v70q-82 -88 -246 -88q-193 0 -300 123t-107 339zM291 455q0 -135 56 -210t163 -75t162 67.5t55 192.5v156q0 128 -56.5 197t-160.5 69q-219 0 -219 -279v-118z" />
    <glyph glyph-name="uni2198.ss02" horiz-adv-x="1366" 
d="M1083 272v752h160v-1024h-1024v160h752l-848 848l113 112z" />
    <glyph glyph-name="uni0434.ss01" 
d="M944 954v-505q0 -222 -111.5 -344.5t-322.5 -122.5q-208 0 -322 123t-114 344v129q0 221 111.5 342.5t314.5 121.5q138 0 227 -65q-3 266 -235 266q-110 0 -228 -80l-106 142q145 127 348 127q215 0 326.5 -122t111.5 -356zM510 170q107 0 162 74.5t55 210.5v118
q0 279 -217 279q-219 0 -219 -279v-118q0 -285 219 -285z" />
    <glyph glyph-name="uni0438.ss01" horiz-adv-x="1077" 
d="M741 1024h217v-1024h-215v92q-38 -60 -95 -85t-156 -25q-180 0 -277.5 101.5t-97.5 301.5v639h219v-616q0 -123 48 -178.5t148 -55.5q99 0 154 61.5t55 170.5v618z" />
    <glyph glyph-name="uni0439.ss01" horiz-adv-x="1077" 
d="M741 1024h217v-1024h-215v92q-38 -60 -95 -85t-156 -25q-180 0 -277.5 101.5t-97.5 301.5v639h219v-616q0 -123 48 -178.5t148 -55.5q99 0 154 61.5t55 170.5v618zM655 1413h183q0 -254 -299 -254q-145 0 -223 64t-78 190h184q0 -119 117 -119q116 0 116 119z" />
    <glyph glyph-name="uni043F.ss01" horiz-adv-x="1077" 
d="M336 0h-219v1024h215v-92q82 110 254 110q180 0 276 -100.5t96 -300.5v-641h-217v616q0 232 -194 232q-98 0 -154.5 -62.5t-56.5 -167.5v-618z" />
    <glyph glyph-name="uni0442.ss01" horiz-adv-x="1634" 
d="M336 0h-219v1024h215v-92q73 110 239 110q199 0 293 -147q108 147 299 147q169 0 262 -103.5t93 -297.5v-641h-220v616q0 232 -182 232q-85 0 -137 -59.5t-53 -159.5v-629h-217v616q0 232 -181 232q-86 0 -139 -63t-53 -167v-618z" />
    <glyph glyph-name="arrowdown.ss02" horiz-adv-x="1691" 
d="M846 -219l-723 723l113 112l530 -530v1200h160v-1200l530 530l113 -112z" />
    <glyph glyph-name="uni2196.ss02" horiz-adv-x="1366" 
d="M283 752v-752h-160v1024h1024v-160h-752l848 -848l-113 -112z" />
    <glyph glyph-name="uni261E.ss02" horiz-adv-x="2172" 
d="M1137 104h-568v758l598 441q18 -18 39 -62q64 -124 -51 -233l-151 -146h921q125 0 125 -102q0 -103 -119 -103h-469v-73q0 -59 -26 -85t-84 -26v-74q0 -59 -26.5 -84.5t-84.5 -25.5v-70q0 -61 -24 -88t-80 -27zM123 104v758h336v-758h-336zM217 811h-41v-653h41v653z
M311 811h-41v-455h41v455zM365 158h41v653h-41v-653zM311 229h-41v-71h41v71z" />
    <glyph glyph-name="arrowup.ss02" horiz-adv-x="1691" 
d="M846 1288l723 -723l-113 -112l-530 530v-1200h-160v1200l-530 -530l-113 112z" />
    <glyph glyph-name="arrowright.ss02" horiz-adv-x="1751" 
d="M1628 535l-723 -723l-112 112l530 531h-1200v159h1200l-530 531l112 112z" />
    <glyph glyph-name="acircumflex.ss01" 
d="M74 444v140q0 216 108 337t299 121q159 0 246 -90v72h217v-1024h-217v70q-82 -88 -246 -88q-193 0 -300 123t-107 339zM291 455q0 -135 56 -210t163 -75t162 67.5t55 192.5v156q0 128 -56.5 197t-160.5 69q-219 0 -219 -279v-118zM199 1143l221 291h205l221 -291h-209
l-115 157l-114 -157h-209z" />
    <glyph glyph-name="atilde.ss01" 
d="M74 444v140q0 216 108 337t299 121q159 0 246 -90v72h217v-1024h-217v70q-82 -88 -246 -88q-193 0 -300 123t-107 339zM291 455q0 -135 56 -210t163 -75t162 67.5t55 192.5v156q0 128 -56.5 197t-160.5 69q-219 0 -219 -279v-118zM653 1171q-42 0 -127 29t-110 29
q-63 0 -115 -55l-119 120q95 115 230 115q44 0 123 -31q82 -28 116 -28q57 0 109 55l119 -119q-89 -115 -226 -115z" />
    <glyph glyph-name="adieresis.ss01" 
d="M74 444v140q0 216 108 337t299 121q159 0 246 -90v72h217v-1024h-217v70q-82 -88 -246 -88q-193 0 -300 123t-107 339zM291 455q0 -135 56 -210t163 -75t162 67.5t55 192.5v156q0 128 -56.5 197t-160.5 69q-219 0 -219 -279v-118zM430 1198h-223v215h223v-215zM852 1198
h-221v215h221v-215z" />
    <glyph glyph-name="aring.ss01" 
d="M74 444v140q0 216 108 337t299 121q159 0 246 -90v72h217v-1024h-217v70q-82 -88 -246 -88q-193 0 -300 123t-107 339zM291 455q0 -135 56 -210t163 -75t162 67.5t55 192.5v156q0 128 -56.5 197t-160.5 69q-219 0 -219 -279v-118zM354 1163q-67 64 -67 160t67 160
q71 65 172 65t172 -65q68 -65 68 -160t-68 -160q-63 -63 -172 -63t-172 63zM459 1395q-21 -21 -26.5 -52t4.5 -57.5t33.5 -45.5t55.5 -19t56 19t33.5 45.5t4.5 57.5t-26 52q-28 28 -68 28q-39 0 -67 -28z" />
    <glyph glyph-name="egrave.ss01" horiz-adv-x="997" 
d="M725 270l164 -114q-101 -174 -367 -174q-212 0 -330 123.5t-118 338.5v140q0 221 111.5 339.5t316.5 118.5q193 0 297 -85t104 -234q0 -141 -103.5 -220t-297.5 -79h-211q15 -254 223 -254q84 0 131 22.5t80 77.5zM502 852q-99 0 -154 -67t-57 -189h211q184 0 184 127
q0 129 -184 129zM276 1485h250l144 -324h-207z" />
    <glyph glyph-name="eacute.ss01" horiz-adv-x="997" 
d="M725 270l164 -114q-101 -174 -367 -174q-212 0 -330 123.5t-118 338.5v140q0 221 111.5 339.5t316.5 118.5q193 0 297 -85t104 -234q0 -141 -103.5 -220t-297.5 -79h-211q15 -254 223 -254q84 0 131 22.5t80 77.5zM502 852q-99 0 -154 -67t-57 -189h211q184 0 184 127
q0 129 -184 129zM590 1161h-207l143 324h250z" />
    <glyph glyph-name="ecircumflex.ss01" horiz-adv-x="997" 
d="M725 270l164 -114q-101 -174 -367 -174q-212 0 -330 123.5t-118 338.5v140q0 221 111.5 339.5t316.5 118.5q193 0 297 -85t104 -234q0 -141 -103.5 -220t-297.5 -79h-211q15 -254 223 -254q84 0 131 22.5t80 77.5zM502 852q-99 0 -154 -67t-57 -189h211q184 0 184 127
q0 129 -184 129zM193 1143l221 291h204l222 -291h-209l-115 157l-115 -157h-208z" />
    <glyph glyph-name="edieresis.ss01" horiz-adv-x="997" 
d="M725 270l164 -114q-101 -174 -367 -174q-212 0 -330 123.5t-118 338.5v140q0 221 111.5 339.5t316.5 118.5q193 0 297 -85t104 -234q0 -141 -103.5 -220t-297.5 -79h-211q15 -254 223 -254q84 0 131 22.5t80 77.5zM502 852q-99 0 -154 -67t-57 -189h211q184 0 184 127
q0 129 -184 129zM412 1198h-224v215h224v-215zM834 1198h-222v215h222v-215z" />
    <glyph glyph-name="uni0430.ss01" 
d="M74 444v140q0 216 108 337t299 121q159 0 246 -90v72h217v-1024h-217v70q-82 -88 -246 -88q-193 0 -300 123t-107 339zM291 455q0 -135 56 -210t163 -75t162 67.5t55 192.5v156q0 128 -56.5 197t-160.5 69q-219 0 -219 -279v-118z" />
    <glyph glyph-name="uni0435.ss01" horiz-adv-x="997" 
d="M725 270l164 -114q-101 -174 -367 -174q-212 0 -330 123.5t-118 338.5v140q0 221 111.5 339.5t316.5 118.5q193 0 297 -85t104 -234q0 -141 -103.5 -220t-297.5 -79h-211q15 -254 223 -254q84 0 131 22.5t80 77.5zM502 852q-99 0 -154 -67t-57 -189h211q184 0 184 127
q0 129 -184 129z" />
    <glyph glyph-name="uni0451.ss01" horiz-adv-x="997" 
d="M725 270l164 -114q-101 -174 -367 -174q-212 0 -330 123.5t-118 338.5v140q0 221 111.5 339.5t316.5 118.5q193 0 297 -85t104 -234q0 -141 -103.5 -220t-297.5 -79h-211q15 -254 223 -254q84 0 131 22.5t80 77.5zM502 852q-99 0 -154 -67t-57 -189h211q184 0 184 127
q0 129 -184 129zM412 1198h-224v215h224v-215zM834 1198h-222v215h222v-215z" />
    <glyph glyph-name="aogonek.ss01" 
d="M727 1024h217v-1024q-62 -47 -86 -74t-24 -57q0 -51 71 -51q3 0 8 0.5t14.5 1.5t18.5 2l29 -121q-16 -8 -96 -8q-97 0 -158.5 41t-61.5 114q0 86 68 142v80q-82 -88 -246 -88q-193 0 -300 123t-107 339v140q0 216 108 337t299 121q159 0 246 -90v72zM291 455
q0 -135 56 -210t163 -75t162 67.5t55 192.5v156q0 128 -56.5 197t-160.5 69q-219 0 -219 -279v-118z" />
    <glyph glyph-name="abreve.ss01" 
d="M74 444v140q0 216 108 337t299 121q159 0 246 -90v72h217v-1024h-217v70q-82 -88 -246 -88q-193 0 -300 123t-107 339zM291 455q0 -135 56 -210t163 -75t162 67.5t55 192.5v156q0 128 -56.5 197t-160.5 69q-219 0 -219 -279v-118zM676 1413h164q-4 -124 -81 -191
t-212 -67q-137 0 -214 67t-81 191h166q12 -115 129 -115t129 115z" />
    <glyph glyph-name="eogonek.ss01" horiz-adv-x="997" 
d="M725 270l164 -114q-72 -122 -207 -156q-62 -47 -86 -74q-25 -28 -25 -57q0 -51 72 -51q3 0 8 0.5t14.5 1.5t18.5 2l29 -121q-16 -8 -97 -8q-97 0 -158 41t-61 114q0 80 58 138q-182 19 -281.5 140t-99.5 318v140q0 221 111.5 339.5t316.5 118.5q193 0 297 -85t104 -234
q0 -141 -103.5 -220t-297.5 -79h-211q15 -254 223 -254q84 0 131 22.5t80 77.5zM502 852q-99 0 -154 -67t-57 -189h211q184 0 184 127q0 129 -184 129z" />
    <glyph glyph-name="ecaron.ss01" horiz-adv-x="997" 
d="M725 270l164 -114q-101 -174 -367 -174q-212 0 -330 123.5t-118 338.5v140q0 221 111.5 339.5t316.5 118.5q193 0 297 -85t104 -234q0 -141 -103.5 -220t-297.5 -79h-211q15 -254 223 -254q84 0 131 22.5t80 77.5zM502 852q-99 0 -154 -67t-57 -189h211q184 0 184 127
q0 129 -184 129zM829 1434l-221 -291h-205l-221 291h209l115 -158l115 158h208z" />
    <glyph glyph-name="amacron.ss01" 
d="M74 444v140q0 216 108 337t299 121q159 0 246 -90v72h217v-1024h-217v70q-82 -88 -246 -88q-193 0 -300 123t-107 339zM291 455q0 -135 56 -210t163 -75t162 67.5t55 192.5v156q0 128 -56.5 197t-160.5 69q-219 0 -219 -279v-118zM817 1198h-567v193h567v-193z" />
    <glyph glyph-name="emacron.ss01" horiz-adv-x="997" 
d="M725 270l164 -114q-101 -174 -367 -174q-212 0 -330 123.5t-118 338.5v140q0 221 111.5 339.5t316.5 118.5q193 0 297 -85t104 -234q0 -141 -103.5 -220t-297.5 -79h-211q15 -254 223 -254q84 0 131 22.5t80 77.5zM502 852q-99 0 -154 -67t-57 -189h211q184 0 184 127
q0 129 -184 129zM786 1198h-567v193h567v-193z" />
    <glyph glyph-name="edotaccent.ss01" horiz-adv-x="997" 
d="M725 270l164 -114q-101 -174 -367 -174q-212 0 -330 123.5t-118 338.5v140q0 221 111.5 339.5t316.5 118.5q193 0 297 -85t104 -234q0 -141 -103.5 -220t-297.5 -79h-211q15 -254 223 -254q84 0 131 22.5t80 77.5zM502 852q-99 0 -154 -67t-57 -189h211q184 0 184 127
q0 129 -184 129zM627 1190h-238v223h238v-223z" />
    <glyph glyph-name="uni0430.var.accented.ss01" 
d="M74 444v140q0 216 108 337t299 121q159 0 246 -90v72h217v-1024h-217v70q-82 -88 -246 -88q-193 0 -300 123t-107 339zM291 455q0 -135 56 -210t163 -75t162 67.5t55 192.5v156q0 128 -56.5 197t-160.5 69q-219 0 -219 -279v-118zM612 1161h-206l143 324h250z" />
    <glyph glyph-name="uni0435.var.accented.ss01" horiz-adv-x="997" 
d="M725 270l164 -114q-101 -174 -367 -174q-212 0 -330 123.5t-118 338.5v140q0 221 111.5 339.5t316.5 118.5q193 0 297 -85t104 -234q0 -141 -103.5 -220t-297.5 -79h-211q15 -254 223 -254q84 0 131 22.5t80 77.5zM502 852q-99 0 -154 -67t-57 -189h211q184 0 184 127
q0 129 -184 129zM590 1161h-207l143 324h250z" />
    <glyph glyph-name="uni0438.var.accented.ss01" horiz-adv-x="1077" 
d="M741 1024h217v-1024h-215v92q-38 -60 -95 -85t-156 -25q-180 0 -277.5 101.5t-97.5 301.5v639h219v-616q0 -123 48 -178.5t148 -55.5q99 0 154 61.5t55 170.5v618zM629 1161h-207l143 324h250z" />
    <glyph glyph-name="uni0451.var.accented.ss01" horiz-adv-x="997" 
d="M725 270l164 -114q-101 -174 -367 -174q-212 0 -330 123.5t-118 338.5v140q0 221 111.5 339.5t316.5 118.5q193 0 297 -85t104 -234q0 -141 -103.5 -220t-297.5 -79h-211q15 -254 223 -254q84 0 131 22.5t80 77.5zM502 852q-99 0 -154 -67t-57 -189h211q184 0 184 127
q0 129 -184 129zM578 1468h-207l143 324h250zM383 1198h-223v215h223v-215zM805 1198h-221v215h221v-215z" />
    <glyph glyph-name="uni04E3.ss01" horiz-adv-x="1077" 
d="M741 1024h217v-1024h-215v92q-38 -60 -95 -85t-156 -25q-180 0 -277.5 101.5t-97.5 301.5v639h219v-616q0 -123 48 -178.5t148 -55.5q99 0 154 61.5t55 170.5v618zM823 1198h-567v193h567v-193z" />
    <glyph glyph-name="uni045F.ss01" horiz-adv-x="1077" 
d="M741 1024h217v-1024h-215v92q-59 -89 -161 -104v-228h-181v230q-137 21 -210.5 120.5t-73.5 274.5v639h219v-616q0 -123 48 -178.5t148 -55.5q99 0 154 61.5t55 170.5v618z" />
    <glyph glyph-name="arrowleft.ss02" horiz-adv-x="1751" 
d="M428 455l530 -531l-112 -112l-723 723l723 722l112 -112l-530 -531h1200v-159h-1200z" />
    <glyph glyph-name="aacute.ss01" 
d="M74 444v140q0 216 108 337t299 121q159 0 246 -90v72h217v-1024h-217v70q-82 -88 -246 -88q-193 0 -300 123t-107 339zM291 455q0 -135 56 -210t163 -75t162 67.5t55 192.5v156q0 128 -56.5 197t-160.5 69q-219 0 -219 -279v-118zM612 1161h-206l143 324h250z" />
    <glyph glyph-name="agrave.ss01" 
d="M74 444v140q0 216 108 337t299 121q159 0 246 -90v72h217v-1024h-217v70q-82 -88 -246 -88q-193 0 -300 123t-107 339zM291 455q0 -135 56 -210t163 -75t162 67.5t55 192.5v156q0 128 -56.5 197t-160.5 69q-219 0 -219 -279v-118zM297 1485h250l143 -324h-207z" />
    <glyph glyph-name="uni0449.ss01" horiz-adv-x="1650" 
d="M1257 1024h220v-836h137v-428h-205v240h-147v92q-76 -110 -228 -110q-197 0 -286 145q-109 -145 -285 -145q-166 0 -256 103.5t-90 297.5v641h219v-616q0 -234 174 -234q82 0 130 62t48 170v618h217v-616q0 -234 172 -234q85 0 132.5 61.5t47.5 170.5v618z" />
    <glyph glyph-name="uni0448.ss01" horiz-adv-x="1595" 
d="M688 406v618h217v-616q0 -234 172 -234q85 0 132.5 61.5t47.5 170.5v618h220v-1024h-215v92q-76 -110 -228 -110q-197 0 -286 145q-109 -145 -285 -145q-166 0 -256 103.5t-90 297.5v641h219v-616q0 -234 174 -234q82 0 130 62t48 170z" />
    <glyph glyph-name="uni0446.ss01" horiz-adv-x="1134" 
d="M741 1024h217v-836h140v-428h-205v240h-150v92q-38 -60 -95 -85t-156 -25q-180 0 -277.5 101.5t-97.5 301.5v639h219v-616q0 -123 48 -178.5t148 -55.5q99 0 154 61.5t55 170.5v618z" />
    <glyph glyph-name="e.ss01" horiz-adv-x="997" 
d="M725 270l164 -114q-101 -174 -367 -174q-212 0 -330 123.5t-118 338.5v140q0 221 111.5 339.5t316.5 118.5q193 0 297 -85t104 -234q0 -141 -103.5 -220t-297.5 -79h-211q15 -254 223 -254q84 0 131 22.5t80 77.5zM502 852q-99 0 -154 -67t-57 -189h211q184 0 184 127
q0 129 -184 129z" />
    </font>
</defs>
</svg>
